<svg xmlns="http://www.w3.org/2000/svg" fill="none" viewBox="0 0 234 54"><g fill="#fff" clip-path="url(#a)"><path d="M4.86 48.682c-.193-.91-.86-1.35-1.774-1.35-.923 0-1.495.472-1.495 1.127 0 .62.497.828 1.152.982l1.247.286c1.1.272 2.158.563 2.158 2.145 0 1.416-1.263 2.127-2.812 2.127-1.757 0-2.879-.84-3.135-2.392l1.108-.11c.156 1.215 1.05 1.603 2.047 1.603.98 0 1.656-.451 1.656-1.199 0-.764-.57-.955-1.333-1.137l-1.322-.325c-.947-.233-1.902-.61-1.902-1.952 0-1.253 1.14-2.054 2.64-2.054 1.594 0 2.53.791 2.88 2.16l-1.115.09Zm6.973-1.12v6.276h-1.117v-6.276H8.29v-.967h5.97v.967h-2.426Zm7.916 3.427H17.95v2.849h-1.115v-7.243h3.357c1.616 0 2.506.867 2.506 2.197 0 1.096-.605 1.878-1.723 2.118l1.832 2.928h-1.305l-1.754-2.85Zm.303-.937c.99 0 1.51-.459 1.51-1.26 0-.803-.52-1.26-1.51-1.26h-2.101v2.52h2.101Zm6.957 1.842-.72 1.944h-1.205l2.836-7.243h1.412l2.837 7.243h-1.216l-.724-1.944h-3.22Zm1.627-4.29h-.04l-1.24 3.352h2.526l-1.246-3.352Zm8.236-.042v6.276h-1.116v-6.276h-2.428v-.967h5.97v.967h-2.426Zm9.876 2.086v.918H42.99v2.305h3.92v.967h-5.035v-7.243h5.036v.937H42.99v2.116h3.758Zm8.314 4.19v-.886C54.626 53.59 53.905 54 52.835 54c-2.041 0-3.452-1.54-3.452-3.794s1.41-3.773 3.452-3.773c1.477 0 2.666.814 3.145 2.174l-1.117.13c-.37-.892-1.08-1.366-2.028-1.366-1.423 0-2.316 1.1-2.316 2.835 0 1.754.893 2.856 2.316 2.856 1.337 0 2.115-.97 2.117-1.968h-1.986v-.935h2.996v3.679h-.9Zm3.864-7.243h1.115v7.243h-1.115v-7.243Zm10.48 4.895c-.255 1.176-1.267 2.509-3.156 2.509-2.012 0-3.41-1.448-3.41-3.793 0-2.324 1.398-3.773 3.41-3.773 1.69 0 2.695 1.096 3.025 2.013l-1.088.24c-.274-.71-.926-1.315-1.937-1.315-1.394 0-2.274 1.05-2.274 2.835 0 1.805.88 2.856 2.274 2.856 1.209 0 1.825-.843 2.04-1.741l1.116.169Zm8.962-.501H76.57v2.849h-1.115v-7.243h3.357c1.616 0 2.506.867 2.506 2.197 0 1.096-.605 1.878-1.723 2.118l1.833 2.928h-1.306l-1.754-2.85Zm.303-.937c.99 0 1.51-.459 1.51-1.26 0-.803-.52-1.26-1.51-1.26H76.57v2.52h2.101Zm10.3-.404v.918h-3.759v2.305h3.921v.967h-5.035v-7.243h5.035v.937h-3.92v2.116h3.758Zm4.491 2.246-.719 1.944h-1.206l2.836-7.243h1.412l2.837 7.243h-1.216l-.724-1.944h-3.22Zm1.627-4.29h-.04l-1.24 3.352h2.526l-1.246-3.352Zm6.042-1.009h1.115v6.276h3.96v.967h-5.075v-7.243Zm15.948 3.053v.918h-3.759v2.305h3.921v.967h-5.036v-7.243h5.036v.937h-3.921v2.116h3.759Zm7.054-.966c-.192-.91-.86-1.35-1.774-1.35-.922 0-1.495.472-1.495 1.127 0 .62.497.828 1.152.982l1.247.286c1.101.272 2.159.563 2.159 2.145 0 1.416-1.263 2.127-2.812 2.127-1.757 0-2.879-.84-3.135-2.392l1.107-.11c.157 1.215 1.05 1.603 2.048 1.603.979 0 1.655-.451 1.655-1.199 0-.764-.569-.955-1.332-1.137l-1.323-.325c-.947-.233-1.902-.61-1.902-1.952 0-1.253 1.14-2.054 2.641-2.054 1.593 0 2.529.791 2.88 2.16l-1.116.09Zm6.973-1.12v6.276h-1.116v-6.276h-2.428v-.967h5.97v.967h-2.426Zm5.516 4.332-.719 1.944h-1.206l2.836-7.243h1.413l2.836 7.243h-1.216l-.723-1.944h-3.221Zm1.627-4.29h-.039l-1.24 3.352h2.525l-1.246-3.352Zm8.23-.042v6.276h-1.116v-6.276h-2.427v-.967h5.969v.967h-2.426Zm9.875 2.086v.918h-3.759v2.305h3.921v.967h-5.036v-7.243h5.036v.937h-3.921v2.116h3.759ZM9.003 32.026h.094v.375H8.065c-1.172 0-2.063-.14-3.517-.14-1.453 0-2.39.14-3.516.14H0v-.375h.047c1.923 0 2.485-.516 2.485-2.626V3.47C2.532 1.36 1.97.844.047.844H0V.469h1.032c1.125 0 2.063.14 3.516.14C6.002.61 6.893.47 8.065.47h1.032v.375h-.094c-1.922 0-2.485.516-2.485 2.626V29.4c0 2.11.563 2.626 2.485 2.626Zm31.791.329c-.844 0-1.533.047-2.47.047L18.72 4.482v21.635c0 2.954.55 5.862 3.927 5.908h.093v.375h-1.078c-.797 0-2.063-.14-3.47-.14-1.454 0-2.72.14-3.517.14h-1.031v-.375h.093c3.33 0 4.174-2.954 4.174-5.908V3.329C16.832 1.735 16.364.844 14.489.844h-.094V.469h.61c1.312 0 1.828.047 2.907.047 1.219 0 2.108-.047 3.139-.047l18.606 26.9V6.753c0-2.954-.504-5.861-3.88-5.908h-.094V.469h1.079c.797 0 2.063.14 3.47.14 1.453 0 2.72-.14 3.517-.14h1.03v.375h-.093c-3.329 0-4.22 2.954-4.22 5.908v21.664l2.626 3.985c-1.079 0-1.688-.046-2.298-.046ZM71.7.469h-5.018c-1.078 0-2.485.047-4.22.047-1.782 0-3.189-.047-4.22-.047H50.66l-3.015 10.738.328.14c2.344-4.548 3.986-6.833 5.252-8.427 1.172-1.5 1.782-1.641 3.422-1.641h3.799V29.4c0 2.11-.516 2.626-2.485 2.626h-.047v.375h1.031c1.126 0 2.063-.14 3.517-.14 1.454 0 2.345.14 3.517.14h1.031v-.375h-.093c-1.923 0-2.439-.516-2.439-2.626V1.28h3.799c1.594 0 2.203.14 3.422 1.64 1.267 1.595 2.814 3.88 5.206 8.428l.328-.14L74.218.469h-2.519Zm14.301 31.886c1.736 0 2.767.047 4.268.047h13.209l3.859-10.223-.328-.14c-2.298 3.704-4.08 6.283-5.58 7.924-1.642 1.735-2.767 1.629-4.642 1.629H87.97v-15.01h5.627c3.751 0 4.314 2.596 4.736 6.3h.375V9.66h-.375c-.422 3.705-.985 6.114-4.736 6.114H87.97V1.279h8.394c1.875 0 3.047-.013 4.407 1.394 1.36 1.407 2.907 3.61 5.533 7.268l.329-.14-3.555-9.332H90.456c-1.453 0-2.72.047-4.455.047-1.453 0-2.39-.047-3.516-.047h-1.032v.375h.047c1.923 0 2.485.516 2.485 2.626V29.4c0 2.11-.562 2.626-2.485 2.626h-.047v.375h1.032c1.125 0 2.063-.046 3.516-.046Zm48.956-13.927c-1.453 0-2.391-.14-3.563-.14h-1.032v.375h.094c1.922 0 2.485.515 2.485 2.579v7.49c-1.219 1.266-3.939 3.047-7.034 3.047-6.564 0-10.269-5.192-10.269-15.602 0-11.535 4.361-15.414 9.566-15.414 4.408 0 7.488 1.833 11.896 9.382l.328-.14-.741-5.1c-1.688-1.268-3.094-2.239-5.059-3.334C129.614.45 127.495 0 125.204 0c-6.049 0-14.067 4.783-14.067 16.834 0 8.956 5.955 15.943 13.739 15.943 4.079 0 6.893-1.923 8.299-3.283 1.313.563 3.142 1.689 3.423 3.376h.328V21.242c0-2.064.563-2.58 2.486-2.58h.094v-.374h-1.032c-1.172 0-2.063.14-3.517.14Zm32.971 13.832c-1.079 0-1.782.141-2.766.141l-8.113-15.052h-6.33V29.4c0 2.11.563 2.626 2.485 2.626h.094v.375h-1.031c-1.173 0-2.064-.14-3.517-.14-1.454 0-2.392.14-3.517.14h-1.032v-.375h.047c1.923 0 2.485-.516 2.485-2.626V3.47c0-2.11-.562-2.626-2.485-2.626h-.047V.469h1.032c1.125 0 2.063.047 3.517.047 1.735 0 2.766-.047 4.267-.047h4.923c6.096 0 10.738 3.048 10.738 8.393 0 4.549-3.845 8.487-10.691 8.487H158c1.172 1.876 1.91 2.533 4.911 2.533l4.22 7.83c2.016 3.705 2.907 4.22 5.111 4.314v.375c-2.345 0-2.485-.14-4.314-.14ZM157.706 1.28h-6.987v15.214h6.987c4.97 0 6.565-2.144 6.565-7.584 0-5.017-1.36-7.63-6.565-7.63Zm47.199 31.121c-.891 0-2.298-.14-3.611-.14-1.5 0-3.001.14-3.798.14h-1.219v-.375c1.454 0 2.392-.562 2.392-1.594 0-.375-.141-.797-.376-1.407l-2.297-5.439h-14.407l-1.079 2.72c-.328.844-.656 2.11-.656 2.907 0 1.641.762 2.813 3.106 2.813v.375h-.563c-1.172 0-2.86-.14-4.079-.14-.844 0-2.673.14-3.564.14h-.938v-.375c2.485-.093 4.267-1.735 5.909-5.955l8.44-21.523L186.477.47c.891 0 1.547.047 2.298.047.797 0 1.312-.047 2.063-.047l11.91 28.79c.797 1.97 1.735 2.767 3.329 2.767v.375h-1.172Zm-22.979-9.672h13.762l-7.09-17.133-6.672 17.133Zm31.843 9.626c1.454 0 2.345.047 3.517.047h12.358l4.054-10.88-.329-.14c-2.297 3.705-4.313 6.94-5.814 8.581-1.594 1.735-2.72 1.629-4.548 1.629h-7.268V3.47c0-2.11.562-2.626 2.485-2.626h.094V.469h-1.032c-1.172 0-2.063.14-3.517.14-1.453 0-2.391-.14-3.517-.14h-1.031v.375h.047c1.922 0 2.485.516 2.485 2.626V29.4c0 2.11-.563 2.626-2.485 2.626h-.047v.375h1.031c1.126 0 2.063-.046 3.517-.046Z"/></g><defs><clipPath id="a"><path fill="#fff" d="M0 0h233.697v54H0z"/></clipPath></defs></svg>
