<svg xmlns="http://www.w3.org/2000/svg" fill="none" viewBox="0 0 160 148"><mask id="a" width="18" height="22" x="81.485" y="-.051" fill="#000" maskUnits="userSpaceOnUse"><path fill="#fff" d="M81.485-.051h18v22h-18z"/><path d="M88.813 20.994c-.913 0-1.884-.089-2.943-.089-.972 0-1.678.089-2.5.089h-.885v-.265h.088c1.18 0 1.59-.501 1.59-1.884V3.068c0-1.354-.41-1.854-1.59-1.854h-.088V.95h.884c.794 0 1.47.03 2.413.03 1.206 0 2.002-.03 3.09-.03h2.53c4.27 0 7.096 1.825 7.096 5.387 0 3.62-2.827 5.474-7.095 5.474H87.37v7.035c0 1.325.413 1.884 1.973 1.884h.823v.265h-1.354Zm6.183-14.658c0-3.473-.825-5.062-3.768-5.062h-3.857v10.212h3.857c2.943 0 3.768-1.647 3.768-5.15Z"/></mask><path fill="#A6A0A1" d="M88.813 20.994c-.913 0-1.884-.089-2.943-.089-.972 0-1.678.089-2.5.089h-.885v-.265h.088c1.18 0 1.59-.501 1.59-1.884V3.068c0-1.354-.41-1.854-1.59-1.854h-.088V.95h.884c.794 0 1.47.03 2.413.03 1.206 0 2.002-.03 3.09-.03h2.53c4.27 0 7.096 1.825 7.096 5.387 0 3.62-2.827 5.474-7.095 5.474H87.37v7.035c0 1.325.413 1.884 1.973 1.884h.823v.265h-1.354Zm6.183-14.658c0-3.473-.825-5.062-3.768-5.062h-3.857v10.212h3.857c2.943 0 3.768-1.647 3.768-5.15Z"/><path stroke="#A6A0A1" stroke-width=".267" d="M88.813 20.994c-.913 0-1.884-.089-2.943-.089-.972 0-1.678.089-2.5.089h-.885v-.265h.088c1.18 0 1.59-.501 1.59-1.884V3.068c0-1.354-.41-1.854-1.59-1.854h-.088V.95h.884c.794 0 1.47.03 2.413.03 1.206 0 2.002-.03 3.09-.03h2.53c4.27 0 7.096 1.825 7.096 5.387 0 3.62-2.827 5.474-7.095 5.474H87.37v7.035c0 1.325.413 1.884 1.973 1.884h.823v.265h-1.354Zm6.183-14.658c0-3.473-.825-5.062-3.768-5.062h-3.857v10.212h3.857c2.943 0 3.768-1.647 3.768-5.15Z" mask="url(#a)"/><mask id="b" width="17" height="23" x="100.146" y="-.051" fill="#000" maskUnits="userSpaceOnUse"><path fill="#fff" d="M100.146-.051h17v23h-17z"/><path d="m114.038 21.936-.208-.06c.031-.558-.264-.882-1.087-.882h-5.916c-.766 0-1.472-.03-2.385-.03-.943 0-1.619.03-2.413.03h-.883v-.265h.087c1.179 0 1.591-.501 1.591-1.884V3.068c0-1.354-.412-1.854-1.591-1.854h-.087V.95h.883c.794 0 1.47.09 2.413.09.913 0 1.619-.09 2.385-.09h.882v.265h-.088c-1.177 0-1.591.5-1.591 1.854V20.67h3.917c1.087 0 1.765-.118 2.706-1.09.943-.999 2.385-3.265 4.004-5.767l.205.088-2.824 8.036Z"/></mask><path fill="#A6A0A1" d="m114.038 21.936-.208-.06c.031-.558-.264-.882-1.087-.882h-5.916c-.766 0-1.472-.03-2.385-.03-.943 0-1.619.03-2.413.03h-.883v-.265h.087c1.179 0 1.591-.501 1.591-1.884V3.068c0-1.354-.412-1.854-1.591-1.854h-.087V.95h.883c.794 0 1.47.09 2.413.09.913 0 1.619-.09 2.385-.09h.882v.265h-.088c-1.177 0-1.591.5-1.591 1.854V20.67h3.917c1.087 0 1.765-.118 2.706-1.09.943-.999 2.385-3.265 4.004-5.767l.205.088-2.824 8.036Z"/><path stroke="#A6A0A1" stroke-width=".267" d="m114.038 21.936-.208-.06c.031-.558-.264-.882-1.087-.882h-5.916c-.766 0-1.472-.03-2.385-.03-.943 0-1.619.03-2.413.03h-.883v-.265h.087c1.179 0 1.591-.501 1.591-1.884V3.068c0-1.354-.412-1.854-1.591-1.854h-.087V.95h.883c.794 0 1.47.09 2.413.09.913 0 1.619-.09 2.385-.09h.882v.265h-.088c-1.177 0-1.591.5-1.591 1.854V20.67h3.917c1.087 0 1.765-.118 2.706-1.09.943-.999 2.385-3.265 4.004-5.767l.205.088-2.824 8.036Z" mask="url(#b)"/><mask id="c" width="22" height="22" x="116.304" y="-.049" fill="#000" maskUnits="userSpaceOnUse"><path fill="#fff" d="M116.304-.049h22v22h-22z"/><path d="M137.025 20.994c-.648 0-1.591-.089-2.444-.089-.941 0-1.912.09-2.532.09h-.941v-.266c.913 0 1.443-.442 1.443-1.06 0-.382-.09-.677-.265-1.058l-1.267-3.15h-8.976l-.53 1.324c-.206.56-.411 1.384-.411 1.913 0 1.207.822 2.031 2.264 2.031v.265h-.381c-.796 0-1.883-.089-2.708-.089-.588 0-1.796.09-2.413.09h-.56v-.266c1.5-.03 2.767-1.236 3.944-4.209l5.032-12.744-1.147-2.825c.648 0 1.206.03 1.825.03.617 0 1.089-.03 1.648-.03l7.211 17.836c.53 1.295 1.089 1.942 2.148 1.942v.265h-.94Zm-14.865-5.857h8.712L126.457 4.16l-4.297 10.978Z"/></mask><path fill="#A6A0A1" d="M137.025 20.994c-.648 0-1.591-.089-2.444-.089-.941 0-1.912.09-2.532.09h-.941v-.266c.913 0 1.443-.442 1.443-1.06 0-.382-.09-.677-.265-1.058l-1.267-3.15h-8.976l-.53 1.324c-.206.56-.411 1.384-.411 1.913 0 1.207.822 2.031 2.264 2.031v.265h-.381c-.796 0-1.883-.089-2.708-.089-.588 0-1.796.09-2.413.09h-.56v-.266c1.5-.03 2.767-1.236 3.944-4.209l5.032-12.744-1.147-2.825c.648 0 1.206.03 1.825.03.617 0 1.089-.03 1.648-.03l7.211 17.836c.53 1.295 1.089 1.942 2.148 1.942v.265h-.94Zm-14.865-5.857h8.712L126.457 4.16l-4.297 10.978Z"/><path stroke="#A6A0A1" stroke-width=".267" d="M137.025 20.994c-.648 0-1.591-.089-2.444-.089-.941 0-1.912.09-2.532.09h-.941v-.266c.913 0 1.443-.442 1.443-1.06 0-.382-.09-.677-.265-1.058l-1.267-3.15h-8.976l-.53 1.324c-.206.56-.411 1.384-.411 1.913 0 1.207.822 2.031 2.264 2.031v.265h-.381c-.796 0-1.883-.089-2.708-.089-.588 0-1.796.09-2.413.09h-.56v-.266c1.5-.03 2.767-1.236 3.944-4.209l5.032-12.744-1.147-2.825c.648 0 1.206.03 1.825.03.617 0 1.089-.03 1.648-.03l7.211 17.836c.53 1.295 1.089 1.942 2.148 1.942v.265h-.94Zm-14.865-5.857h8.712L126.457 4.16l-4.297 10.978Z" mask="url(#c)"/><mask id="d" width="22" height="22" x="138.114" y="-.051" fill="#000" maskUnits="userSpaceOnUse"><path fill="#fff" d="M138.114-.051h22v22h-22z"/><path d="M156.125 20.964c-.619 0-1.236.03-1.942.03l-11.95-17.572v13.51c0 1.854.794 3.767 2.765 3.796h.059v.265h-.588c-.617 0-1.472-.088-2.384-.088-.913 0-1.795.088-2.413.088h-.558v-.265h.059c1.971 0 2.737-1.942 2.737-3.797V3.04c-.796-1.266-1.149-1.825-2.267-1.825h-.118V.95h.619c.854 0 1.324.03 2.149.03.941 0 1.352-.03 2.117-.03l11.508 16.806V5.011c0-1.854-.794-3.767-2.737-3.797h-.059V.95h.56c.617 0 1.501.09 2.385.09.941 0 1.794-.09 2.413-.09h.558v.265h-.057c-1.943 0-2.739 1.943-2.739 3.797v13.216l1.767 2.766c-.825 0-1.472-.03-1.884-.03Z"/></mask><path fill="#A6A0A1" d="M156.125 20.964c-.619 0-1.236.03-1.942.03l-11.95-17.572v13.51c0 1.854.794 3.767 2.765 3.796h.059v.265h-.588c-.617 0-1.472-.088-2.384-.088-.913 0-1.795.088-2.413.088h-.558v-.265h.059c1.971 0 2.737-1.942 2.737-3.797V3.04c-.796-1.266-1.149-1.825-2.267-1.825h-.118V.95h.619c.854 0 1.324.03 2.149.03.941 0 1.352-.03 2.117-.03l11.508 16.806V5.011c0-1.854-.794-3.767-2.737-3.797h-.059V.95h.56c.617 0 1.501.09 2.385.09.941 0 1.794-.09 2.413-.09h.558v.265h-.057c-1.943 0-2.739 1.943-2.739 3.797v13.216l1.767 2.766c-.825 0-1.472-.03-1.884-.03Z"/><path stroke="#A6A0A1" stroke-width=".267" d="M156.125 20.964c-.619 0-1.236.03-1.942.03l-11.95-17.572v13.51c0 1.854.794 3.767 2.765 3.796h.059v.265h-.588c-.617 0-1.472-.088-2.384-.088-.913 0-1.795.088-2.413.088h-.558v-.265h.059c1.971 0 2.737-1.942 2.737-3.797V3.04c-.796-1.266-1.149-1.825-2.267-1.825h-.118V.95h.619c.854 0 1.324.03 2.149.03.941 0 1.352-.03 2.117-.03l11.508 16.806V5.011c0-1.854-.794-3.767-2.737-3.797h-.059V.95h.56c.617 0 1.501.09 2.385.09.941 0 1.794-.09 2.413-.09h.558v.265h-.057c-1.943 0-2.739 1.943-2.739 3.797v13.216l1.767 2.766c-.825 0-1.472-.03-1.884-.03Z" mask="url(#d)"/><path fill="#fff" d="m158.59 31.844-1.988.168c-.504-2.996-2.772-4.396-5.404-4.396-3.08 0-4.9 1.596-4.9 3.724 0 1.848 1.4 2.716 3.528 3.192l3.976.924c2.772.616 5.236 1.82 5.236 5.516 0 3.78-3.192 5.768-7.28 5.768-4.424 0-7.28-2.24-8.148-6.496l2.044-.224c.672 3.752 3.164 5.012 6.104 5.012 3.024 0 5.264-1.484 5.264-4.004 0-2.324-1.68-3.248-3.892-3.752l-3.836-.896c-2.772-.644-5.012-1.792-5.012-5.04 0-3.192 2.8-5.404 6.944-5.404 3.892 0 6.552 2.184 7.364 5.908ZM129.79 35.316h10.668v1.708H129.79v7.588h11.116v1.708H127.83V26.328h13.076v1.708H129.79v7.28ZM121.665 46.32l-5.684-8.344h-5.264v8.344h-1.96V26.328h8.708c4.06 0 6.384 2.128 6.384 5.824 0 3.472-2.016 5.544-5.6 5.796l5.74 8.372h-2.324Zm-10.948-10.024h6.44c2.968 0 4.676-1.316 4.676-4.144 0-2.8-1.708-4.116-4.676-4.116h-6.44v8.26ZM103.712 26.328v13.356c0 4.536-3.164 7.056-7.616 7.056-4.424 0-7.588-2.52-7.588-7.056V26.328h1.96V39.32c0 3.976 2.156 5.712 5.628 5.712s5.656-1.736 5.656-5.712V26.328h1.96ZM84.887 28.064h-6.804V46.32h-1.96V28.064h-6.832v-1.736h15.596v1.736ZM65.73 26.328v13.356c0 4.536-3.163 7.056-7.615 7.056-4.424 0-7.588-2.52-7.588-7.056V26.328h1.96V39.32c0 3.976 2.156 5.712 5.628 5.712s5.656-1.736 5.656-5.712V26.328h1.96ZM35.437 28.036v7.448h10.668v1.68H35.437v9.184h-1.96V26.356h13.076v1.68H35.437Z"/><mask id="e" width="18" height="22" x="73.017" y="49.74" fill="#000" maskUnits="userSpaceOnUse"><path fill="#fff" d="M73.017 49.74h18v22h-18z"/><path d="M83.324 70.733h-2.82c-1.114 0-2.142-.03-3.199-.03-.94 0-1.615.03-2.407.03h-.881v-.264h.088c1.175 0 1.586-.5 1.586-1.879V52.853c0-1.35-.41-1.85-1.587-1.85h-.087v-.263h.881c.792 0 1.467.03 2.407.03 1.203 0 1.997-.03 3.082-.03h2.232c3.905 0 6.87 1.76 6.87 4.932 0 2.7-2.232 4.609-5.55 4.902 3.64.03 6.637 1.528 6.637 4.991 0 3.582-3.319 5.168-7.252 5.168Zm-.969-19.67h-3.466v9.395h3.64c2.938 0 3.612-1.908 3.612-4.756 0-2.995-.85-4.639-3.786-4.639Zm.705 9.718h-4.17v9.63h4.14c2.935 0 4.021-1.38 4.021-4.873 0-3.582-1.291-4.757-3.991-4.757Z"/></mask><path fill="#A6A0A1" d="M83.324 70.733h-2.82c-1.114 0-2.142-.03-3.199-.03-.94 0-1.615.03-2.407.03h-.881v-.264h.088c1.175 0 1.586-.5 1.586-1.879V52.853c0-1.35-.41-1.85-1.587-1.85h-.087v-.263h.881c.792 0 1.467.03 2.407.03 1.203 0 1.997-.03 3.082-.03h2.232c3.905 0 6.87 1.76 6.87 4.932 0 2.7-2.232 4.609-5.55 4.902 3.64.03 6.637 1.528 6.637 4.991 0 3.582-3.319 5.168-7.252 5.168Zm-.969-19.67h-3.466v9.395h3.64c2.938 0 3.612-1.908 3.612-4.756 0-2.995-.85-4.639-3.786-4.639Zm.705 9.718h-4.17v9.63h4.14c2.935 0 4.021-1.38 4.021-4.873 0-3.582-1.291-4.757-3.991-4.757Z"/><path stroke="#A6A0A1" stroke-width=".267" d="M83.324 70.733h-2.82c-1.114 0-2.142-.03-3.199-.03-.94 0-1.615.03-2.407.03h-.881v-.264h.088c1.175 0 1.586-.5 1.586-1.879V52.853c0-1.35-.41-1.85-1.587-1.85h-.087v-.263h.881c.792 0 1.467.03 2.407.03 1.203 0 1.997-.03 3.082-.03h2.232c3.905 0 6.87 1.76 6.87 4.932 0 2.7-2.232 4.609-5.55 4.902 3.64.03 6.637 1.528 6.637 4.991 0 3.582-3.319 5.168-7.252 5.168Zm-.969-19.67h-3.466v9.395h3.64c2.938 0 3.612-1.908 3.612-4.756 0-2.995-.85-4.639-3.786-4.639Zm.705 9.718h-4.17v9.63h4.14c2.935 0 4.021-1.38 4.021-4.873 0-3.582-1.291-4.757-3.991-4.757Z" mask="url(#e)"/><mask id="f" width="20" height="22" x="92.542" y="49.74" fill="#000" maskUnits="userSpaceOnUse"><path fill="#fff" d="M92.542 49.74h20v22h-20z"/><path d="M102.466 70.968c-4.784 0-7.25-2.055-7.25-6.577V52.853c0-1.35-.44-1.85-1.615-1.85h-.059v-.263h.88c.764 0 1.468.088 2.378.088.91 0 1.615-.088 2.407-.088h.882v.264h-.09c-1.174 0-1.584.499-1.584 1.85v10.745c0 4.727 1.615 6.782 4.991 6.782 3.23 0 5.373-2.378 5.373-5.93v-9.66c0-1.85-.792-3.757-2.731-3.787h-.059v-.264h.557c.617 0 1.499.089 2.378.089.941 0 1.792-.089 2.407-.089h.559v.264h-.059c-1.938 0-2.73 1.938-2.73 3.788v9.659c0 3.787-2.26 6.517-6.635 6.517Z"/></mask><path fill="#A6A0A1" d="M102.466 70.968c-4.784 0-7.25-2.055-7.25-6.577V52.853c0-1.35-.44-1.85-1.615-1.85h-.059v-.263h.88c.764 0 1.468.088 2.378.088.91 0 1.615-.088 2.407-.088h.882v.264h-.09c-1.174 0-1.584.499-1.584 1.85v10.745c0 4.727 1.615 6.782 4.991 6.782 3.23 0 5.373-2.378 5.373-5.93v-9.66c0-1.85-.792-3.757-2.731-3.787h-.059v-.264h.557c.617 0 1.499.089 2.378.089.941 0 1.792-.089 2.407-.089h.559v.264h-.059c-1.938 0-2.73 1.938-2.73 3.788v9.659c0 3.787-2.26 6.517-6.635 6.517Z"/><path stroke="#A6A0A1" stroke-width=".267" d="M102.466 70.968c-4.784 0-7.25-2.055-7.25-6.577V52.853c0-1.35-.44-1.85-1.615-1.85h-.059v-.263h.88c.764 0 1.468.088 2.378.088.91 0 1.615-.088 2.407-.088h.882v.264h-.09c-1.174 0-1.584.499-1.584 1.85v10.745c0 4.727 1.615 6.782 4.991 6.782 3.23 0 5.373-2.378 5.373-5.93v-9.66c0-1.85-.792-3.757-2.731-3.787h-.059v-.264h.557c.617 0 1.499.089 2.378.089.941 0 1.792-.089 2.407-.089h.559v.264h-.059c-1.938 0-2.73 1.938-2.73 3.788v9.659c0 3.787-2.26 6.517-6.635 6.517Z" mask="url(#f)"/><mask id="g" width="8" height="22" x="112.798" y="49.74" fill="#000" maskUnits="userSpaceOnUse"><path fill="#fff" d="M112.798 49.74h8v22h-8z"/><path d="M120.257 70.47h.088v.263h-.88c-.764 0-1.468-.088-2.409-.088-.91 0-1.584.088-2.376.088h-.882v-.264h.088c1.176 0 1.586-.5 1.586-1.879V52.853c0-1.35-.41-1.85-1.586-1.85h-.088v-.263h.882c.792 0 1.466.088 2.376.088.941 0 1.646-.088 2.409-.088h.88v.264h-.088c-1.174 0-1.586.499-1.586 1.85V68.59c0 1.38.412 1.88 1.586 1.88Z"/></mask><path fill="#A6A0A1" d="M120.257 70.47h.088v.263h-.88c-.764 0-1.468-.088-2.409-.088-.91 0-1.584.088-2.376.088h-.882v-.264h.088c1.176 0 1.586-.5 1.586-1.879V52.853c0-1.35-.41-1.85-1.586-1.85h-.088v-.263h.882c.792 0 1.466.088 2.376.088.941 0 1.646-.088 2.409-.088h.88v.264h-.088c-1.174 0-1.586.499-1.586 1.85V68.59c0 1.38.412 1.88 1.586 1.88Z"/><path stroke="#A6A0A1" stroke-width=".267" d="M120.257 70.47h.088v.263h-.88c-.764 0-1.468-.088-2.409-.088-.91 0-1.584.088-2.376.088h-.882v-.264h.088c1.176 0 1.586-.5 1.586-1.879V52.853c0-1.35-.41-1.85-1.586-1.85h-.088v-.263h.882c.792 0 1.466.088 2.376.088.941 0 1.646-.088 2.409-.088h.88v.264h-.088c-1.174 0-1.586.499-1.586 1.85V68.59c0 1.38.412 1.88 1.586 1.88Z" mask="url(#g)"/><mask id="h" width="17" height="23" x="122.635" y="49.74" fill="#000" maskUnits="userSpaceOnUse"><path fill="#fff" d="M122.635 49.74h17v23h-17z"/><path d="m136.493 71.673-.205-.06c.029-.556-.264-.88-1.087-.88H129.3c-.764 0-1.468-.03-2.378-.03-.939 0-1.615.03-2.407.03h-.88v-.264h.088c1.174 0 1.584-.5 1.584-1.879V52.853c0-1.35-.41-1.85-1.584-1.85h-.088v-.263h.88c.792 0 1.468.088 2.407.088.91 0 1.615-.088 2.378-.088h.882v.264h-.09c-1.174 0-1.584.499-1.584 1.85V70.41h3.904c1.087 0 1.761-.118 2.702-1.087.939-.997 2.376-3.258 3.991-5.753l.207.088-2.819 8.015Z"/></mask><path fill="#A6A0A1" d="m136.493 71.673-.205-.06c.029-.556-.264-.88-1.087-.88H129.3c-.764 0-1.468-.03-2.378-.03-.939 0-1.615.03-2.407.03h-.88v-.264h.088c1.174 0 1.584-.5 1.584-1.879V52.853c0-1.35-.41-1.85-1.584-1.85h-.088v-.263h.88c.792 0 1.468.088 2.407.088.91 0 1.615-.088 2.378-.088h.882v.264h-.09c-1.174 0-1.584.499-1.584 1.85V70.41h3.904c1.087 0 1.761-.118 2.702-1.087.939-.997 2.376-3.258 3.991-5.753l.207.088-2.819 8.015Z"/><path stroke="#A6A0A1" stroke-width=".267" d="m136.493 71.673-.205-.06c.029-.556-.264-.88-1.087-.88H129.3c-.764 0-1.468-.03-2.378-.03-.939 0-1.615.03-2.407.03h-.88v-.264h.088c1.174 0 1.584-.5 1.584-1.879V52.853c0-1.35-.41-1.85-1.584-1.85h-.088v-.263h.88c.792 0 1.468.088 2.407.088.91 0 1.615-.088 2.378-.088h.882v.264h-.09c-1.174 0-1.584.499-1.584 1.85V70.41h3.904c1.087 0 1.761-.118 2.702-1.087.939-.997 2.376-3.258 3.991-5.753l.207.088-2.819 8.015Z" mask="url(#h)"/><mask id="i" width="19" height="22" x="140.658" y="49.74" fill="#000" maskUnits="userSpaceOnUse"><path fill="#fff" d="M140.658 49.74h19v22h-19z"/><path d="M149.907 70.733h-1.879c-1.087 0-1.879-.03-3.083-.03-.939 0-1.615.03-2.407.03h-.88v-.264h.088c1.174 0 1.584-.5 1.584-1.879V52.853c0-1.35-.41-1.85-1.584-1.85h-.088v-.263h.88c.792 0 1.468.03 2.407.03 1.204 0 1.996-.03 3.083-.03h1.879c5.019 0 9.131 3.551 9.131 10.01 0 6.43-4.112 9.983-9.131 9.983Zm-.5-19.67h-2.876V70.41h2.876c4.609 0 6.05-2.76 6.05-9.659 0-6.928-1.441-9.688-6.05-9.688Z"/></mask><path fill="#A6A0A1" d="M149.907 70.733h-1.879c-1.087 0-1.879-.03-3.083-.03-.939 0-1.615.03-2.407.03h-.88v-.264h.088c1.174 0 1.584-.5 1.584-1.879V52.853c0-1.35-.41-1.85-1.584-1.85h-.088v-.263h.88c.792 0 1.468.03 2.407.03 1.204 0 1.996-.03 3.083-.03h1.879c5.019 0 9.131 3.551 9.131 10.01 0 6.43-4.112 9.983-9.131 9.983Zm-.5-19.67h-2.876V70.41h2.876c4.609 0 6.05-2.76 6.05-9.659 0-6.928-1.441-9.688-6.05-9.688Z"/><path stroke="#A6A0A1" stroke-width=".267" d="M149.907 70.733h-1.879c-1.087 0-1.879-.03-3.083-.03-.939 0-1.615.03-2.407.03h-.88v-.264h.088c1.174 0 1.584-.5 1.584-1.879V52.853c0-1.35-.41-1.85-1.584-1.85h-.088v-.263h.88c.792 0 1.468.03 2.407.03 1.204 0 1.996-.03 3.083-.03h1.879c5.019 0 9.131 3.551 9.131 10.01 0 6.43-4.112 9.983-9.131 9.983Zm-.5-19.67h-2.876V70.41h2.876c4.609 0 6.05-2.76 6.05-9.659 0-6.928-1.441-9.688-6.05-9.688Z" mask="url(#i)"/><path fill="#fff" d="m158.59 81.581-1.988.168c-.504-2.996-2.772-4.396-5.404-4.396-3.08 0-4.9 1.596-4.9 3.724 0 1.848 1.4 2.716 3.528 3.192l3.976.924c2.772.616 5.236 1.82 5.236 5.516 0 3.78-3.192 5.768-7.28 5.768-4.424 0-7.28-2.24-8.148-6.496l2.044-.224c.672 3.752 3.164 5.012 6.104 5.012 3.024 0 5.264-1.484 5.264-4.004 0-2.324-1.68-3.248-3.892-3.752l-3.836-.896c-2.772-.644-5.012-1.792-5.012-5.04 0-3.192 2.8-5.404 6.944-5.404 3.892 0 6.552 2.184 7.364 5.908ZM140.218 76.065v19.992h-1.904V79.06h-.056l-6.636 16.996h-1.596l-6.664-16.996h-.056v16.996h-1.82V76.065h2.744l6.608 17.136h.056l6.608-17.136h2.716ZM113.447 89.813h-9.38l-2.492 6.244h-2.1l8.148-19.992h2.324l8.148 19.992h-2.156l-2.492-6.244Zm-.672-1.708-4.004-10.08h-.056l-4.004 10.08h8.064ZM85.683 85.053h10.668v1.708H85.683v7.588h11.116v1.708H83.723V76.065h13.076v1.708H85.683v7.28ZM80.102 77.8h-6.804v18.257h-1.96V77.8h-6.832v-1.736h15.596V77.8Z"/><mask id="j" width="18" height="23" x="42.705" y="99.712" fill="#000" maskUnits="userSpaceOnUse"><path fill="#fff" d="M42.705 99.712h18v23h-18z"/><path d="M43.705 111.325c0-6.743 4.954-10.202 8.824-10.202 1.73 0 3.195.556 4.075.556.822 0 1.027-.381 1.027-.909l.205-.058 2.344 7.212-.205.088c-2.93-5.365-5.276-6.596-7.446-6.596-3.167 0-6.04 2.726-6.04 7.564 0 6.538 3.665 10.525 7.77 10.525 2.667 0 4.574-1.32 5.805-4.016l.234.088c-1.29 3.283-4.193 6.039-8.062 6.039-4.75 0-8.53-4.251-8.53-10.291Z"/></mask><path fill="#A6A0A1" d="M43.705 111.325c0-6.743 4.954-10.202 8.824-10.202 1.73 0 3.195.556 4.075.556.822 0 1.027-.381 1.027-.909l.205-.058 2.344 7.212-.205.088c-2.93-5.365-5.276-6.596-7.446-6.596-3.167 0-6.04 2.726-6.04 7.564 0 6.538 3.665 10.525 7.77 10.525 2.667 0 4.574-1.32 5.805-4.016l.234.088c-1.29 3.283-4.193 6.039-8.062 6.039-4.75 0-8.53-4.251-8.53-10.291Z"/><path stroke="#A6A0A1" stroke-width=".267" d="M43.705 111.325c0-6.743 4.954-10.202 8.824-10.202 1.73 0 3.195.556 4.075.556.822 0 1.027-.381 1.027-.909l.205-.058 2.344 7.212-.205.088c-2.93-5.365-5.276-6.596-7.446-6.596-3.167 0-6.04 2.726-6.04 7.564 0 6.538 3.665 10.525 7.77 10.525 2.667 0 4.574-1.32 5.805-4.016l.234.088c-1.29 3.283-4.193 6.039-8.062 6.039-4.75 0-8.53-4.251-8.53-10.291Z" mask="url(#j)"/><mask id="k" width="20" height="22" x="62.347" y="100.415" fill="#000" maskUnits="userSpaceOnUse"><path fill="#fff" d="M62.347 100.415h20v22h-20z"/><path d="M78.652 121.293c-.734 0-1.29.088-2.112.088l-4.866-9.47h-3.46v7.33c0 1.377.41 1.877 1.584 1.877h.087v.263h-.878c-.763 0-1.467-.088-2.376-.088-.939 0-1.612.088-2.403.088h-.88v-.263h.087c1.174 0 1.584-.5 1.584-1.877v-15.715c0-1.349-.41-1.847-1.584-1.847h-.088v-.264h.88c.792 0 1.465.03 2.404.03 1.055 0 1.788-.03 2.727-.03h2.99c4.134 0 6.92 1.877 6.92 5.189 0 2.932-2.433 5.307-6.89 5.307h-.294c.733 1.202 1.319 1.612 3.958 1.612l2.552 5.014c1.113 2.199 1.671 2.551 2.96 2.58v.264c-1.583 0-1.819-.088-2.902-.088Zm-6.538-19.555h-3.9v9.851h3.9c2.814 0 3.753-1.641 3.753-4.955 0-3.078-.822-4.896-3.753-4.896Z"/></mask><path fill="#A6A0A1" d="M78.652 121.293c-.734 0-1.29.088-2.112.088l-4.866-9.47h-3.46v7.33c0 1.377.41 1.877 1.584 1.877h.087v.263h-.878c-.763 0-1.467-.088-2.376-.088-.939 0-1.612.088-2.403.088h-.88v-.263h.087c1.174 0 1.584-.5 1.584-1.877v-15.715c0-1.349-.41-1.847-1.584-1.847h-.088v-.264h.88c.792 0 1.465.03 2.404.03 1.055 0 1.788-.03 2.727-.03h2.99c4.134 0 6.92 1.877 6.92 5.189 0 2.932-2.433 5.307-6.89 5.307h-.294c.733 1.202 1.319 1.612 3.958 1.612l2.552 5.014c1.113 2.199 1.671 2.551 2.96 2.58v.264c-1.583 0-1.819-.088-2.902-.088Zm-6.538-19.555h-3.9v9.851h3.9c2.814 0 3.753-1.641 3.753-4.955 0-3.078-.822-4.896-3.753-4.896Z"/><path stroke="#A6A0A1" stroke-width=".267" d="M78.652 121.293c-.734 0-1.29.088-2.112.088l-4.866-9.47h-3.46v7.33c0 1.377.41 1.877 1.584 1.877h.087v.263h-.878c-.763 0-1.467-.088-2.376-.088-.939 0-1.612.088-2.403.088h-.88v-.263h.087c1.174 0 1.584-.5 1.584-1.877v-15.715c0-1.349-.41-1.847-1.584-1.847h-.088v-.264h.88c.792 0 1.465.03 2.404.03 1.055 0 1.788-.03 2.727-.03h2.99c4.134 0 6.92 1.877 6.92 5.189 0 2.932-2.433 5.307-6.89 5.307h-.294c.733 1.202 1.319 1.612 3.958 1.612l2.552 5.014c1.113 2.199 1.671 2.551 2.96 2.58v.264c-1.583 0-1.819-.088-2.902-.088Zm-6.538-19.555h-3.9v9.851h3.9c2.814 0 3.753-1.641 3.753-4.955 0-3.078-.822-4.896-3.753-4.896Z" mask="url(#k)"/><mask id="l" width="18" height="24" x="82.782" y="99.477" fill="#000" maskUnits="userSpaceOnUse"><path fill="#fff" d="M82.782 99.477h18v24h-18z"/><path d="M97.414 122.261c.03-.528-.234-.88-1.114-.88h-6.51c-.937 0-1.669-.029-2.726-.029-.937 0-1.613.029-2.403.029h-.879v-.263h.087c1.173 0 1.583-.5 1.583-1.877v-15.715c0-1.349-.41-1.847-1.583-1.847h-.087v-.264h.879c.79 0 1.466.03 2.403.03 1.057 0 2.112-.03 3.049-.03h5.923c.85 0 1.173-.293 1.144-.879l.205-.059 2.463 7.007-.205.088c-1.79-2.492-2.844-3.957-3.724-4.866-.822-.822-1.524-.968-2.698-.968h-4.572v9.352h3.166c2.345 0 2.786-1.7 3.049-4.016h.264v8.443h-.264c-.264-2.316-.704-4.104-3.049-4.104H88.65v9.645h4.807c1.173 0 1.848-.088 2.785-1.085.94-.996 2.258-2.813 3.899-5.306l.207.088-2.728 7.564-.205-.058Z"/></mask><path fill="#A6A0A1" d="M97.414 122.261c.03-.528-.234-.88-1.114-.88h-6.51c-.937 0-1.669-.029-2.726-.029-.937 0-1.613.029-2.403.029h-.879v-.263h.087c1.173 0 1.583-.5 1.583-1.877v-15.715c0-1.349-.41-1.847-1.583-1.847h-.087v-.264h.879c.79 0 1.466.03 2.403.03 1.057 0 2.112-.03 3.049-.03h5.923c.85 0 1.173-.293 1.144-.879l.205-.059 2.463 7.007-.205.088c-1.79-2.492-2.844-3.957-3.724-4.866-.822-.822-1.524-.968-2.698-.968h-4.572v9.352h3.166c2.345 0 2.786-1.7 3.049-4.016h.264v8.443h-.264c-.264-2.316-.704-4.104-3.049-4.104H88.65v9.645h4.807c1.173 0 1.848-.088 2.785-1.085.94-.996 2.258-2.813 3.899-5.306l.207.088-2.728 7.564-.205-.058Z"/><path stroke="#A6A0A1" stroke-width=".267" d="M97.414 122.261c.03-.528-.234-.88-1.114-.88h-6.51c-.937 0-1.669-.029-2.726-.029-.937 0-1.613.029-2.403.029h-.879v-.263h.087c1.173 0 1.583-.5 1.583-1.877v-15.715c0-1.349-.41-1.847-1.583-1.847h-.087v-.264h.879c.79 0 1.466.03 2.403.03 1.057 0 2.112-.03 3.049-.03h5.923c.85 0 1.173-.293 1.144-.879l.205-.059 2.463 7.007-.205.088c-1.79-2.492-2.844-3.957-3.724-4.866-.822-.822-1.524-.968-2.698-.968h-4.572v9.352h3.166c2.345 0 2.786-1.7 3.049-4.016h.264v8.443h-.264c-.264-2.316-.704-4.104-3.049-4.104H88.65v9.645h4.807c1.173 0 1.848-.088 2.785-1.085.94-.996 2.258-2.813 3.899-5.306l.207.088-2.728 7.564-.205-.058Z" mask="url(#l)"/><mask id="m" width="22" height="22" x="100.284" y="100.416" fill="#000" maskUnits="userSpaceOnUse"><path fill="#fff" d="M100.284 100.416h22v22h-22z"/><path d="M120.925 121.381c-.645 0-1.582-.088-2.432-.088-.939 0-1.907.088-2.521.088h-.939v-.263c.908 0 1.436-.44 1.436-1.056 0-.381-.088-.674-.264-1.055l-1.26-3.137h-8.941l-.53 1.319c-.204.558-.409 1.378-.409 1.905 0 1.202.821 2.024 2.257 2.024v.263h-.381c-.791 0-1.876-.088-2.698-.088-.586 0-1.787.088-2.403.088h-.556v-.263c1.495-.03 2.755-1.231 3.927-4.193l5.015-12.694-1.144-2.815c.645 0 1.202.03 1.817.03.617 0 1.085-.03 1.643-.03l7.183 17.767c.528 1.29 1.084 1.935 2.14 1.935v.263h-.94Zm-14.806-5.834h8.68l-4.398-10.935-4.282 10.935Z"/></mask><path fill="#A6A0A1" d="M120.925 121.381c-.645 0-1.582-.088-2.432-.088-.939 0-1.907.088-2.521.088h-.939v-.263c.908 0 1.436-.44 1.436-1.056 0-.381-.088-.674-.264-1.055l-1.26-3.137h-8.941l-.53 1.319c-.204.558-.409 1.378-.409 1.905 0 1.202.821 2.024 2.257 2.024v.263h-.381c-.791 0-1.876-.088-2.698-.088-.586 0-1.787.088-2.403.088h-.556v-.263c1.495-.03 2.755-1.231 3.927-4.193l5.015-12.694-1.144-2.815c.645 0 1.202.03 1.817.03.617 0 1.085-.03 1.643-.03l7.183 17.767c.528 1.29 1.084 1.935 2.14 1.935v.263h-.94Zm-14.806-5.834h8.68l-4.398-10.935-4.282 10.935Z"/><path stroke="#A6A0A1" stroke-width=".267" d="M120.925 121.381c-.645 0-1.582-.088-2.432-.088-.939 0-1.907.088-2.521.088h-.939v-.263c.908 0 1.436-.44 1.436-1.056 0-.381-.088-.674-.264-1.055l-1.26-3.137h-8.941l-.53 1.319c-.204.558-.409 1.378-.409 1.905 0 1.202.821 2.024 2.257 2.024v.263h-.381c-.791 0-1.876-.088-2.698-.088-.586 0-1.787.088-2.403.088h-.556v-.263c1.495-.03 2.755-1.231 3.927-4.193l5.015-12.694-1.144-2.815c.645 0 1.202.03 1.817.03.617 0 1.085-.03 1.643-.03l7.183 17.767c.528 1.29 1.084 1.935 2.14 1.935v.263h-.94Zm-14.806-5.834h8.68l-4.398-10.935-4.282 10.935Z" mask="url(#m)"/><mask id="n" width="20" height="23" x="120.215" y="99.507" fill="#000" maskUnits="userSpaceOnUse"><path fill="#fff" d="M120.215 99.507h20v23h-20z"/><path d="M133.88 121.382h-.878c-.763 0-1.467-.089-2.375-.089-.909 0-1.613.089-2.404.089h-.88v-.264h.087c1.175 0 1.584-.499 1.584-1.877v-17.503h-2.111c-.909 0-1.29.059-1.994.939-.733.967-1.818 2.756-3.487 5.834l-.207-.089 2.024-7.915.205.03c0 .468.234.879 1.201.879h3.079c.822 0 1.759.03 2.903.03 1.114 0 2.082-.03 2.872-.03h3.108c.968 0 1.203-.411 1.203-.879l.205-.03 2.022 7.915-.204.089c-1.672-3.078-2.755-4.867-3.518-5.834-.675-.88-1.085-.939-1.994-.939h-2.112v17.503c0 1.378.412 1.877 1.613 1.877h.059l-.001.264Z"/></mask><path fill="#A6A0A1" d="M133.88 121.382h-.878c-.763 0-1.467-.089-2.375-.089-.909 0-1.613.089-2.404.089h-.88v-.264h.087c1.175 0 1.584-.499 1.584-1.877v-17.503h-2.111c-.909 0-1.29.059-1.994.939-.733.967-1.818 2.756-3.487 5.834l-.207-.089 2.024-7.915.205.03c0 .468.234.879 1.201.879h3.079c.822 0 1.759.03 2.903.03 1.114 0 2.082-.03 2.872-.03h3.108c.968 0 1.203-.411 1.203-.879l.205-.03 2.022 7.915-.204.089c-1.672-3.078-2.755-4.867-3.518-5.834-.675-.88-1.085-.939-1.994-.939h-2.112v17.503c0 1.378.412 1.877 1.613 1.877h.059l-.001.264Z"/><path stroke="#A6A0A1" stroke-width=".267" d="M133.88 121.382h-.878c-.763 0-1.467-.089-2.375-.089-.909 0-1.613.089-2.404.089h-.88v-.264h.087c1.175 0 1.584-.499 1.584-1.877v-17.503h-2.111c-.909 0-1.29.059-1.994.939-.733.967-1.818 2.756-3.487 5.834l-.207-.089 2.024-7.915.205.03c0 .468.234.879 1.201.879h3.079c.822 0 1.759.03 2.903.03 1.114 0 2.082-.03 2.872-.03h3.108c.968 0 1.203-.411 1.203-.879l.205-.03 2.022 7.915-.204.089c-1.672-3.078-2.755-4.867-3.518-5.834-.675-.88-1.085-.939-1.994-.939h-2.112v17.503c0 1.378.412 1.877 1.613 1.877h.059l-.001.264Z" mask="url(#n)"/><mask id="o" width="18" height="24" x="141.473" y="99.477" fill="#000" maskUnits="userSpaceOnUse"><path fill="#fff" d="M141.473 99.477h18v24h-18z"/><path d="M156.104 122.261c.031-.528-.233-.88-1.113-.88h-6.51c-.937 0-1.669-.029-2.726-.029-.938 0-1.613.029-2.404.029h-.878v-.263h.087c1.173 0 1.582-.5 1.582-1.877v-15.715c0-1.349-.409-1.847-1.582-1.847h-.087v-.264h.878c.791 0 1.466.03 2.404.03 1.056 0 2.112-.03 3.048-.03h5.924c.85 0 1.172-.293 1.144-.879l.205-.059 2.462 7.007-.205.088c-1.789-2.492-2.843-3.957-3.724-4.866-.821-.822-1.523-.968-2.698-.968h-4.572v9.352h3.167c2.345 0 2.785-1.7 3.049-4.016h.263v8.443h-.263c-.264-2.316-.704-4.104-3.049-4.104h-3.167v9.645h4.808c1.172 0 1.848-.088 2.785-1.085.939-.996 2.258-2.813 3.899-5.306l.207.088-2.728 7.564-.206-.058Z"/></mask><path fill="#A6A0A1" d="M156.104 122.261c.031-.528-.233-.88-1.113-.88h-6.51c-.937 0-1.669-.029-2.726-.029-.938 0-1.613.029-2.404.029h-.878v-.263h.087c1.173 0 1.582-.5 1.582-1.877v-15.715c0-1.349-.409-1.847-1.582-1.847h-.087v-.264h.878c.791 0 1.466.03 2.404.03 1.056 0 2.112-.03 3.048-.03h5.924c.85 0 1.172-.293 1.144-.879l.205-.059 2.462 7.007-.205.088c-1.789-2.492-2.843-3.957-3.724-4.866-.821-.822-1.523-.968-2.698-.968h-4.572v9.352h3.167c2.345 0 2.785-1.7 3.049-4.016h.263v8.443h-.263c-.264-2.316-.704-4.104-3.049-4.104h-3.167v9.645h4.808c1.172 0 1.848-.088 2.785-1.085.939-.996 2.258-2.813 3.899-5.306l.207.088-2.728 7.564-.206-.058Z"/><path stroke="#A6A0A1" stroke-width=".267" d="M156.104 122.261c.031-.528-.233-.88-1.113-.88h-6.51c-.937 0-1.669-.029-2.726-.029-.938 0-1.613.029-2.404.029h-.878v-.263h.087c1.173 0 1.582-.5 1.582-1.877v-15.715c0-1.349-.409-1.847-1.582-1.847h-.087v-.264h.878c.791 0 1.466.03 2.404.03 1.056 0 2.112-.03 3.048-.03h5.924c.85 0 1.172-.293 1.144-.879l.205-.059 2.462 7.007-.205.088c-1.789-2.492-2.843-3.957-3.724-4.866-.821-.822-1.523-.968-2.698-.968h-4.572v9.352h3.167c2.345 0 2.785-1.7 3.049-4.016h.263v8.443h-.263c-.264-2.316-.704-4.104-3.049-4.104h-3.167v9.645h4.808c1.172 0 1.848-.088 2.785-1.085.939-.996 2.258-2.813 3.899-5.306l.207.088-2.728 7.564-.206-.058Z" mask="url(#o)"/><path fill="#fff" d="m158.59 132.227-1.988.168c-.504-2.996-2.772-4.396-5.404-4.396-3.08 0-4.9 1.596-4.9 3.724 0 1.848 1.4 2.716 3.528 3.192l3.976.924c2.772.616 5.236 1.82 5.236 5.516 0 3.78-3.192 5.768-7.28 5.768-4.424 0-7.28-2.24-8.148-6.496l2.044-.224c.672 3.752 3.164 5.012 6.104 5.012 3.024 0 5.264-1.484 5.264-4.004 0-2.324-1.68-3.248-3.892-3.752l-3.836-.896c-2.772-.644-5.012-1.792-5.012-5.04 0-3.192 2.8-5.404 6.944-5.404 3.892 0 6.552 2.184 7.364 5.908ZM140.196 146.703h-2.044l-11.508-17.136h-.056v17.136h-1.848v-19.992h2.128l11.396 16.968h.084v-16.968h1.848v19.992ZM111.544 126.319c5.208 0 8.988 3.92 8.988 10.388 0 6.496-3.78 10.416-8.988 10.416-5.18 0-8.96-3.92-8.96-10.416 0-6.468 3.78-10.388 8.96-10.388Zm0 19.096c4.088 0 6.972-3.192 6.972-8.708 0-5.488-2.884-8.68-6.972-8.68-4.06 0-6.944 3.192-6.944 8.68 0 5.516 2.884 8.708 6.944 8.708ZM96.465 146.703v-19.992h1.96v19.992h-1.96ZM92.844 128.447H86.04v18.256h-1.96v-18.256h-6.832v-1.736h15.596v1.736ZM73.688 126.711v13.356c0 4.536-3.164 7.056-7.616 7.056-4.424 0-7.588-2.52-7.588-7.056v-13.356h1.96v12.992c0 3.976 2.156 5.712 5.628 5.712s5.656-1.736 5.656-5.712v-12.992h1.96ZM42.255 146.703v-19.992h1.96v18.284H55.33v1.708H42.255ZM29.059 126.319c5.208 0 8.988 3.92 8.988 10.388 0 6.496-3.78 10.416-8.988 10.416-5.18 0-8.96-3.92-8.96-10.416 0-6.468 3.78-10.388 8.96-10.388Zm0 19.096c4.088 0 6.972-3.192 6.972-8.708 0-5.488-2.884-8.68-6.972-8.68-4.06 0-6.944 3.192-6.944 8.68 0 5.516 2.884 8.708 6.944 8.708ZM16.48 132.227l-1.988.168c-.504-2.996-2.772-4.396-5.404-4.396-3.08 0-4.9 1.596-4.9 3.724 0 1.848 1.4 2.716 3.528 3.192l3.976.924c2.772.616 5.236 1.82 5.236 5.516 0 3.78-3.192 5.768-7.28 5.768-4.424 0-7.28-2.24-8.148-6.496l2.044-.224c.672 3.752 3.164 5.012 6.104 5.012 3.024 0 5.264-1.484 5.264-4.004 0-2.324-1.68-3.248-3.892-3.752l-3.836-.896c-2.772-.644-5.012-1.792-5.012-5.04 0-3.192 2.8-5.404 6.944-5.404 3.892 0 6.552 2.184 7.364 5.908Z"/></svg>
