<svg xmlns="http://www.w3.org/2000/svg" width="1042" height="35" fill="none"><path fill="#A6A0A1" stroke="#A6A0A1" stroke-width=".2" d="m639.857.965-.072.021v.075c0 .386-.075.696-.278.91-.202.214-.55.353-1.147.353-.534 0-1.216-.141-2.028-.31-.164-.034-.333-.07-.507-.105-1.031-.209-2.226-.42-3.522-.42-5.807 0-13.214 5.234-13.214 15.404 0 9.098 5.647 15.536 12.779 15.536 5.803 0 10.147-4.172 12.074-9.122l.036-.093-.094-.036-.347-.133-.088-.034-.038.086c-.91 2.011-2.066 3.501-3.48 4.489-1.414.987-3.093 1.477-5.057 1.477-6.025 0-11.447-5.911-11.447-15.687 0-7.217 4.238-11.247 8.875-11.247 1.591 0 3.246.454 5.047 1.908 1.805 1.456 3.758 3.916 5.933 7.935l.043.08.085-.036.304-.133.083-.036-.028-.086L640.285.942l-.03-.092-.094.027-.304.088ZM667.899 32.023l.028.055h.061c.615 0 1.129-.034 1.625-.067l.041-.003c.481-.032.946-.063 1.473-.063.726 0 1.194.027 1.709.056l.163.01c.584.033 1.262.066 2.44.066h.1v-.594l-.098-.002c-.947-.021-1.606-.162-2.234-.69-.637-.536-1.25-1.476-2.078-3.125l-3.792-7.52-.028-.055h-.062c-1.959 0-3.139-.155-3.962-.525-.769-.345-1.237-.884-1.741-1.694h.259c3.329 0 5.913-.895 7.667-2.354 1.754-1.46 2.671-3.478 2.671-5.706 0-2.516-1.05-4.492-2.879-5.836-1.825-1.34-4.419-2.047-7.504-2.047h-4.445c-.678 0-1.284.01-1.907.02l-.056.002c-.642.01-1.306.022-2.088.022a92.44 92.44 0 0 1-1.941-.024c-.545-.01-1.068-.02-1.632-.02H648.281v.595h.23c.861 0 1.413.185 1.755.591.346.411.499 1.073.499 2.08v23.572c0 1.03-.153 1.702-.499 2.118-.342.412-.894.597-1.755.597h-.23v.596H649.689c.566 0 1.091-.03 1.635-.063l.075-.004a30.842 30.842 0 0 1 1.863-.066c.672 0 1.268.033 1.84.066l.076.005c.544.031 1.068.062 1.613.062H658.197v-.596h-.23c-.86 0-1.411-.185-1.754-.597-.347-.417-.5-1.089-.5-2.118V17.872h4.982l7.204 14.151Zm-12.186-14.834V2.613h5.697c2.155 0 3.513.673 4.339 1.897.833 1.232 1.138 3.043 1.138 5.347 0 2.48-.349 4.312-1.202 5.522-.847 1.202-2.205 1.81-4.275 1.81h-5.697ZM698.912 33.291l-.005.08.077.022.305.088.09.026.032-.089 4.055-11.346.031-.088-.086-.038-.307-.132-.078-.034-.046.071c-2.439 3.74-4.394 6.46-5.784 7.946-.689.74-1.275 1.135-1.898 1.348-.625.214-1.297.248-2.168.248h-7.045V17.125h4.606c.858 0 1.535.165 2.075.46.539.296.948.726 1.264 1.266.636 1.084.897 2.603 1.093 4.342l.01.089h.581V10.417h-.581l-.01.088c-.196 1.739-.456 3.224-1.092 4.275-.316.522-.724.936-1.263 1.22-.54.284-1.218.441-2.077.441h-4.606V2.613h6.695c.87 0 1.554.055 2.17.259.614.202 1.167.555 1.768 1.162 1.302 1.357 2.864 3.547 5.525 7.288l.047.066.074-.033.305-.132.085-.037-.031-.088-3.659-10.51-.032-.09-.091.027-.304.089-.076.022.004.079c.02.42-.085.713-.324.906-.245.198-.653.308-1.277.308h-8.803c-.676 0-1.393.01-2.131.02l-.069.002c-.763.01-1.547.022-2.331.022-.696 0-1.294-.011-1.866-.022l-.073-.002c-.545-.01-1.07-.02-1.633-.02H678.652v.595h.23c.86 0 1.411.185 1.753.591.346.411.499 1.073.499 2.08v23.572c0 1.03-.153 1.702-.5 2.119-.341.411-.892.596-1.752.596h-.23v.596H680.058c.563 0 1.088-.01 1.633-.02l.073-.002c.572-.011 1.17-.022 1.866-.022.784 0 1.448.01 2.091.022h.058c.622.011 1.226.022 1.903.022h9.674c.645 0 1.04.13 1.268.337.225.203.309.497.288.876ZM725.097 32.078v-.596h.1c.66 0 1.17-.161 1.513-.425.34-.261.522-.628.522-1.058 0-.553-.125-.978-.383-1.54l-.002-.005L725 23.81h-13.154l-.761 1.913c-.303.833-.602 2.05-.602 2.823 0 .878.296 1.609.845 2.12.549.513 1.362.815 2.41.815h.1v.596H713.172c-.585 0-1.277-.033-1.971-.066h-.022a45.149 45.149 0 0 0-2.017-.067c-.428 0-1.078.033-1.741.065l-.023.002c-.669.033-1.347.066-1.808.066H704.664v-.594l.098-.002c2.154-.043 4.004-1.786 5.745-6.225l14.59 6.82Zm0 0h1.496c.411 0 .927-.027 1.494-.056l.204-.01a40.367 40.367 0 0 1 2.049-.067 36.892 36.892 0 0 1 2.046.073c.577.031 1.12.06 1.569.06h1.497v-.596h-.1c-.761 0-1.335-.233-1.816-.697-.485-.47-.881-1.179-1.272-2.143L721.589 1.993l-.025-.063h-.068c-.406 0-.78.01-1.162.022h-.029c-.393.011-.795.022-1.251.022-.45 0-.88-.01-1.316-.021h-.015c-.442-.012-.89-.023-1.37-.023h-.148l.055.138 1.685 4.184-7.438 19.005 14.59 6.82Zm-13.001-8.951 6.22-16.03 6.387 16.03h-12.607ZM753.208 32.078h.1v-.1l.001-.395.001-.1h-.188c-.882 0-1.444-.186-1.792-.598-.351-.416-.505-1.088-.505-2.117V2.613h3.039c.676 0 1.147.023 1.573.202.423.177.813.513 1.31 1.166l.001.001c1.127 1.444 2.734 4.12 5.218 8.737l.044.081.084-.037.305-.132.078-.034-.021-.082L759.45.642l-.022-.087-.089.013-.305.044-.085.012v.087c0 .336-.084.633-.322.849-.241.218-.659.37-1.366.37h-4.619c-.538 0-1.132.01-1.774.02l-.182.002c-.713.011-1.486.022-2.313.022-.849 0-1.622-.01-2.335-.022-.059 0-.118-.002-.176-.003-.645-.01-1.242-.02-1.803-.02h-4.576c-.708.001-1.125-.151-1.365-.369-.238-.216-.32-.513-.32-.85V.625l-.086-.012-.304-.044-.089-.013-.023.087-3.008 11.873-.021.082.078.034.307.133.085.036.043-.08c2.481-4.617 4.09-7.293 5.173-8.738.519-.654.91-.99 1.328-1.167.42-.179.88-.202 1.557-.202h3.038v26.155c0 1.029-.153 1.701-.499 2.118-.342.412-.894.597-1.755.597h-.23v.595H744.8c.57 0 1.11-.03 1.665-.063l.061-.003a31.176 31.176 0 0 1 1.847-.066c.672 0 1.268.033 1.84.066l.076.004c.544.032 1.068.062 1.613.062h1.306ZM786.138 33.291l-.004.08.076.022.305.088.091.026.031-.089 4.055-11.346.032-.088-.086-.038-.308-.132-.077-.034-.046.071c-2.44 3.74-4.395 6.46-5.784 7.946-.689.74-1.275 1.135-1.898 1.348-.626.214-1.298.248-2.169.248h-7.044V17.125h4.606c.858 0 1.535.165 2.075.46.539.296.947.726 1.264 1.266.636 1.084.896 2.603 1.092 4.342l.01.089h.582V10.417h-.582l-.01.088c-.196 1.739-.456 3.224-1.091 4.275-.316.522-.724.936-1.264 1.22-.54.284-1.217.441-2.076.441h-4.606V2.613h6.695c.87 0 1.554.055 2.17.259.613.202 1.166.555 1.768 1.162 1.301 1.357 2.864 3.547 5.525 7.288l.047.066.074-.033.304-.132.085-.037-.03-.088-3.66-10.51-.031-.09-.091.027-.305.089-.076.022.004.079c.02.42-.084.713-.323.906-.246.198-.653.308-1.277.308h-8.804c-.676 0-1.393.01-2.131.02l-.069.002c-.762.01-1.546.022-2.331.022-.695 0-1.293-.011-1.865-.022l-.073-.002c-.546-.01-1.07-.02-1.634-.02h-1.405v.595h.23c.86 0 1.411.185 1.752.591.346.411.499 1.073.499 2.08v23.572c0 1.03-.153 1.702-.499 2.119-.342.411-.892.596-1.752.596h-.23v.596h1.405c.564 0 1.088-.01 1.634-.02l.073-.002c.572-.011 1.17-.022 1.865-.022.785 0 1.449.01 2.091.022h.058c.622.011 1.227.022 1.903.022h9.675c.644 0 1.039.13 1.268.337.225.203.309.497.287.876Z"/><path fill="#fff" d="m827.192 10.286-2.982.252c-.756-4.494-4.158-6.594-8.106-6.594-4.62 0-7.35 2.394-7.35 5.586 0 2.772 2.1 4.074 5.292 4.788l5.964 1.386c4.158.924 7.854 2.73 7.854 8.274 0 5.67-4.788 8.652-10.92 8.652-6.636 0-10.92-3.36-12.222-9.744l3.066-.336c1.008 5.628 4.746 7.518 9.156 7.518 4.536 0 7.896-2.226 7.896-6.006 0-3.486-2.52-4.872-5.838-5.628l-5.754-1.344c-4.158-.966-7.518-2.688-7.518-7.56 0-4.788 4.2-8.106 10.416-8.106 5.838 0 9.828 3.276 11.046 8.862Zm18.869-8.862c7.812 0 13.482 5.88 13.482 15.582 0 9.744-5.67 15.624-13.482 15.624-7.77 0-13.44-5.88-13.44-15.624 0-9.702 5.67-15.582 13.44-15.582Zm0 28.644c6.132 0 10.458-4.788 10.458-13.062 0-8.232-4.326-13.02-10.458-13.02-6.09 0-10.417 4.788-10.417 13.02 0 8.274 4.327 13.062 10.417 13.062ZM865.854 32V2.012h2.94v27.426h16.674V32h-19.614Zm47.15-29.988v20.034c0 6.804-4.746 10.584-11.424 10.584-6.636 0-11.382-3.78-11.382-10.584V2.012h2.94V21.5c0 5.964 3.234 8.568 8.442 8.568s8.484-2.604 8.484-8.568V2.012h2.94Zm28.734 2.604h-10.206V32h-2.94V4.616h-10.248V2.012h23.394v2.604ZM947.17 32V2.012h2.94V32h-2.94Zm22.618-30.576c7.812 0 13.482 5.88 13.482 15.582 0 9.744-5.67 15.624-13.482 15.624-7.77 0-13.44-5.88-13.44-15.624 0-9.702 5.67-15.582 13.44-15.582Zm0 28.644c6.132 0 10.458-4.788 10.458-13.062 0-8.232-4.326-13.02-10.458-13.02-6.09 0-10.416 4.788-10.416 13.02 0 8.274 4.326 13.062 10.416 13.062ZM1012.77 32h-3.07L992.438 6.296h-.084V32h-2.772V2.012h3.192l17.096 25.452h.12V2.012h2.78V32Zm27.59-21.714-2.99.252c-.75-4.494-4.15-6.594-8.1-6.594-4.62 0-7.35 2.394-7.35 5.586 0 2.772 2.1 4.074 5.29 4.788l5.96 1.386c4.16.924 7.86 2.73 7.86 8.274 0 5.67-4.79 8.652-10.92 8.652-6.64 0-10.92-3.36-12.22-9.744l3.06-.336c1.01 5.628 4.75 7.518 9.16 7.518 4.53 0 7.89-2.226 7.89-6.006 0-3.486-2.52-4.872-5.83-5.628l-5.76-1.344c-4.16-.966-7.52-2.688-7.52-7.56 0-4.788 4.2-8.106 10.42-8.106 5.84 0 9.83 3.276 11.05 8.862Z"/><path fill="#A6A0A1" stroke="#A6A0A1" stroke-width=".2" d="M326.013 32.67v.1H327.423c.565 0 1.089-.01 1.634-.02l.074-.002a93.208 93.208 0 0 1 1.87-.022c.774 0 1.537.011 2.312.022h.031c.786.012 1.582.023 2.412.023h4.19c2.934 0 5.649-.597 7.635-1.878 1.99-1.283 3.242-3.252 3.242-5.975 0-2.63-1.13-4.522-2.946-5.757-1.547-1.052-3.586-1.625-5.84-1.784 4.316-.762 7.171-3.51 7.171-7.299 0-2.414-1.12-4.293-2.972-5.565-1.849-1.27-4.423-1.933-7.338-1.933h-3.317c-.787 0-1.47.01-2.17.021l-.056.001c-.72.011-1.461.022-2.354.022-.698 0-1.297-.01-1.87-.022l-.074-.001c-.545-.01-1.069-.021-1.634-.021H326.013v.596h.23c.863 0 1.416.185 1.758.592.347.412.5 1.074.5 2.083v23.605c0 1.03-.153 1.704-.5 2.12-.343.413-.895.598-1.758.598h-.23v.497Zm7.442-15.512V3.265h5.051c2.162 0 3.532.61 4.369 1.754.841 1.15 1.158 2.863 1.158 5.104 0 2.133-.251 3.892-1.031 5.116-.774 1.213-2.079 1.919-4.237 1.919h-5.31Zm.001 14.928V17.843h6.097c1.994 0 3.442.438 4.396 1.519.957 1.084 1.437 2.837 1.437 5.516 0 2.614-.405 4.412-1.331 5.556-.922 1.14-2.38 1.654-4.547 1.654h-6.052ZM355.033 3.076v.1h.188c.861 0 1.425.185 1.779.593.357.412.521 1.074.521 2.082v17.306c0 3.409.921 5.907 2.754 7.55 1.831 1.642 4.553 2.415 8.12 2.415 3.273 0 5.767-1.031 7.442-2.788 1.674-1.757 2.519-4.228 2.519-7.088V8.758c0-1.375.293-2.776.935-3.829.639-1.049 1.624-1.752 3.023-1.752h.188V2.58H381.571c-.412 0-.894.026-1.423.056l-.19.01c-.605.033-1.268.066-1.964.066-.651 0-1.303-.033-1.908-.066l-.16-.009a28.45 28.45 0 0 0-1.467-.057H373.532v.596h.187c1.401.022 2.385.726 3.025 1.769.641 1.047.933 2.437.933 3.812v14.488c0 2.645-.79 4.844-2.166 6.38-1.376 1.534-3.345 2.416-5.719 2.416-2.486 0-4.307-.763-5.51-2.387-1.208-1.632-1.807-4.148-1.807-7.686V5.851c0-1.009.153-1.671.499-2.083.342-.407.894-.592 1.755-.592h.233V2.58H363.552c-.571 0-1.111.031-1.667.063l-.061.003c-.578.034-1.176.067-1.849.067s-1.27-.033-1.843-.067l-.076-.004c-.545-.032-1.07-.062-1.616-.062h-1.407v.496ZM395.066 32.274v-.1h-.23c-.861 0-1.414-.185-1.757-.597-.347-.418-.501-1.091-.501-2.121V5.85c0-1.009.154-1.671.501-2.083.343-.407.895-.592 1.757-.592h.23V2.58h-1.407c-.541 0-1.062.03-1.607.061l-.09.005c-.579.034-1.188.067-1.883.067-.674 0-1.26-.033-1.826-.067l-.06-.003c-.545-.032-1.075-.063-1.647-.063H385.136v.596h.23c.863 0 1.416.185 1.758.592.347.412.5 1.074.5 2.083v23.605c0 1.03-.153 1.704-.5 2.12-.343.413-.895.598-1.758.598h-.23v.597H386.546c.572 0 1.102-.032 1.647-.063l.06-.004a29.954 29.954 0 0 1 1.826-.066 31.638 31.638 0 0 1 1.973.071c.544.032 1.065.062 1.607.062h1.407v-.497ZM418.939 34.176l.091.026.032-.09 4.19-12.022.03-.087-.085-.037-.308-.133-.078-.034-.046.072-.528.824c-1.005 1.57-1.955 3.053-2.814 4.332-1.008 1.502-1.887 2.718-2.578 3.46-.692.719-1.279 1.115-1.888 1.334-.61.22-1.25.264-2.055.264h-5.703V5.851c0-1.009.153-1.671.5-2.083.342-.407.894-.592 1.755-.592h.233V2.58H408.277c-.545 0-1.071.03-1.615.062l-.077.004c-.572.034-1.17.067-1.843.067-.694 0-1.292-.033-1.864-.067a27.65 27.65 0 0 0-1.713-.067H399.757v.597h.231c.861 0 1.413.185 1.755.592.347.412.5 1.074.5 2.083v23.605c0 1.03-.154 1.704-.5 2.121-.343.412-.894.597-1.755.597h-.231v.597H401.165c.564 0 1.089-.01 1.636-.021l.073-.002a93.089 93.089 0 0 1 1.868-.022c.675 0 1.274.011 1.847.022l.076.002c.545.01 1.068.02 1.612.02h8.77c.602 0 .987.12 1.216.322.225.199.32.494.299.894l-.004.08.076.021.305.089ZM426.543 32.67v.1h1.407c.565 0 1.09-.01 1.636-.02l.073-.002a93.18 93.18 0 0 1 1.868-.022c.894 0 1.636.011 2.356.022l.055.001c.7.011 1.384.022 2.172.022h2.793c3.754 0 7.173-1.342 9.654-3.901 2.481-2.56 4.016-6.33 4.016-11.173 0-4.866-1.535-8.647-4.016-11.212-2.481-2.564-5.9-3.905-9.654-3.905h-2.793c-.788 0-1.471.01-2.171.021l-.056.001c-.72.011-1.461.022-2.356.022a92.73 92.73 0 0 1-1.868-.022l-.073-.001c-.546-.01-1.071-.021-1.636-.021h-1.407v.596h.23c.861 0 1.413.185 1.755.592.347.412.5 1.074.5 2.083v23.605c0 1.03-.153 1.704-.5 2.121-.343.412-.894.597-1.755.597h-.23v.497Zm7.442-.584V3.266h4.175c1.703 0 3.105.257 4.252.799 1.144.541 2.04 1.37 2.726 2.52 1.376 2.309 1.912 5.917 1.912 11.112 0 5.174-.536 8.771-1.912 11.074-.686 1.148-1.581 1.975-2.726 2.516-1.147.541-2.549.799-4.252.799h-4.175Z"/><path fill="#fff" d="M487.368 4.616h-10.206V32h-2.94V4.616h-10.248V2.012h23.394v2.604Zm8.371 10.878h16.002v2.562h-16.002v11.382h16.674V32h-19.614V2.012h19.614v2.562h-16.674v10.92Zm41.647 7.14h-14.07L519.578 32h-3.15L528.65 2.012h3.486L544.358 32h-3.234l-3.738-9.366Zm-1.008-2.562-6.006-15.12h-.084l-6.006 15.12h12.096Zm41.164-18.06V32h-2.856V6.506h-.084L564.648 32h-2.394l-9.996-25.494h-.084V32h-2.73V2.012h4.116l9.912 25.704h.084l9.912-25.704h4.074Zm27.558 8.274-2.982.252c-.756-4.494-4.158-6.594-8.106-6.594-4.62 0-7.35 2.394-7.35 5.586 0 2.772 2.1 4.074 5.292 4.788l5.964 1.386c4.158.924 7.854 2.73 7.854 8.274 0 5.67-4.788 8.652-10.92 8.652-6.636 0-10.92-3.36-12.222-9.744l3.066-.336c1.008 5.628 4.746 7.518 9.156 7.518 4.536 0 7.896-2.226 7.896-6.006 0-3.486-2.52-4.872-5.838-5.628l-5.754-1.344c-4.158-.966-7.518-2.688-7.518-7.56 0-4.788 4.2-8.106 10.416-8.106 5.838 0 9.828 3.276 11.046 8.862Z"/><path fill="#A6A0A1" stroke="#A6A0A1" stroke-width=".2" d="M.9 32.067v.1h1.413c.59 0 1.138-.031 1.707-.063l.074-.004a33.37 33.37 0 0 1 1.936-.067c.785 0 1.537.034 2.264.067l.082.004c.698.032 1.373.063 2.028.063h2.112v-.598H11.193c-1.152 0-1.85-.21-2.264-.637-.414-.428-.568-1.1-.568-2.088V18.39h5.892c3.185 0 5.845-.698 7.711-2.09 1.87-1.394 2.934-3.477 2.934-6.221 0-2.701-1.064-4.752-2.934-6.124-1.867-1.37-4.526-2.056-7.71-2.056H10.49c-.788 0-1.473.01-2.175.021l-.056.001c-.722.011-1.465.022-2.36.022a92.808 92.808 0 0 1-1.948-.023C3.405 1.91 2.879 1.9 2.313 1.9H.9v.597h.23c.865 0 1.42.186 1.763.594.348.412.501 1.077.501 2.088v23.664c0 1.034-.153 1.709-.501 2.127-.344.414-.898.6-1.762.6H.9v.497Zm13.094-29.48c2.168 0 3.53.59 4.357 1.8.834 1.22 1.142 3.09 1.142 5.693 0 2.625-.308 4.53-1.143 5.777-.828 1.238-2.19 1.849-4.356 1.849H8.36V2.586h5.633ZM47.866 33.576l.09.026.032-.09 4.197-12.053.031-.087-.085-.037-.306-.133-.078-.034-.046.072-.526.822c-1.009 1.574-1.962 3.063-2.825 4.347-1.011 1.506-1.893 2.725-2.587 3.468-.692.721-1.281 1.119-1.891 1.338-.612.22-1.253.265-2.06.265h-5.72V5.179c0-1.011.155-1.675.503-2.088.344-.408.898-.594 1.761-.594h.23V1.9H37.177c-.547 0-1.073.03-1.62.062l-.076.005c-.574.033-1.173.066-1.848.066a30.947 30.947 0 0 1-1.945-.07c-.546-.032-1.074-.063-1.641-.063H28.632v.597h.23c.866 0 1.42.186 1.763.594.348.412.502 1.077.502 2.088v23.664c0 1.034-.154 1.709-.502 2.127-.344.414-.897.6-1.762.6h-.23v.597h1.413c.566 0 1.091-.01 1.638-.021l.074-.002a92.795 92.795 0 0 1 1.874-.022c.677 0 1.278.011 1.852.022l.075.002c.547.01 1.072.02 1.617.02h8.793c.601 0 .987.12 1.217.323.226.2.32.495.299.896l-.004.08.076.022.309.089ZM73.165 32.067v.1h1.498c.416 0 .936-.027 1.506-.056l.201-.01c.651-.034 1.36-.067 2.056-.067a37.108 37.108 0 0 1 2.055.073c.58.031 1.126.06 1.577.06h1.497v-.597h-.1c-.762 0-1.338-.234-1.822-.7-.487-.471-.886-1.184-1.278-2.152L69.638 1.965l-.025-.063h-.068c-.406 0-.781.01-1.164.021l-.03.001a42.94 42.94 0 0 1-1.255.022c-.453 0-.885-.01-1.323-.021h-.014a53.647 53.647 0 0 0-1.375-.023h-.148l.056.137 1.69 4.202-7.465 19.079c-1.748 4.456-3.608 6.207-5.77 6.25l-.099.002v.595H53.581c.461 0 1.142-.033 1.814-.067h.021a41.969 41.969 0 0 1 1.751-.066c.61 0 1.318.033 2.024.066l.02.001c.697.033 1.392.066 1.981.066H61.858v-.597h-.1c-1.052 0-1.867-.304-2.418-.818-.55-.514-.848-1.247-.848-2.13 0-.776.301-1.997.605-2.833l.762-1.921h13.205l1.858 4.66.002.005c.256.565.384.992.384 1.547 0 .433-.182.8-.524 1.063-.344.265-.856.427-1.52.427h-.1v.497Zm-13.053-8.885 6.242-16.095 6.412 16.095H60.112ZM107.475 32.122l.029.044h.054c.526 0 1.019-.011 1.495-.022l.046-.001c.459-.011.902-.022 1.346-.022.252 0 .564.008.931.017l.236.006c.471.01 1.019.022 1.633.022h.181l-.097-.154-2.611-4.125V8.093c0-1.38.294-2.783.938-3.839.642-1.052 1.63-1.757 3.033-1.757h.185V1.9H113.945c-.415 0-.9.027-1.431.056l-.188.01c-.607.034-1.271.067-1.968.067a35.11 35.11 0 0 1-2.077-.075c-.544-.03-1.046-.058-1.467-.058H105.882v.597h.187c1.404.022 2.392.728 3.032 1.774.644 1.05.937 2.443.937 3.822v18.79L93.117 1.943l-.03-.043h-.053a55.14 55.14 0 0 0-1.478.022c-.47.011-.971.022-1.67.022-.606 0-1.083-.01-1.565-.022h-.012a65.87 65.87 0 0 0-1.615-.022h-1.02v.597h.275c.81 0 1.33.203 1.796.63.47.433.886 1.095 1.473 2.036v20.81c0 1.38-.283 2.784-.92 3.84-.636 1.05-1.623 1.756-3.048 1.756h-.188v.597H85.992c.417 0 .915-.027 1.458-.057l.176-.01a35.854 35.854 0 0 1 1.952-.066c.675 0 1.329.033 1.93.066l.175.01c.533.03 1.022.057 1.438.057h.975v-.597h-.187c-1.426-.022-2.424-.729-3.07-1.774-.649-1.05-.942-2.443-.942-3.822V6.036l17.578 26.086Z"/><path fill="#fff" d="M125.14 4.574v11.172h16.002v2.52H125.14v13.776h-2.94V2.054h19.614v2.52H125.14Zm45.44-2.562v20.034c0 6.804-4.746 10.584-11.424 10.584-6.636 0-11.382-3.78-11.382-10.584V2.012h2.94V21.5c0 5.964 3.234 8.568 8.442 8.568s8.484-2.604 8.484-8.568V2.012h2.94Zm28.735 2.604h-10.206V32h-2.94V4.616h-10.248V2.012h23.394v2.604Zm28.237-2.604v20.034c0 6.804-4.746 10.584-11.424 10.584-6.636 0-11.382-3.78-11.382-10.584V2.012h2.94V21.5c0 5.964 3.234 8.568 8.442 8.568s8.484-2.604 8.484-8.568V2.012h2.94ZM254.481 32l-8.526-12.516h-7.896V32h-2.94V2.012h13.062c6.09 0 9.576 3.192 9.576 8.736 0 5.208-3.024 8.316-8.4 8.694L257.967 32h-3.486Zm-16.422-15.036h9.66c4.452 0 7.014-1.974 7.014-6.216 0-4.2-2.562-6.174-7.014-6.174h-9.66v12.39Zm28.61-1.47h16.002v2.562h-16.002v11.382h16.674V32h-19.614V2.012h19.614v2.562h-16.674v10.92Zm43.2-5.208-2.982.252c-.756-4.494-4.158-6.594-8.106-6.594-4.62 0-7.35 2.394-7.35 5.586 0 2.772 2.1 4.074 5.292 4.788l5.964 1.386c4.158.924 7.854 2.73 7.854 8.274 0 5.67-4.788 8.652-10.92 8.652-6.636 0-10.92-3.36-12.222-9.744l3.066-.336c1.008 5.628 4.746 7.518 9.156 7.518 4.536 0 7.896-2.226 7.896-6.006 0-3.486-2.52-4.872-5.838-5.628l-5.754-1.344c-4.158-.966-7.518-2.688-7.518-7.56 0-4.788 4.2-8.106 10.416-8.106 5.838 0 9.828 3.276 11.046 8.862Z"/></svg>
