<svg xmlns="http://www.w3.org/2000/svg" fill="none" viewBox="0 0 1052 35"><mask id="a" width="27" height="33" x="632.872" y="-.027" fill="#000" maskUnits="userSpaceOnUse"><path fill="#fff" d="M632.872-.027h27v33h-27z"/><path d="M633.873 16.893c0-10.114 7.431-15.303 13.236-15.303 2.595 0 4.793.835 6.113.835 1.232 0 1.539-.572 1.539-1.364l.308-.088 3.517 10.819-.307.132c-4.397-8.048-7.915-9.894-11.171-9.894-4.749 0-9.058 4.09-9.058 11.346 0 9.807 5.496 15.787 11.654 15.787 4.001 0 6.861-1.98 8.708-6.024l.35.132c-1.935 4.925-6.289 9.059-12.092 9.059-7.126 0-12.797-6.377-12.797-15.437Z"/></mask><path fill="#A6A0A1" d="M633.873 16.893c0-10.114 7.431-15.303 13.236-15.303 2.595 0 4.793.835 6.113.835 1.232 0 1.539-.572 1.539-1.364l.308-.088 3.517 10.819-.307.132c-4.397-8.048-7.915-9.894-11.171-9.894-4.749 0-9.058 4.09-9.058 11.346 0 9.807 5.496 15.787 11.654 15.787 4.001 0 6.861-1.98 8.708-6.024l.35.132c-1.935 4.925-6.289 9.059-12.092 9.059-7.126 0-12.797-6.377-12.797-15.437Z"/><path stroke="#A6A0A1" stroke-width=".4" d="M633.873 16.893c0-10.114 7.431-15.303 13.236-15.303 2.595 0 4.793.835 6.113.835 1.232 0 1.539-.572 1.539-1.364l.308-.088 3.517 10.819-.307.132c-4.397-8.048-7.915-9.894-11.171-9.894-4.749 0-9.058 4.09-9.058 11.346 0 9.807 5.496 15.787 11.654 15.787 4.001 0 6.861-1.98 8.708-6.024l.35.132c-1.935 4.925-6.289 9.059-12.092 9.059-7.126 0-12.797-6.377-12.797-15.437Z" mask="url(#a)"/><mask id="b" width="29" height="32" x="662.337" y="1.029" fill="#000" maskUnits="userSpaceOnUse"><path fill="#fff" d="M662.337 1.029h29v32h-29z"/><path d="M686.294 31.845c-1.102 0-1.935.133-3.168.133l-7.299-14.206h-5.192v10.995c0 2.066.618 2.815 2.377 2.815h.131v.396h-1.318c-1.144 0-2.199-.133-3.562-.133-1.409 0-2.419.133-3.606.133h-1.32v-.396h.131c1.762 0 2.376-.749 2.376-2.815V5.195c0-2.023-.614-2.77-2.376-2.77h-.131v-.396h1.32c1.187 0 2.197.044 3.606.044 1.582 0 2.68-.044 4.089-.044h4.486c6.2 0 10.378 2.814 10.378 7.783 0 4.399-3.648 7.96-10.333 7.96h-.441c1.099 1.803 1.978 2.419 5.936 2.419l3.828 7.52c1.67 3.299 2.507 3.827 4.44 3.87v.396c-2.374 0-2.727-.132-4.352-.132Zm-9.807-29.332h-5.852V17.29h5.852c4.22 0 5.629-2.462 5.629-7.432 0-4.617-1.232-7.344-5.629-7.344Z"/></mask><path fill="#A6A0A1" d="M686.294 31.845c-1.102 0-1.935.133-3.168.133l-7.299-14.206h-5.192v10.995c0 2.066.618 2.815 2.377 2.815h.131v.396h-1.318c-1.144 0-2.199-.133-3.562-.133-1.409 0-2.419.133-3.606.133h-1.32v-.396h.131c1.762 0 2.376-.749 2.376-2.815V5.195c0-2.023-.614-2.77-2.376-2.77h-.131v-.396h1.32c1.187 0 2.197.044 3.606.044 1.582 0 2.68-.044 4.089-.044h4.486c6.2 0 10.378 2.814 10.378 7.783 0 4.399-3.648 7.96-10.333 7.96h-.441c1.099 1.803 1.978 2.419 5.936 2.419l3.828 7.52c1.67 3.299 2.507 3.827 4.44 3.87v.396c-2.374 0-2.727-.132-4.352-.132Zm-9.807-29.332h-5.852V17.29h5.852c4.22 0 5.629-2.462 5.629-7.432 0-4.617-1.232-7.344-5.629-7.344Z"/><path stroke="#A6A0A1" stroke-width=".4" d="M686.294 31.845c-1.102 0-1.935.133-3.168.133l-7.299-14.206h-5.192v10.995c0 2.066.618 2.815 2.377 2.815h.131v.396h-1.318c-1.144 0-2.199-.133-3.562-.133-1.409 0-2.419.133-3.606.133h-1.32v-.396h.131c1.762 0 2.376-.749 2.376-2.815V5.195c0-2.023-.614-2.77-2.376-2.77h-.131v-.396h1.32c1.187 0 2.197.044 3.606.044 1.582 0 2.68-.044 4.089-.044h4.486c6.2 0 10.378 2.814 10.378 7.783 0 4.399-3.648 7.96-10.333 7.96h-.441c1.099 1.803 1.978 2.419 5.936 2.419l3.828 7.52c1.67 3.299 2.507 3.827 4.44 3.87v.396c-2.374 0-2.727-.132-4.352-.132Zm-9.807-29.332h-5.852V17.29h5.852c4.22 0 5.629-2.462 5.629-7.432 0-4.617-1.232-7.344-5.629-7.344Z" mask="url(#b)"/><mask id="c" width="27" height="35" x="692.988" y="-.379" fill="#000" maskUnits="userSpaceOnUse"><path fill="#fff" d="M692.988-.379h27v35h-27z"/><path d="M714.436 33.297c.045-.792-.35-1.32-1.671-1.32h-9.764c-1.406 0-2.504-.043-4.09-.043-1.406 0-2.419.044-3.605.044h-1.318v-.396h.131c1.759 0 2.374-.748 2.374-2.815V5.195c0-2.023-.615-2.77-2.374-2.77h-.131v-.396h1.318c1.186 0 2.199.044 3.605.044 1.585 0 3.168-.044 4.573-.044h8.885c1.275 0 1.759-.44 1.717-1.32l.307-.088 3.694 10.51-.308.133c-2.683-3.738-4.265-5.936-5.586-7.3-1.232-1.232-2.285-1.451-4.046-1.451h-6.859V16.54h4.75c3.517 0 4.178-2.55 4.573-6.024h.396v12.665h-.396c-.395-3.475-1.056-6.157-4.573-6.157h-4.75v14.468h7.211c1.759 0 2.772-.133 4.178-1.628 1.409-1.493 3.387-4.22 5.849-7.96l.31.133-4.092 11.347-.308-.088Z"/></mask><path fill="#A6A0A1" d="M714.436 33.297c.045-.792-.35-1.32-1.671-1.32h-9.764c-1.406 0-2.504-.043-4.09-.043-1.406 0-2.419.044-3.605.044h-1.318v-.396h.131c1.759 0 2.374-.748 2.374-2.815V5.195c0-2.023-.615-2.77-2.374-2.77h-.131v-.396h1.318c1.186 0 2.199.044 3.605.044 1.585 0 3.168-.044 4.573-.044h8.885c1.275 0 1.759-.44 1.717-1.32l.307-.088 3.694 10.51-.308.133c-2.683-3.738-4.265-5.936-5.586-7.3-1.232-1.232-2.285-1.451-4.046-1.451h-6.859V16.54h4.75c3.517 0 4.178-2.55 4.573-6.024h.396v12.665h-.396c-.395-3.475-1.056-6.157-4.573-6.157h-4.75v14.468h7.211c1.759 0 2.772-.133 4.178-1.628 1.409-1.493 3.387-4.22 5.849-7.96l.31.133-4.092 11.347-.308-.088Z"/><path stroke="#A6A0A1" stroke-width=".4" d="M714.436 33.297c.045-.792-.35-1.32-1.671-1.32h-9.764c-1.406 0-2.504-.043-4.09-.043-1.406 0-2.419.044-3.605.044h-1.318v-.396h.131c1.759 0 2.374-.748 2.374-2.815V5.195c0-2.023-.615-2.77-2.374-2.77h-.131v-.396h1.318c1.186 0 2.199.044 3.605.044 1.585 0 3.168-.044 4.573-.044h8.885c1.275 0 1.759-.44 1.717-1.32l.307-.088 3.694 10.51-.308.133c-2.683-3.738-4.265-5.936-5.586-7.3-1.232-1.232-2.285-1.451-4.046-1.451h-6.859V16.54h4.75c3.517 0 4.178-2.55 4.573-6.024h.396v12.665h-.396c-.395-3.475-1.056-6.157-4.573-6.157h-4.75v14.468h7.211c1.759 0 2.772-.133 4.178-1.628 1.409-1.493 3.387-4.22 5.849-7.96l.31.133-4.092 11.347-.308-.088Z" mask="url(#c)"/><mask id="d" width="33" height="32" x="719.241" y="1.03" fill="#000" maskUnits="userSpaceOnUse"><path fill="#fff" d="M719.241 1.03h33v32h-33z"/><path d="M749.703 31.978c-.967 0-2.373-.133-3.648-.133-1.409 0-2.86.133-3.782.133h-1.409v-.396c1.363 0 2.155-.66 2.155-1.583 0-.572-.132-1.012-.396-1.582l-1.89-4.706h-13.412l-.794 1.978c-.307.837-.615 2.067-.615 2.858 0 1.803 1.232 3.035 3.387 3.035v.396h-.572c-1.186 0-2.815-.133-4.047-.133-.879 0-2.68.133-3.605.133h-.834v-.396c2.243-.044 4.133-1.846 5.891-6.289l7.522-19.041-1.716-4.222c.967 0 1.804.044 2.726.044.925 0 1.628-.044 2.465-.044l10.774 26.65c.791 1.935 1.625 2.902 3.21 2.902v.396h-1.41Zm-22.209-8.751h13.02l-6.597-16.403-6.423 16.403Z"/></mask><path fill="#A6A0A1" d="M749.703 31.978c-.967 0-2.373-.133-3.648-.133-1.409 0-2.86.133-3.782.133h-1.409v-.396c1.363 0 2.155-.66 2.155-1.583 0-.572-.132-1.012-.396-1.582l-1.89-4.706h-13.412l-.794 1.978c-.307.837-.615 2.067-.615 2.858 0 1.803 1.232 3.035 3.387 3.035v.396h-.572c-1.186 0-2.815-.133-4.047-.133-.879 0-2.68.133-3.605.133h-.834v-.396c2.243-.044 4.133-1.846 5.891-6.289l7.522-19.041-1.716-4.222c.967 0 1.804.044 2.726.044.925 0 1.628-.044 2.465-.044l10.774 26.65c.791 1.935 1.625 2.902 3.21 2.902v.396h-1.41Zm-22.209-8.751h13.02l-6.597-16.403-6.423 16.403Z"/><path stroke="#A6A0A1" stroke-width=".4" d="M749.703 31.978c-.967 0-2.373-.133-3.648-.133-1.409 0-2.86.133-3.782.133h-1.409v-.396c1.363 0 2.155-.66 2.155-1.583 0-.572-.132-1.012-.396-1.582l-1.89-4.706h-13.412l-.794 1.978c-.307.837-.615 2.067-.615 2.858 0 1.803 1.232 3.035 3.387 3.035v.396h-.572c-1.186 0-2.815-.133-4.047-.133-.879 0-2.68.133-3.605.133h-.834v-.396c2.243-.044 4.133-1.846 5.891-6.289l7.522-19.041-1.716-4.222c.967 0 1.804.044 2.726.044.925 0 1.628-.044 2.465-.044l10.774 26.65c.791 1.935 1.625 2.902 3.21 2.902v.396h-1.41Zm-22.209-8.751h13.02l-6.597-16.403-6.423 16.403Z" mask="url(#d)"/><mask id="e" width="30" height="33" x="749.138" y="-.333" fill="#000" maskUnits="userSpaceOnUse"><path fill="#fff" d="M749.138-.333h30v33h-30z"/><path d="M769.136 31.978h-1.318c-1.144 0-2.199-.132-3.563-.132-1.363 0-2.419.132-3.605.132h-1.321v-.395h.132c1.761 0 2.376-.749 2.376-2.815V2.513h-3.168c-1.363 0-1.935.089-2.991 1.408-1.098 1.451-2.726 4.134-5.23 8.75l-.31-.132L753.174.667l.308.044c0 .703.35 1.319 1.801 1.319h4.619c1.232 0 2.638.044 4.354.044 1.671 0 3.122-.044 4.309-.044h4.661c1.452 0 1.804-.616 1.804-1.32l.308-.043 3.033 11.872-.307.133c-2.507-4.617-4.132-7.3-5.276-8.751-1.013-1.32-1.628-1.408-2.991-1.408h-3.167v26.255c0 2.066.617 2.815 2.419 2.815h.088l-.001.395Z"/></mask><path fill="#A6A0A1" d="M769.136 31.978h-1.318c-1.144 0-2.199-.132-3.563-.132-1.363 0-2.419.132-3.605.132h-1.321v-.395h.132c1.761 0 2.376-.749 2.376-2.815V2.513h-3.168c-1.363 0-1.935.089-2.991 1.408-1.098 1.451-2.726 4.134-5.23 8.75l-.31-.132L753.174.667l.308.044c0 .703.35 1.319 1.801 1.319h4.619c1.232 0 2.638.044 4.354.044 1.671 0 3.122-.044 4.309-.044h4.661c1.452 0 1.804-.616 1.804-1.32l.308-.043 3.033 11.872-.307.133c-2.507-4.617-4.132-7.3-5.276-8.751-1.013-1.32-1.628-1.408-2.991-1.408h-3.167v26.255c0 2.066.617 2.815 2.419 2.815h.088l-.001.395Z"/><path stroke="#A6A0A1" stroke-width=".4" d="M769.136 31.978h-1.318c-1.144 0-2.199-.132-3.563-.132-1.363 0-2.419.132-3.605.132h-1.321v-.395h.132c1.761 0 2.376-.749 2.376-2.815V2.513h-3.168c-1.363 0-1.935.089-2.991 1.408-1.098 1.451-2.726 4.134-5.23 8.75l-.31-.132L753.174.667l.308.044c0 .703.35 1.319 1.801 1.319h4.619c1.232 0 2.638.044 4.354.044 1.671 0 3.122-.044 4.309-.044h4.661c1.452 0 1.804-.616 1.804-1.32l.308-.043 3.033 11.872-.307.133c-2.507-4.617-4.132-7.3-5.276-8.751-1.013-1.32-1.628-1.408-2.991-1.408h-3.167v26.255c0 2.066.617 2.815 2.419 2.815h.088l-.001.395Z" mask="url(#e)"/><mask id="f" width="27" height="35" x="781.024" y="-.379" fill="#000" maskUnits="userSpaceOnUse"><path fill="#fff" d="M781.024-.379h27v35h-27z"/><path d="M802.472 33.297c.045-.792-.35-1.32-1.671-1.32h-9.764c-1.406 0-2.504-.043-4.089-.043-1.406 0-2.42.044-3.606.044h-1.318v-.396h.132c1.759 0 2.373-.748 2.373-2.815V5.195c0-2.023-.614-2.77-2.373-2.77h-.132v-.396h1.318c1.186 0 2.2.044 3.606.044 1.584 0 3.167-.044 4.573-.044h8.885c1.274 0 1.758-.44 1.716-1.32l.307-.088 3.694 10.51-.307.133c-2.684-3.738-4.266-5.936-5.587-7.3-1.232-1.232-2.285-1.451-4.046-1.451h-6.858V16.54h4.749c3.517 0 4.178-2.55 4.573-6.024h.396v12.665h-.396c-.395-3.475-1.056-6.157-4.573-6.157h-4.749v14.468h7.211c1.758 0 2.772-.133 4.178-1.628 1.408-1.493 3.386-4.22 5.848-7.96l.31.133-4.092 11.347-.308-.088Z"/></mask><path fill="#A6A0A1" d="M802.472 33.297c.045-.792-.35-1.32-1.671-1.32h-9.764c-1.406 0-2.504-.043-4.089-.043-1.406 0-2.42.044-3.606.044h-1.318v-.396h.132c1.759 0 2.373-.748 2.373-2.815V5.195c0-2.023-.614-2.77-2.373-2.77h-.132v-.396h1.318c1.186 0 2.2.044 3.606.044 1.584 0 3.167-.044 4.573-.044h8.885c1.274 0 1.758-.44 1.716-1.32l.307-.088 3.694 10.51-.307.133c-2.684-3.738-4.266-5.936-5.587-7.3-1.232-1.232-2.285-1.451-4.046-1.451h-6.858V16.54h4.749c3.517 0 4.178-2.55 4.573-6.024h.396v12.665h-.396c-.395-3.475-1.056-6.157-4.573-6.157h-4.749v14.468h7.211c1.758 0 2.772-.133 4.178-1.628 1.408-1.493 3.386-4.22 5.848-7.96l.31.133-4.092 11.347-.308-.088Z"/><path stroke="#A6A0A1" stroke-width=".4" d="M802.472 33.297c.045-.792-.35-1.32-1.671-1.32h-9.764c-1.406 0-2.504-.043-4.089-.043-1.406 0-2.42.044-3.606.044h-1.318v-.396h.132c1.759 0 2.373-.748 2.373-2.815V5.195c0-2.023-.614-2.77-2.373-2.77h-.132v-.396h1.318c1.186 0 2.2.044 3.606.044 1.584 0 3.167-.044 4.573-.044h8.885c1.274 0 1.758-.44 1.716-1.32l.307-.088 3.694 10.51-.307.133c-2.684-3.738-4.266-5.936-5.587-7.3-1.232-1.232-2.285-1.451-4.046-1.451h-6.858V16.54h4.749c3.517 0 4.178-2.55 4.573-6.024h.396v12.665h-.396c-.395-3.475-1.056-6.157-4.573-6.157h-4.749v14.468h7.211c1.758 0 2.772-.133 4.178-1.628 1.408-1.493 3.386-4.22 5.848-7.96l.31.133-4.092 11.347-.308-.088Z" mask="url(#f)"/><path fill="#fff" d="m1049.31 10.286-2.98.252c-.76-4.494-4.16-6.594-8.11-6.594-4.62 0-7.35 2.394-7.35 5.586 0 2.772 2.1 4.074 5.29 4.788l5.97 1.386c4.15.924 7.85 2.73 7.85 8.274 0 5.67-4.79 8.652-10.92 8.652-6.64 0-10.92-3.36-12.22-9.744l3.06-.336c1.01 5.628 4.75 7.518 9.16 7.518 4.54 0 7.9-2.226 7.9-6.006 0-3.486-2.52-4.872-5.84-5.628l-5.76-1.344c-4.15-.966-7.51-2.688-7.51-7.56 0-4.788 4.2-8.106 10.41-8.106 5.84 0 9.83 3.276 11.05 8.862ZM1021.72 32h-3.07l-17.26-25.704h-.09V32h-2.767V2.012h3.187l17.1 25.452h.12V2.012h2.78V32ZM978.739 1.424c7.812 0 13.482 5.88 13.482 15.582 0 9.744-5.67 15.624-13.482 15.624-7.77 0-13.44-5.88-13.44-15.624 0-9.702 5.67-15.582 13.44-15.582Zm0 28.644c6.132 0 10.458-4.788 10.458-13.062 0-8.232-4.326-13.02-10.458-13.02-6.09 0-10.416 4.788-10.416 13.02 0 8.274 4.326 13.062 10.416 13.062ZM956.121 32V2.012h2.94V32h-2.94ZM950.69 4.616h-10.206V32h-2.94V4.616h-10.248V2.012h23.394v2.604ZM921.955 2.012v20.034c0 6.804-4.746 10.584-11.424 10.584-6.636 0-11.382-3.78-11.382-10.584V2.012h2.94V21.5c0 5.964 3.234 8.568 8.442 8.568s8.484-2.604 8.484-8.568V2.012h2.94ZM874.805 32V2.012h2.94v27.426h16.674V32h-19.614ZM855.012 1.424c7.812 0 13.482 5.88 13.482 15.582 0 9.744-5.67 15.624-13.482 15.624-7.77 0-13.44-5.88-13.44-15.624 0-9.702 5.67-15.582 13.44-15.582Zm0 28.644c6.132 0 10.458-4.788 10.458-13.062 0-8.232-4.326-13.02-10.458-13.02-6.09 0-10.416 4.788-10.416 13.02 0 8.274 4.326 13.062 10.416 13.062ZM836.143 10.286l-2.982.252c-.756-4.494-4.158-6.594-8.106-6.594-4.62 0-7.35 2.394-7.35 5.586 0 2.772 2.1 4.074 5.292 4.788l5.964 1.386c4.158.924 7.854 2.73 7.854 8.274 0 5.67-4.788 8.652-10.92 8.652-6.636 0-10.92-3.36-12.222-9.744l3.066-.336c1.008 5.628 4.746 7.518 9.156 7.518 4.536 0 7.896-2.226 7.896-6.006 0-3.486-2.52-4.872-5.838-5.628l-5.754-1.344c-4.158-.966-7.518-2.688-7.518-7.56 0-4.788 4.2-8.106 10.416-8.106 5.838 0 9.828 3.276 11.046 8.862Z"/><mask id="g" width="27" height="32" x="333" y="1.68" fill="#000" maskUnits="userSpaceOnUse"><path fill="#fff" d="M333 1.68h27v32h-27z"/><path d="M347.961 32.67h-4.229c-1.673 0-3.214-.044-4.799-.044-1.411 0-2.423.045-3.611.045H334v-.397h.131c1.765 0 2.38-.75 2.38-2.818V5.85c0-2.027-.615-2.775-2.38-2.775H334V2.68h1.322c1.188 0 2.2.044 3.611.044 1.804 0 2.995-.044 4.622-.044h3.348c5.857 0 10.305 2.642 10.305 7.398 0 4.051-3.348 6.913-8.324 7.354 5.46.044 9.954 2.29 9.954 7.486 0 5.374-4.978 7.753-10.877 7.753Zm-1.454-29.505h-5.198v14.093h5.46c4.406 0 5.418-2.863 5.418-7.135 0-4.492-1.277-6.958-5.68-6.958Zm1.058 14.577h-6.255v14.445h6.209c4.403 0 6.033-2.071 6.033-7.31 0-5.373-1.938-7.135-5.987-7.135Z"/></mask><path fill="#A6A0A1" d="M347.961 32.67h-4.229c-1.673 0-3.214-.044-4.799-.044-1.411 0-2.423.045-3.611.045H334v-.397h.131c1.765 0 2.38-.75 2.38-2.818V5.85c0-2.027-.615-2.775-2.38-2.775H334V2.68h1.322c1.188 0 2.2.044 3.611.044 1.804 0 2.995-.044 4.622-.044h3.348c5.857 0 10.305 2.642 10.305 7.398 0 4.051-3.348 6.913-8.324 7.354 5.46.044 9.954 2.29 9.954 7.486 0 5.374-4.978 7.753-10.877 7.753Zm-1.454-29.505h-5.198v14.093h5.46c4.406 0 5.418-2.863 5.418-7.135 0-4.492-1.277-6.958-5.68-6.958Zm1.058 14.577h-6.255v14.445h6.209c4.403 0 6.033-2.071 6.033-7.31 0-5.373-1.938-7.135-5.987-7.135Z"/><path stroke="#A6A0A1" stroke-width=".4" d="M347.961 32.67h-4.229c-1.673 0-3.214-.044-4.799-.044-1.411 0-2.423.045-3.611.045H334v-.397h.131c1.765 0 2.38-.75 2.38-2.818V5.85c0-2.027-.615-2.775-2.38-2.775H334V2.68h1.322c1.188 0 2.2.044 3.611.044 1.804 0 2.995-.044 4.622-.044h3.348c5.857 0 10.305 2.642 10.305 7.398 0 4.051-3.348 6.913-8.324 7.354 5.46.044 9.954 2.29 9.954 7.486 0 5.374-4.978 7.753-10.877 7.753Zm-1.454-29.505h-5.198v14.093h5.46c4.406 0 5.418-2.863 5.418-7.135 0-4.492-1.277-6.958-5.68-6.958Zm1.058 14.577h-6.255v14.445h6.209c4.403 0 6.033-2.071 6.033-7.31 0-5.373-1.938-7.135-5.987-7.135Z" mask="url(#g)"/><mask id="h" width="29" height="32" x="362.288" y="1.68" fill="#000" maskUnits="userSpaceOnUse"><path fill="#fff" d="M362.288 1.68h29v32h-29z"/><path d="M376.674 33.022c-7.176 0-10.875-3.082-10.875-9.865V5.851c0-2.027-.661-2.775-2.422-2.775h-.089V2.68h1.32c1.145 0 2.202.133 3.567.133 1.365 0 2.423-.133 3.611-.133h1.322v.396h-.134c-1.762 0-2.377.748-2.377 2.775v16.118c0 7.09 2.422 10.173 7.487 10.173 4.844 0 8.059-3.567 8.059-8.896V8.758c0-2.775-1.188-5.637-4.096-5.681h-.088V2.68h.835c.926 0 2.248.132 3.567.132 1.411 0 2.688-.132 3.611-.132h.838v.396h-.089c-2.906 0-4.095 2.906-4.095 5.68v14.49c0 5.68-3.39 9.775-9.952 9.775Z"/></mask><path fill="#A6A0A1" d="M376.674 33.022c-7.176 0-10.875-3.082-10.875-9.865V5.851c0-2.027-.661-2.775-2.422-2.775h-.089V2.68h1.32c1.145 0 2.202.133 3.567.133 1.365 0 2.423-.133 3.611-.133h1.322v.396h-.134c-1.762 0-2.377.748-2.377 2.775v16.118c0 7.09 2.422 10.173 7.487 10.173 4.844 0 8.059-3.567 8.059-8.896V8.758c0-2.775-1.188-5.637-4.096-5.681h-.088V2.68h.835c.926 0 2.248.132 3.567.132 1.411 0 2.688-.132 3.611-.132h.838v.396h-.089c-2.906 0-4.095 2.906-4.095 5.68v14.49c0 5.68-3.39 9.775-9.952 9.775Z"/><path stroke="#A6A0A1" stroke-width=".4" d="M376.674 33.022c-7.176 0-10.875-3.082-10.875-9.865V5.851c0-2.027-.661-2.775-2.422-2.775h-.089V2.68h1.32c1.145 0 2.202.133 3.567.133 1.365 0 2.423-.133 3.611-.133h1.322v.396h-.134c-1.762 0-2.377.748-2.377 2.775v16.118c0 7.09 2.422 10.173 7.487 10.173 4.844 0 8.059-3.567 8.059-8.896V8.758c0-2.775-1.188-5.637-4.096-5.681h-.088V2.68h.835c.926 0 2.248.132 3.567.132 1.411 0 2.688-.132 3.611-.132h.838v.396h-.089c-2.906 0-4.095 2.906-4.095 5.68v14.49c0 5.68-3.39 9.775-9.952 9.775Z" mask="url(#h)"/><mask id="i" width="12" height="32" x="392.672" y="1.68" fill="#000" maskUnits="userSpaceOnUse"><path fill="#fff" d="M392.672 1.68h12v32h-12z"/><path d="M403.36 32.274h.132v.397h-1.32c-1.146 0-2.202-.133-3.613-.133-1.365 0-2.377.133-3.565.133h-1.322v-.397h.131c1.764 0 2.38-.75 2.38-2.818V5.85c0-2.027-.616-2.775-2.38-2.775h-.131V2.68h1.322c1.188 0 2.2.133 3.565.133 1.411 0 2.468-.133 3.613-.133h1.32v.396h-.132c-1.761 0-2.379.748-2.379 2.775v23.605c0 2.069.618 2.818 2.379 2.818Z"/></mask><path fill="#A6A0A1" d="M403.36 32.274h.132v.397h-1.32c-1.146 0-2.202-.133-3.613-.133-1.365 0-2.377.133-3.565.133h-1.322v-.397h.131c1.764 0 2.38-.75 2.38-2.818V5.85c0-2.027-.616-2.775-2.38-2.775h-.131V2.68h1.322c1.188 0 2.2.133 3.565.133 1.411 0 2.468-.133 3.613-.133h1.32v.396h-.132c-1.761 0-2.379.748-2.379 2.775v23.605c0 2.069.618 2.818 2.379 2.818Z"/><path stroke="#A6A0A1" stroke-width=".4" d="M403.36 32.274h.132v.397h-1.32c-1.146 0-2.202-.133-3.613-.133-1.365 0-2.377.133-3.565.133h-1.322v-.397h.131c1.764 0 2.38-.75 2.38-2.818V5.85c0-2.027-.616-2.775-2.38-2.775h-.131V2.68h1.322c1.188 0 2.2.133 3.565.133 1.411 0 2.468-.133 3.613-.133h1.32v.396h-.132c-1.761 0-2.379.748-2.379 2.775v23.605c0 2.069.618 2.818 2.379 2.818Z" mask="url(#i)"/><mask id="j" width="25" height="33" x="407.428" y="1.68" fill="#000" maskUnits="userSpaceOnUse"><path fill="#fff" d="M407.428 1.68h25v33h-25z"/><path d="m427.715 34.08-.308-.089c.043-.836-.396-1.32-1.63-1.32h-8.852c-1.146 0-2.202-.045-3.567-.045-1.408 0-2.423.045-3.611.045h-1.319v-.397h.131c1.761 0 2.377-.75 2.377-2.818V5.85c0-2.027-.616-2.775-2.377-2.775h-.131V2.68h1.319c1.188 0 2.203.133 3.611.133 1.365 0 2.422-.133 3.567-.133h1.323v.396h-.135c-1.761 0-2.376.748-2.376 2.775v26.334h5.856c1.63 0 2.642-.176 4.053-1.63 1.408-1.496 3.565-4.887 5.987-8.63l.311.133-4.229 12.022Z"/></mask><path fill="#A6A0A1" d="m427.715 34.08-.308-.089c.043-.836-.396-1.32-1.63-1.32h-8.852c-1.146 0-2.202-.045-3.567-.045-1.408 0-2.423.045-3.611.045h-1.319v-.397h.131c1.761 0 2.377-.75 2.377-2.818V5.85c0-2.027-.616-2.775-2.377-2.775h-.131V2.68h1.319c1.188 0 2.203.133 3.611.133 1.365 0 2.422-.133 3.567-.133h1.323v.396h-.135c-1.761 0-2.376.748-2.376 2.775v26.334h5.856c1.63 0 2.642-.176 4.053-1.63 1.408-1.496 3.565-4.887 5.987-8.63l.311.133-4.229 12.022Z"/><path stroke="#A6A0A1" stroke-width=".4" d="m427.715 34.08-.308-.089c.043-.836-.396-1.32-1.63-1.32h-8.852c-1.146 0-2.202-.045-3.567-.045-1.408 0-2.423.045-3.611.045h-1.319v-.397h.131c1.761 0 2.377-.75 2.377-2.818V5.85c0-2.027-.616-2.775-2.377-2.775h-.131V2.68h1.319c1.188 0 2.203.133 3.611.133 1.365 0 2.422-.133 3.567-.133h1.323v.396h-.135c-1.761 0-2.376.748-2.376 2.775v26.334h5.856c1.63 0 2.642-.176 4.053-1.63 1.408-1.496 3.565-4.887 5.987-8.63l.311.133-4.229 12.022Z" mask="url(#j)"/><mask id="k" width="28" height="32" x="434.462" y="1.68" fill="#000" maskUnits="userSpaceOnUse"><path fill="#fff" d="M434.462 1.68h28v32h-28z"/><path d="M447.836 32.67h-2.819c-1.63 0-2.819-.044-4.625-.044-1.408 0-2.423.045-3.611.045h-1.319v-.397h.131c1.762 0 2.377-.75 2.377-2.818V5.85c0-2.027-.615-2.775-2.377-2.775h-.131V2.68h1.319c1.188 0 2.203.044 3.611.044 1.807 0 2.995-.044 4.625-.044h2.819c7.528 0 13.695 5.328 13.695 15.017 0 9.643-6.167 14.974-13.695 14.974Zm-.75-29.505h-4.315v29.02h4.315c6.913 0 9.074-4.139 9.074-14.488 0-10.393-2.161-14.532-9.074-14.532Z"/></mask><path fill="#A6A0A1" d="M447.836 32.67h-2.819c-1.63 0-2.819-.044-4.625-.044-1.408 0-2.423.045-3.611.045h-1.319v-.397h.131c1.762 0 2.377-.75 2.377-2.818V5.85c0-2.027-.615-2.775-2.377-2.775h-.131V2.68h1.319c1.188 0 2.203.044 3.611.044 1.807 0 2.995-.044 4.625-.044h2.819c7.528 0 13.695 5.328 13.695 15.017 0 9.643-6.167 14.974-13.695 14.974Zm-.75-29.505h-4.315v29.02h4.315c6.913 0 9.074-4.139 9.074-14.488 0-10.393-2.161-14.532-9.074-14.532Z"/><path stroke="#A6A0A1" stroke-width=".4" d="M447.836 32.67h-2.819c-1.63 0-2.819-.044-4.625-.044-1.408 0-2.423.045-3.611.045h-1.319v-.397h.131c1.762 0 2.377-.75 2.377-2.818V5.85c0-2.027-.615-2.775-2.377-2.775h-.131V2.68h1.319c1.188 0 2.203.044 3.611.044 1.807 0 2.995-.044 4.625-.044h2.819c7.528 0 13.695 5.328 13.695 15.017 0 9.643-6.167 14.974-13.695 14.974Zm-.75-29.505h-4.315v29.02h4.315c6.913 0 9.074-4.139 9.074-14.488 0-10.393-2.161-14.532-9.074-14.532Z" mask="url(#k)"/><path fill="#fff" d="m609.972 10.286-2.982.252c-.756-4.494-4.158-6.594-8.106-6.594-4.62 0-7.35 2.394-7.35 5.586 0 2.772 2.1 4.074 5.292 4.788l5.964 1.386c4.158.924 7.854 2.73 7.854 8.274 0 5.67-4.788 8.652-10.92 8.652-6.636 0-10.92-3.36-12.222-9.744l3.066-.336c1.008 5.628 4.746 7.518 9.156 7.518 4.536 0 7.896-2.226 7.896-6.006 0-3.486-2.52-4.872-5.838-5.628l-5.754-1.344c-4.158-.966-7.518-2.688-7.518-7.56 0-4.788 4.2-8.106 10.416-8.106 5.838 0 9.828 3.276 11.046 8.862ZM582.414 2.012V32h-2.856V6.506h-.084L569.52 32h-2.394L557.13 6.506h-.084V32h-2.73V2.012h4.116l9.912 25.704h.084l9.912-25.704h4.074ZM542.258 22.634h-14.07L524.45 32h-3.15l12.222-29.988h3.486L549.23 32h-3.234l-3.738-9.366Zm-1.008-2.562-6.006-15.12h-.084l-6.006 15.12h12.096ZM500.612 15.494h16.002v2.562h-16.002v11.382h16.674V32h-19.614V2.012h19.614v2.562h-16.674v10.92ZM492.24 4.616h-10.206V32h-2.94V4.616h-10.248V2.012h23.394v2.604Z"/><mask id="l" width="26" height="32" x="0" y="1" fill="#000" maskUnits="userSpaceOnUse"><path fill="#fff" d="M0 1h26v32H0z"/><path d="M10.491 32.067c-1.368 0-2.826-.134-4.414-.134-1.457 0-2.517.134-3.751.134H1v-.398h.132c1.768 0 2.385-.751 2.385-2.826V5.18c0-2.032-.617-2.782-2.385-2.782H1V2h1.326c1.19 0 2.205.044 3.62.044C7.753 2.044 8.947 2 10.578 2h3.797c6.403 0 10.642 2.737 10.642 8.08 0 5.43-4.24 8.21-10.642 8.21H8.328v10.553c0 1.987.62 2.826 2.96 2.826h1.234v.398h-2.03Zm9.274-21.987c0-5.21-1.237-7.593-5.65-7.593H8.328v15.319h5.785c4.414 0 5.651-2.472 5.651-7.726Z"/></mask><path fill="#A6A0A1" d="M10.491 32.067c-1.368 0-2.826-.134-4.414-.134-1.457 0-2.517.134-3.751.134H1v-.398h.132c1.768 0 2.385-.751 2.385-2.826V5.18c0-2.032-.617-2.782-2.385-2.782H1V2h1.326c1.19 0 2.205.044 3.62.044C7.753 2.044 8.947 2 10.578 2h3.797c6.403 0 10.642 2.737 10.642 8.08 0 5.43-4.24 8.21-10.642 8.21H8.328v10.553c0 1.987.62 2.826 2.96 2.826h1.234v.398h-2.03Zm9.274-21.987c0-5.21-1.237-7.593-5.65-7.593H8.328v15.319h5.785c4.414 0 5.651-2.472 5.651-7.726Z"/><path stroke="#A6A0A1" stroke-width=".4" d="M10.491 32.067c-1.368 0-2.826-.134-4.414-.134-1.457 0-2.517.134-3.751.134H1v-.398h.132c1.768 0 2.385-.751 2.385-2.826V5.18c0-2.032-.617-2.782-2.385-2.782H1V2h1.326c1.19 0 2.205.044 3.62.044C7.753 2.044 8.947 2 10.578 2h3.797c6.403 0 10.642 2.737 10.642 8.08 0 5.43-4.24 8.21-10.642 8.21H8.328v10.553c0 1.987.62 2.826 2.96 2.826h1.234v.398h-2.03Zm9.274-21.987c0-5.21-1.237-7.593-5.65-7.593H8.328v15.319h5.785c4.414 0 5.651-2.472 5.651-7.726Z" mask="url(#l)"/><mask id="m" width="25" height="33" x="27.99" y="1" fill="#000" maskUnits="userSpaceOnUse"><path fill="#fff" d="M27.99 1h25v33h-25z"/><path d="m48.329 33.48-.312-.09c.046-.837-.397-1.323-1.63-1.323h-8.875c-1.149 0-2.208-.045-3.577-.045-1.414 0-2.428.045-3.62.045H28.99v-.398h.132c1.768 0 2.386-.751 2.386-2.826V5.18c0-2.032-.617-2.782-2.386-2.782h-.132V2h1.326c1.19 0 2.205.133 3.62.133 1.368 0 2.428-.133 3.576-.133h1.323v.397h-.132c-1.766 0-2.385.75-2.385 2.782v26.4h5.874c1.631 0 2.648-.176 4.06-1.633 1.414-1.5 3.576-4.9 6.005-8.652l.309.133-4.237 12.053Z"/></mask><path fill="#A6A0A1" d="m48.329 33.48-.312-.09c.046-.837-.397-1.323-1.63-1.323h-8.875c-1.149 0-2.208-.045-3.577-.045-1.414 0-2.428.045-3.62.045H28.99v-.398h.132c1.768 0 2.386-.751 2.386-2.826V5.18c0-2.032-.617-2.782-2.386-2.782h-.132V2h1.326c1.19 0 2.205.133 3.62.133 1.368 0 2.428-.133 3.576-.133h1.323v.397h-.132c-1.766 0-2.385.75-2.385 2.782v26.4h5.874c1.631 0 2.648-.176 4.06-1.633 1.414-1.5 3.576-4.9 6.005-8.652l.309.133-4.237 12.053Z"/><path stroke="#A6A0A1" stroke-width=".4" d="m48.329 33.48-.312-.09c.046-.837-.397-1.323-1.63-1.323h-8.875c-1.149 0-2.208-.045-3.577-.045-1.414 0-2.428.045-3.62.045H28.99v-.398h.132c1.768 0 2.386-.751 2.386-2.826V5.18c0-2.032-.617-2.782-2.386-2.782h-.132V2h1.326c1.19 0 2.205.133 3.62.133 1.368 0 2.428-.133 3.576-.133h1.323v.397h-.132c-1.766 0-2.385.75-2.385 2.782v26.4h5.874c1.631 0 2.648-.176 4.06-1.633 1.414-1.5 3.576-4.9 6.005-8.652l.309.133-4.237 12.053Z" mask="url(#m)"/><mask id="n" width="33" height="32" x="52.227" y="1.002" fill="#000" maskUnits="userSpaceOnUse"><path fill="#fff" d="M52.227 1.002h33v32h-33z"/><path d="M82.809 32.067c-.971 0-2.386-.133-3.666-.133-1.411 0-2.868.133-3.797.133h-1.411v-.397c1.368 0 2.163-.663 2.163-1.59 0-.574-.135-1.015-.397-1.588l-1.9-4.724H60.336l-.795 1.985c-.308.84-.617 2.076-.617 2.87 0 1.81 1.234 3.047 3.397 3.047v.397h-.57c-1.195 0-2.827-.133-4.063-.133-.883 0-2.695.133-3.62.133h-.84v-.397c2.25-.045 4.151-1.854 5.916-6.314L66.692 6.24l-1.72-4.238c.971 0 1.809.044 2.737.044.925 0 1.634-.044 2.471-.044l10.817 26.754c.795 1.943 1.634 2.914 3.223 2.914v.397h-1.411Zm-22.296-8.785H73.58L66.958 6.814l-6.445 16.468Z"/></mask><path fill="#A6A0A1" d="M82.809 32.067c-.971 0-2.386-.133-3.666-.133-1.411 0-2.868.133-3.797.133h-1.411v-.397c1.368 0 2.163-.663 2.163-1.59 0-.574-.135-1.015-.397-1.588l-1.9-4.724H60.336l-.795 1.985c-.308.84-.617 2.076-.617 2.87 0 1.81 1.234 3.047 3.397 3.047v.397h-.57c-1.195 0-2.827-.133-4.063-.133-.883 0-2.695.133-3.62.133h-.84v-.397c2.25-.045 4.151-1.854 5.916-6.314L66.692 6.24l-1.72-4.238c.971 0 1.809.044 2.737.044.925 0 1.634-.044 2.471-.044l10.817 26.754c.795 1.943 1.634 2.914 3.223 2.914v.397h-1.411Zm-22.296-8.785H73.58L66.958 6.814l-6.445 16.468Z"/><path stroke="#A6A0A1" stroke-width=".4" d="M82.809 32.067c-.971 0-2.386-.133-3.666-.133-1.411 0-2.868.133-3.797.133h-1.411v-.397c1.368 0 2.163-.663 2.163-1.59 0-.574-.135-1.015-.397-1.588l-1.9-4.724H60.336l-.795 1.985c-.308.84-.617 2.076-.617 2.87 0 1.81 1.234 3.047 3.397 3.047v.397h-.57c-1.195 0-2.827-.133-4.063-.133-.883 0-2.695.133-3.62.133h-.84v-.397c2.25-.045 4.151-1.854 5.916-6.314L66.692 6.24l-1.72-4.238c.971 0 1.809.044 2.737.044.925 0 1.634-.044 2.471-.044l10.817 26.754c.795 1.943 1.634 2.914 3.223 2.914v.397h-1.411Zm-22.296-8.785H73.58L66.958 6.814l-6.445 16.468Z" mask="url(#n)"/><mask id="o" width="32" height="32" x="84.942" y="1" fill="#000" maskUnits="userSpaceOnUse"><path fill="#fff" d="M84.942 1h32v32h-32z"/><path d="M111.46 32.022c-.929 0-1.854.044-2.914.044L90.621 5.708v20.265c0 2.782 1.19 5.651 4.148 5.696h.09v.397h-.883c-.926 0-2.209-.133-3.577-.133-1.369 0-2.692.133-3.62.133h-.837v-.397h.09c2.956 0 4.105-2.914 4.105-5.696V5.134c-1.195-1.898-1.723-2.737-3.4-2.737h-.177V2h.928c1.28 0 1.986.044 3.223.044 1.411 0 2.028-.044 3.177-.044l17.262 25.209V8.093c0-2.782-1.191-5.651-4.106-5.696h-.089V2h.841c.925 0 2.251.133 3.576.133 1.412 0 2.692-.133 3.62-.133h.837v.397h-.086c-2.914 0-4.109 2.914-4.109 5.696v19.823l2.651 4.15c-1.236 0-2.208-.044-2.825-.044Z"/></mask><path fill="#A6A0A1" d="M111.46 32.022c-.929 0-1.854.044-2.914.044L90.621 5.708v20.265c0 2.782 1.19 5.651 4.148 5.696h.09v.397h-.883c-.926 0-2.209-.133-3.577-.133-1.369 0-2.692.133-3.62.133h-.837v-.397h.09c2.956 0 4.105-2.914 4.105-5.696V5.134c-1.195-1.898-1.723-2.737-3.4-2.737h-.177V2h.928c1.28 0 1.986.044 3.223.044 1.411 0 2.028-.044 3.177-.044l17.262 25.209V8.093c0-2.782-1.191-5.651-4.106-5.696h-.089V2h.841c.925 0 2.251.133 3.576.133 1.412 0 2.692-.133 3.62-.133h.837v.397h-.086c-2.914 0-4.109 2.914-4.109 5.696v19.823l2.651 4.15c-1.236 0-2.208-.044-2.825-.044Z"/><path stroke="#A6A0A1" stroke-width=".4" d="M111.46 32.022c-.929 0-1.854.044-2.914.044L90.621 5.708v20.265c0 2.782 1.19 5.651 4.148 5.696h.09v.397h-.883c-.926 0-2.209-.133-3.577-.133-1.369 0-2.692.133-3.62.133h-.837v-.397h.09c2.956 0 4.105-2.914 4.105-5.696V5.134c-1.195-1.898-1.723-2.737-3.4-2.737h-.177V2h.928c1.28 0 1.986.044 3.223.044 1.411 0 2.028-.044 3.177-.044l17.262 25.209V8.093c0-2.782-1.191-5.651-4.106-5.696h-.089V2h.841c.925 0 2.251.133 3.576.133 1.412 0 2.692-.133 3.62-.133h.837v.397h-.086c-2.914 0-4.109 2.914-4.109 5.696v19.823l2.651 4.15c-1.236 0-2.208-.044-2.825-.044Z" mask="url(#o)"/><path fill="#fff" d="m309.869 10.286-2.982.252c-.756-4.494-4.158-6.594-8.106-6.594-4.62 0-7.35 2.394-7.35 5.586 0 2.772 2.1 4.074 5.292 4.788l5.964 1.386c4.158.924 7.854 2.73 7.854 8.274 0 5.67-4.788 8.652-10.92 8.652-6.636 0-10.92-3.36-12.222-9.744l3.066-.336c1.008 5.628 4.746 7.518 9.156 7.518 4.536 0 7.896-2.226 7.896-6.006 0-3.486-2.52-4.872-5.838-5.628l-5.754-1.344c-4.158-.966-7.518-2.688-7.518-7.56 0-4.788 4.2-8.106 10.416-8.106 5.838 0 9.828 3.276 11.046 8.862ZM266.669 15.494h16.002v2.562h-16.002v11.382h16.674V32h-19.614V2.012h19.614v2.562h-16.674v10.92ZM254.481 32l-8.526-12.516h-7.896V32h-2.94V2.012h13.062c6.09 0 9.576 3.192 9.576 8.736 0 5.208-3.024 8.316-8.4 8.694L257.967 32h-3.486Zm-16.422-15.036h9.66c4.452 0 7.014-1.974 7.014-6.216 0-4.2-2.562-6.174-7.014-6.174h-9.66v12.39ZM227.552 2.012v20.034c0 6.804-4.746 10.584-11.424 10.584-6.636 0-11.382-3.78-11.382-10.584V2.012h2.94V21.5c0 5.964 3.234 8.568 8.442 8.568s8.484-2.604 8.484-8.568V2.012h2.94ZM199.315 4.616h-10.206V32h-2.94V4.616h-10.248V2.012h23.394v2.604ZM170.58 2.012v20.034c0 6.804-4.746 10.584-11.424 10.584-6.636 0-11.382-3.78-11.382-10.584V2.012h2.94V21.5c0 5.964 3.234 8.568 8.442 8.568s8.484-2.604 8.484-8.568V2.012h2.94ZM125.14 4.574v11.172h16.002v2.52H125.14v13.776h-2.94V2.054h19.614v2.52H125.14Z"/></svg>
