<svg xmlns="http://www.w3.org/2000/svg" width="159" height="133" fill="none"><path fill="#A6A0A1" d="M46.027 99.436c0-6.54 4.805-9.896 8.56-9.896 1.677 0 3.098.54 3.952.54.797 0 .995-.37.995-.881l.2-.057 2.274 6.996-.2.085c-2.842-5.204-5.117-6.398-7.222-6.398-3.072 0-5.858 2.644-5.858 7.337 0 6.342 3.554 10.209 7.536 10.209 2.587 0 4.437-1.28 5.631-3.896l.226.086c-1.25 3.184-4.066 5.857-7.819 5.857-4.608 0-8.275-4.123-8.275-9.982ZM79.925 109.105c-.712 0-1.251.086-2.048.086l-4.72-9.186H69.8v7.11c0 1.336.399 1.82 1.536 1.82h.085v.256h-.852c-.74 0-1.422-.086-2.304-.086-.91 0-1.564.086-2.331.086h-.854v-.256h.085c1.14 0 1.536-.484 1.536-1.82V91.872c0-1.309-.397-1.792-1.536-1.792h-.085v-.256h.854c.767 0 1.42.029 2.331.029 1.023 0 1.734-.029 2.645-.029h2.9c4.01 0 6.712 1.82 6.712 5.033 0 2.845-2.36 5.148-6.682 5.148h-.285c.71 1.166 1.278 1.564 3.838 1.564l2.475 4.863c1.08 2.133 1.622 2.474 2.871 2.502v.256c-1.534 0-1.763-.085-2.814-.085Zm-6.341-18.967H69.8v9.554h3.784c2.728 0 3.64-1.592 3.64-4.805 0-2.986-.797-4.75-3.64-4.75ZM98.123 110.044c.03-.512-.227-.853-1.08-.853h-6.315c-.909 0-1.619-.029-2.644-.029-.91 0-1.564.029-2.332.029H84.9v-.256h.085c1.138 0 1.535-.484 1.535-1.82V91.872c0-1.308-.397-1.792-1.535-1.792H84.9v-.256h.852c.768 0 1.423.029 2.332.029 1.025 0 2.048-.029 2.957-.029h5.746c.824 0 1.137-.284 1.11-.852l.198-.058 2.389 6.797-.199.085c-1.735-2.417-2.758-3.838-3.612-4.72-.797-.797-1.478-.939-2.617-.939H89.62v9.072h3.072c2.274 0 2.701-1.65 2.957-3.896h.255v8.19h-.255c-.256-2.247-.683-3.981-2.958-3.981h-3.071v9.355h4.663c1.137 0 1.792-.085 2.702-1.052.91-.966 2.19-2.729 3.782-5.147l.2.086-2.646 7.337-.2-.057ZM120.929 109.191c-.626 0-1.535-.086-2.359-.086-.911 0-1.85.086-2.446.086h-.911v-.256c.881 0 1.393-.427 1.393-1.024 0-.37-.085-.654-.256-1.023l-1.222-3.043h-8.673l-.513 1.279c-.199.541-.398 1.337-.398 1.849 0 1.166.797 1.962 2.19 1.962v.256h-.37c-.767 0-1.82-.086-2.617-.086-.568 0-1.733.086-2.331.086h-.539v-.256c1.45-.028 2.672-1.194 3.809-4.067l4.864-12.313-1.11-2.73c.626 0 1.167.029 1.763.029.598 0 1.053-.029 1.594-.029l6.967 17.233c.512 1.252 1.051 1.877 2.076 1.877v.256h-.911Zm-14.362-5.659h8.419l-4.265-10.607-4.154 10.607ZM133.495 109.191h-.852c-.74 0-1.422-.086-2.304-.086-.881 0-1.564.086-2.331.086h-.854v-.256h.085c1.139 0 1.536-.484 1.536-1.82V90.138h-2.048c-.882 0-1.252.057-1.934.91-.711.939-1.763 2.673-3.383 5.659l-.2-.086 1.963-7.677.199.028c0 .455.227.853 1.165.853h2.987c.797 0 1.706.029 2.816.029 1.08 0 2.018-.029 2.786-.029h3.014c.939 0 1.167-.398 1.167-.853l.198-.028 1.962 7.677-.198.086c-1.622-2.986-2.673-4.72-3.412-5.66-.655-.852-1.053-.91-1.934-.91h-2.049v16.978c0 1.336.4 1.82 1.565 1.82h.057l-.001.256ZM155.051 110.044c.03-.512-.226-.853-1.08-.853h-6.314c-.909 0-1.619-.029-2.644-.029-.91 0-1.565.029-2.332.029h-.852v-.256h.085c1.137 0 1.535-.484 1.535-1.82V91.872c0-1.308-.398-1.792-1.535-1.792h-.085v-.256h.852c.767 0 1.422.029 2.332.029 1.025 0 2.048-.029 2.957-.029h5.745c.825 0 1.138-.284 1.11-.852l.199-.058 2.388 6.797-.198.085c-1.736-2.417-2.759-3.838-3.613-4.72-.796-.797-1.477-.939-2.616-.939h-4.435v9.072h3.071c2.275 0 2.702-1.65 2.957-3.896h.256v8.19h-.256c-.256-2.247-.682-3.981-2.957-3.981h-3.071v9.355h4.663c1.137 0 1.792-.085 2.701-1.052.911-.966 2.19-2.729 3.782-5.147l.201.086-2.646 7.337-.2-.057Z"/><path fill="#fff" d="m157.775 117.685-2.444.218c-.516-2.662-2.499-3.939-4.997-3.939-2.716 0-4.373 1.386-4.373 3.314 0 1.711 1.358 2.417 3.259 2.852l3.585.842c2.825.651 5.432 1.629 5.432 5.54 0 3.721-3.232 5.649-7.306 5.649-4.481 0-7.387-2.227-8.12-6.355l2.444-.272c.543 3.477 2.96 4.59 5.73 4.59 2.771 0 4.753-1.331 4.753-3.558 0-2.145-1.575-2.824-3.666-3.34l-3.639-.869c-2.608-.625-4.971-1.684-4.971-5.052 0-3.232 2.879-5.378 6.899-5.378 4.019 0 6.572 2.119 7.414 5.758ZM139.385 131.726h-2.607l-10.511-15.888h-.081v15.888h-2.282v-19.392h2.689l10.402 15.726h.109v-15.726h2.281v19.392ZM110.931 111.927c5.269 0 8.936 3.857 8.936 10.104 0 6.274-3.667 10.13-8.936 10.13-5.268 0-8.935-3.856-8.935-10.13 0-6.247 3.667-10.104 8.935-10.104Zm0 18.143c3.857 0 6.437-2.96 6.437-8.012 0-5.079-2.58-8.039-6.437-8.039-3.856 0-6.436 2.96-6.436 8.039 0 5.052 2.58 8.012 6.436 8.012ZM95.49 131.726v-19.392h2.445v19.392H95.49ZM91.811 114.48h-6.545v17.246h-2.444V114.48h-6.573v-2.146h15.562v2.146ZM72.654 112.334v12.63c0 4.671-3.204 7.197-7.604 7.197-4.373 0-7.605-2.526-7.605-7.197v-12.63h2.445v12.304c0 3.829 1.955 5.404 5.16 5.404 3.232 0 5.16-1.575 5.16-5.404v-12.304h2.445ZM40.93 131.726v-19.392h2.445v17.274h10.674v2.118H40.93ZM27.958 111.927c5.269 0 8.935 3.857 8.935 10.104 0 6.274-3.666 10.13-8.935 10.13s-8.935-3.856-8.935-10.13c0-6.247 3.666-10.104 8.935-10.104Zm0 18.143c3.857 0 6.437-2.96 6.437-8.012 0-5.079-2.58-8.039-6.437-8.039s-6.437 2.96-6.437 8.039c0 5.052 2.58 8.012 6.437 8.012ZM14.965 117.685l-2.445.218c-.516-2.662-2.498-3.939-4.997-3.939-2.716 0-4.373 1.386-4.373 3.314 0 1.711 1.358 2.417 3.26 2.852l3.585.842c2.824.651 5.432 1.629 5.432 5.54 0 3.721-3.232 5.649-7.306 5.649-4.482 0-7.388-2.227-8.121-6.355l2.444-.272c.544 3.477 2.96 4.59 5.73 4.59 2.771 0 4.754-1.331 4.754-3.558 0-2.145-1.575-2.824-3.667-3.34l-3.639-.869c-2.607-.625-4.97-1.684-4.97-5.052 0-3.232 2.879-5.378 6.898-5.378 4.02 0 6.573 2.119 7.415 5.758Z"/><path fill="#A6A0A1" d="M84.343 64.374H81.61c-1.082 0-2.079-.029-3.104-.029-.912 0-1.566.029-2.335.029h-.855v-.256h.085c1.141 0 1.54-.485 1.54-1.823V47.03c0-1.31-.399-1.794-1.54-1.794h-.085v-.257h.855c.769 0 1.423.029 2.335.029 1.167 0 1.937-.029 2.99-.029h2.164c3.788 0 6.664 1.709 6.664 4.784 0 2.62-2.165 4.47-5.383 4.756 3.531.028 6.437 1.481 6.437 4.84 0 3.475-3.219 5.014-7.034 5.014Zm-.94-19.08h-3.361v9.113h3.53c2.85 0 3.504-1.851 3.504-4.614 0-2.904-.826-4.499-3.673-4.499Zm.684 9.426h-4.045v9.34h4.015c2.848 0 3.902-1.338 3.902-4.726 0-3.475-1.253-4.614-3.872-4.614ZM102.911 64.6c-4.64 0-7.032-1.992-7.032-6.378V47.03c0-1.31-.428-1.794-1.567-1.794h-.057v-.257h.853c.741 0 1.424.086 2.307.086s1.567-.086 2.335-.086h.855v.257h-.087c-1.139 0-1.537.483-1.537 1.794v10.422c0 4.585 1.567 6.579 4.841 6.579 3.133 0 5.212-2.306 5.212-5.752v-9.37c0-1.794-.768-3.644-2.648-3.673h-.058v-.256h.54c.599 0 1.454.085 2.307.085.912 0 1.738-.085 2.335-.085h.542v.256h-.057c-1.88 0-2.649 1.88-2.649 3.673v9.37c0 3.673-2.192 6.32-6.435 6.32ZM120.167 64.118h.085v.256h-.853c-.741 0-1.424-.086-2.336-.086-.883 0-1.537.086-2.306.086h-.855v-.256h.085c1.141 0 1.539-.485 1.539-1.823V47.03c0-1.31-.398-1.794-1.539-1.794h-.085v-.257h.855c.769 0 1.423.086 2.306.086.912 0 1.596-.086 2.336-.086h.853v.257h-.085c-1.139 0-1.538.483-1.538 1.794v15.264c0 1.338.399 1.823 1.538 1.823ZM135.916 65.285l-.199-.057c.028-.54-.256-.854-1.054-.854h-5.724c-.741 0-1.424-.029-2.307-.029-.91 0-1.566.029-2.334.029h-.854v-.256h.085c1.139 0 1.537-.485 1.537-1.823V47.03c0-1.31-.398-1.794-1.537-1.794h-.085v-.257h.854c.768 0 1.424.086 2.334.086.883 0 1.567-.086 2.307-.086h.855v.257h-.086c-1.139 0-1.537.483-1.537 1.794V64.06h3.787c1.054 0 1.708-.114 2.62-1.054.911-.968 2.306-3.16 3.872-5.581l.201.086-2.735 7.774ZM148.927 64.374h-1.822c-1.054 0-1.823-.029-2.991-.029-.911 0-1.567.029-2.335.029h-.853v-.256h.085c1.139 0 1.537-.485 1.537-1.823V47.03c0-1.31-.398-1.794-1.537-1.794h-.085v-.257h.853c.768 0 1.424.029 2.335.029 1.168 0 1.937-.029 2.991-.029h1.822c4.869 0 8.857 3.445 8.857 9.71 0 6.237-3.988 9.684-8.857 9.684Zm-.484-19.08h-2.79V64.06h2.79c4.47 0 5.867-2.677 5.867-9.369 0-6.72-1.397-9.397-5.867-9.397Z"/><path fill="#fff" d="m157.838 72.706-2.392.217c-.505-2.662-2.445-3.939-4.891-3.939-2.658 0-4.279 1.386-4.279 3.315 0 1.71 1.329 2.417 3.189 2.852l3.509.842c2.764.652 5.316 1.63 5.316 5.541 0 3.721-3.163 5.65-7.15 5.65-4.386 0-7.23-2.227-7.948-6.356l2.393-.272c.531 3.477 2.897 4.59 5.608 4.59s4.652-1.33 4.652-3.558c0-2.146-1.542-2.825-3.589-3.34l-3.561-.87c-2.552-.625-4.865-1.684-4.865-5.052 0-3.233 2.818-5.379 6.752-5.379 3.934 0 6.432 2.119 7.256 5.759ZM139.809 67.355v19.394h-2.313V70.94h-.08l-5.794 15.81h-1.941l-5.821-15.81h-.079v15.81h-2.233V67.354h3.455l5.662 15.809h.08l5.661-15.81h3.403ZM113.615 81.127h-8.692l-2.1 5.622h-2.578l7.576-19.394h2.95l7.575 19.394h-2.605l-2.126-5.622Zm-.797-2.092-3.536-9.371h-.079l-3.509 9.371h7.124ZM87.072 75.803h9.968v2.064h-9.968v6.764h10.393v2.118H84.68V67.355h12.785v2.091H87.072v6.357ZM81.132 69.5h-6.406v17.25h-2.392V69.5H65.9v-2.145h15.23v2.146Z"/><path fill="#A6A0A1" d="M89.822 20.488c-.885 0-1.827-.086-2.854-.086-.943 0-1.628.086-2.426.086h-.857v-.256h.085c1.143 0 1.542-.486 1.542-1.828V3.101c0-1.313-.399-1.798-1.542-1.798h-.085v-.257h.857c.77 0 1.426.029 2.34.029 1.17 0 1.942-.03 2.997-.03h2.455c4.14 0 6.882 1.77 6.882 5.226 0 3.51-2.741 5.31-6.882 5.31h-3.91v6.823c0 1.285.4 1.828 1.913 1.828h.798v.256h-1.313Zm5.997-14.217c0-3.37-.8-4.91-3.654-4.91h-3.741v9.906h3.74c2.855 0 3.655-1.599 3.655-4.996ZM114.29 21.402l-.202-.057c.03-.542-.257-.857-1.055-.857h-5.738c-.743 0-1.428-.028-2.313-.028-.915 0-1.57.028-2.341.028h-.857v-.256h.085c1.144 0 1.543-.486 1.543-1.828V3.101c0-1.313-.399-1.798-1.543-1.798h-.085v-.257h.857c.771 0 1.426.086 2.341.086.885 0 1.57-.086 2.313-.086h.855v.257h-.085c-1.142 0-1.543.485-1.543 1.798v17.073h3.799c1.055 0 1.713-.115 2.625-1.057.915-.97 2.313-3.168 3.884-5.595l.199.086-2.739 7.794ZM136.587 20.489c-.628 0-1.543-.086-2.371-.086-.912 0-1.854.086-2.455.086h-.913v-.257c.885 0 1.399-.429 1.399-1.028 0-.371-.087-.657-.257-1.027l-1.228-3.055h-8.707l-.514 1.284c-.2.543-.399 1.342-.399 1.856 0 1.17.798 1.97 2.197 1.97v.257h-.37c-.772 0-1.827-.086-2.627-.086-.571 0-1.742.086-2.341.086h-.543v-.257c1.456-.029 2.685-1.199 3.826-4.083l4.881-12.361-1.113-2.74c.629 0 1.17.028 1.77.028.599 0 1.057-.029 1.599-.029l6.994 17.3c.514 1.257 1.057 1.885 2.084 1.885v.257h-.912Zm-14.418-5.681h8.45l-4.282-10.65-4.168 10.65ZM155.113 20.46c-.6 0-1.199.028-1.884.028L141.638 3.444v13.104c0 1.799.77 3.654 2.682 3.683h.058v.257h-.571c-.599 0-1.428-.086-2.313-.086-.885 0-1.74.086-2.341.086h-.541v-.257h.058c1.912 0 2.655-1.884 2.655-3.683V3.073c-.773-1.228-1.114-1.77-2.199-1.77h-.114v-.257h.6c.828 0 1.284.029 2.084.029.913 0 1.312-.03 2.054-.03l11.163 16.302V4.986c0-1.799-.771-3.655-2.655-3.683h-.058v-.257h.544c.598 0 1.455.086 2.313.086.912 0 1.74-.086 2.34-.086h.541v.257h-.055c-1.885 0-2.657 1.884-2.657 3.683v12.818l1.714 2.684c-.799 0-1.428-.029-1.827-.029Z"/><path fill="#fff" d="m158.01 28.771-2.445.217c-.516-2.661-2.498-3.938-4.997-3.938-2.716 0-4.373 1.385-4.373 3.314 0 1.71 1.358 2.417 3.26 2.851l3.585.842c2.824.652 5.431 1.63 5.431 5.54 0 3.722-3.232 5.65-7.305 5.65-4.482 0-7.388-2.227-8.121-6.355l2.444-.272c.543 3.476 2.961 4.59 5.731 4.59s4.753-1.33 4.753-3.558c0-2.145-1.575-2.825-3.667-3.34l-3.639-.87c-2.607-.624-4.97-1.683-4.97-5.051 0-3.232 2.879-5.378 6.898-5.378 4.02 0 6.573 2.119 7.415 5.758ZM129.421 31.867h10.185v2.064h-10.185v6.763h10.619v2.118h-13.063V23.421h13.063v2.09h-10.619v6.356ZM120.383 42.812l-5.079-7.849h-4.997v7.85h-2.445V23.42h8.718c4.156 0 6.464 2.2 6.464 5.785 0 3.123-1.765 5.187-4.997 5.649l5.215 7.957h-2.879ZM110.307 32.9h5.948c2.77 0 4.291-1.25 4.291-3.693 0-2.445-1.521-3.694-4.291-3.694h-5.948v7.387ZM103.452 23.42v12.63c0 4.671-3.204 7.197-7.604 7.197-4.373 0-7.605-2.526-7.605-7.197V23.42h2.445v12.304c0 3.83 1.955 5.405 5.16 5.405 3.232 0 5.16-1.576 5.16-5.405V23.42h2.444ZM84.646 25.566h-6.545v17.246h-2.445V25.566h-6.572v-2.145h15.562v2.145ZM65.49 23.42v12.63c0 4.671-3.205 7.197-7.605 7.197-4.373 0-7.605-2.526-7.605-7.197V23.42h2.445v12.304c0 3.83 1.955 5.405 5.16 5.405 3.232 0 5.16-1.576 5.16-5.405V23.42h2.445ZM35.918 25.512v6.572h10.185v2.037H35.918v8.691h-2.444V23.421h13.063v2.09H35.918Z"/></svg>
