<svg xmlns="http://www.w3.org/2000/svg" fill="none" viewBox="0 0 238 220"><mask id="a" width="26" height="32" x="121.478" y="-.576" fill="#000" maskUnits="userSpaceOnUse"><path fill="#fff" d="M121.478-.576h26v32h-26z"/><path d="M131.969 30.49c-1.368 0-2.826-.133-4.414-.133-1.457 0-2.517.134-3.751.134h-1.326v-.398h.132c1.768 0 2.385-.751 2.385-2.826V3.603c0-2.032-.617-2.782-2.385-2.782h-.132V.424h1.326c1.191 0 2.205.044 3.619.044 1.809 0 3.003-.044 4.634-.044h3.797c6.403 0 10.642 2.737 10.642 8.08 0 5.43-4.239 8.21-10.642 8.21h-6.048v10.553c0 1.987.62 2.826 2.96 2.826H134v.398h-2.031Zm9.274-21.986c0-5.21-1.237-7.593-5.651-7.593h-5.785V16.23h5.785c4.414 0 5.651-2.472 5.651-7.726Z"/></mask><path fill="#A6A0A1" d="M131.969 30.49c-1.368 0-2.826-.133-4.414-.133-1.457 0-2.517.134-3.751.134h-1.326v-.398h.132c1.768 0 2.385-.751 2.385-2.826V3.603c0-2.032-.617-2.782-2.385-2.782h-.132V.424h1.326c1.191 0 2.205.044 3.619.044 1.809 0 3.003-.044 4.634-.044h3.797c6.403 0 10.642 2.737 10.642 8.08 0 5.43-4.239 8.21-10.642 8.21h-6.048v10.553c0 1.987.62 2.826 2.96 2.826H134v.398h-2.031Zm9.274-21.986c0-5.21-1.237-7.593-5.651-7.593h-5.785V16.23h5.785c4.414 0 5.651-2.472 5.651-7.726Z"/><path stroke="#A6A0A1" stroke-width=".4" d="M131.969 30.49c-1.368 0-2.826-.133-4.414-.133-1.457 0-2.517.134-3.751.134h-1.326v-.398h.132c1.768 0 2.385-.751 2.385-2.826V3.603c0-2.032-.617-2.782-2.385-2.782h-.132V.424h1.326c1.191 0 2.205.044 3.619.044 1.809 0 3.003-.044 4.634-.044h3.797c6.403 0 10.642 2.737 10.642 8.08 0 5.43-4.239 8.21-10.642 8.21h-6.048v10.553c0 1.987.62 2.826 2.96 2.826H134v.398h-2.031Zm9.274-21.986c0-5.21-1.237-7.593-5.651-7.593h-5.785V16.23h5.785c4.414 0 5.651-2.472 5.651-7.726Z" mask="url(#a)"/><mask id="b" width="25" height="33" x="149.468" y="-.576" fill="#000" maskUnits="userSpaceOnUse"><path fill="#fff" d="M149.468-.576h25v33h-25z"/><path d="m169.807 31.903-.311-.088c.045-.838-.398-1.325-1.632-1.325h-8.874c-1.149 0-2.208-.044-3.577-.044-1.414 0-2.428.044-3.619.044h-1.326v-.397h.132c1.769 0 2.386-.751 2.386-2.826V3.603c0-2.032-.617-2.782-2.386-2.782h-.132V.424h1.326c1.191 0 2.205.133 3.619.133 1.369 0 2.429-.133 3.577-.133h1.323v.397h-.132c-1.766 0-2.385.75-2.385 2.782v26.4h5.874c1.631 0 2.648-.176 4.06-1.633 1.414-1.5 3.576-4.9 6.005-8.652l.309.133-4.237 12.052Z"/></mask><path fill="#A6A0A1" d="m169.807 31.903-.311-.088c.045-.838-.398-1.325-1.632-1.325h-8.874c-1.149 0-2.208-.044-3.577-.044-1.414 0-2.428.044-3.619.044h-1.326v-.397h.132c1.769 0 2.386-.751 2.386-2.826V3.603c0-2.032-.617-2.782-2.386-2.782h-.132V.424h1.326c1.191 0 2.205.133 3.619.133 1.369 0 2.429-.133 3.577-.133h1.323v.397h-.132c-1.766 0-2.385.75-2.385 2.782v26.4h5.874c1.631 0 2.648-.176 4.06-1.633 1.414-1.5 3.576-4.9 6.005-8.652l.309.133-4.237 12.052Z"/><path stroke="#A6A0A1" stroke-width=".4" d="m169.807 31.903-.311-.088c.045-.838-.398-1.325-1.632-1.325h-8.874c-1.149 0-2.208-.044-3.577-.044-1.414 0-2.428.044-3.619.044h-1.326v-.397h.132c1.769 0 2.386-.751 2.386-2.826V3.603c0-2.032-.617-2.782-2.386-2.782h-.132V.424h1.326c1.191 0 2.205.133 3.619.133 1.369 0 2.429-.133 3.577-.133h1.323v.397h-.132c-1.766 0-2.385.75-2.385 2.782v26.4h5.874c1.631 0 2.648-.176 4.06-1.633 1.414-1.5 3.576-4.9 6.005-8.652l.309.133-4.237 12.052Z" mask="url(#b)"/><mask id="c" width="33" height="32" x="173.706" y="-.574" fill="#000" maskUnits="userSpaceOnUse"><path fill="#fff" d="M173.706-.574h33v32h-33z"/><path d="M204.287 30.491c-.971 0-2.386-.133-3.666-.133-1.411 0-2.868.133-3.797.133h-1.411v-.397c1.368 0 2.163-.663 2.163-1.59 0-.574-.135-1.016-.397-1.588l-1.9-4.724h-13.465l-.795 1.985c-.308.84-.617 2.076-.617 2.87 0 1.81 1.234 3.047 3.397 3.047v.397h-.571c-1.194 0-2.826-.133-4.063-.133-.882 0-2.694.133-3.619.133h-.84v-.397c2.251-.045 4.151-1.854 5.916-6.314l7.548-19.116-1.72-4.238c.971 0 1.809.044 2.737.044.926 0 1.634-.044 2.472-.044l10.816 26.754c.795 1.942 1.634 2.914 3.223 2.914v.397h-1.411Zm-22.296-8.785h13.067l-6.622-16.468-6.445 16.468Z"/></mask><path fill="#A6A0A1" d="M204.287 30.491c-.971 0-2.386-.133-3.666-.133-1.411 0-2.868.133-3.797.133h-1.411v-.397c1.368 0 2.163-.663 2.163-1.59 0-.574-.135-1.016-.397-1.588l-1.9-4.724h-13.465l-.795 1.985c-.308.84-.617 2.076-.617 2.87 0 1.81 1.234 3.047 3.397 3.047v.397h-.571c-1.194 0-2.826-.133-4.063-.133-.882 0-2.694.133-3.619.133h-.84v-.397c2.251-.045 4.151-1.854 5.916-6.314l7.548-19.116-1.72-4.238c.971 0 1.809.044 2.737.044.926 0 1.634-.044 2.472-.044l10.816 26.754c.795 1.942 1.634 2.914 3.223 2.914v.397h-1.411Zm-22.296-8.785h13.067l-6.622-16.468-6.445 16.468Z"/><path stroke="#A6A0A1" stroke-width=".4" d="M204.287 30.491c-.971 0-2.386-.133-3.666-.133-1.411 0-2.868.133-3.797.133h-1.411v-.397c1.368 0 2.163-.663 2.163-1.59 0-.574-.135-1.016-.397-1.588l-1.9-4.724h-13.465l-.795 1.985c-.308.84-.617 2.076-.617 2.87 0 1.81 1.234 3.047 3.397 3.047v.397h-.571c-1.194 0-2.826-.133-4.063-.133-.882 0-2.694.133-3.619.133h-.84v-.397c2.251-.045 4.151-1.854 5.916-6.314l7.548-19.116-1.72-4.238c.971 0 1.809.044 2.737.044.926 0 1.634-.044 2.472-.044l10.816 26.754c.795 1.942 1.634 2.914 3.223 2.914v.397h-1.411Zm-22.296-8.785h13.067l-6.622-16.468-6.445 16.468Z" mask="url(#c)"/><mask id="d" width="32" height="32" x="206.42" y="-.576" fill="#000" maskUnits="userSpaceOnUse"><path fill="#fff" d="M206.42-.576h32v32h-32z"/><path d="M232.938 30.445c-.929 0-1.854.045-2.914.045L212.099 4.132v20.265c0 2.782 1.191 5.651 4.148 5.696h.089v.397h-.882c-.926 0-2.209-.133-3.577-.133-1.369 0-2.691.133-3.62.133h-.837v-.397h.089c2.957 0 4.106-2.914 4.106-5.696V3.558c-1.195-1.898-1.723-2.737-3.4-2.737h-.177V.424h.928c1.28 0 1.986.044 3.223.044 1.411 0 2.028-.044 3.177-.044l17.262 25.209V6.517c0-2.782-1.191-5.651-4.106-5.696h-.089V.424h.841c.925 0 2.251.133 3.576.133 1.412 0 2.692-.133 3.62-.133h.837v.397h-.086c-2.914 0-4.109 2.914-4.109 5.696V26.34l2.651 4.15c-1.236 0-2.208-.045-2.825-.045Z"/></mask><path fill="#A6A0A1" d="M232.938 30.445c-.929 0-1.854.045-2.914.045L212.099 4.132v20.265c0 2.782 1.191 5.651 4.148 5.696h.089v.397h-.882c-.926 0-2.209-.133-3.577-.133-1.369 0-2.691.133-3.62.133h-.837v-.397h.089c2.957 0 4.106-2.914 4.106-5.696V3.558c-1.195-1.898-1.723-2.737-3.4-2.737h-.177V.424h.928c1.28 0 1.986.044 3.223.044 1.411 0 2.028-.044 3.177-.044l17.262 25.209V6.517c0-2.782-1.191-5.651-4.106-5.696h-.089V.424h.841c.925 0 2.251.133 3.576.133 1.412 0 2.692-.133 3.62-.133h.837v.397h-.086c-2.914 0-4.109 2.914-4.109 5.696V26.34l2.651 4.15c-1.236 0-2.208-.045-2.825-.045Z"/><path stroke="#A6A0A1" stroke-width=".4" d="M232.938 30.445c-.929 0-1.854.045-2.914.045L212.099 4.132v20.265c0 2.782 1.191 5.651 4.148 5.696h.089v.397h-.882c-.926 0-2.209-.133-3.577-.133-1.369 0-2.691.133-3.62.133h-.837v-.397h.089c2.957 0 4.106-2.914 4.106-5.696V3.558c-1.195-1.898-1.723-2.737-3.4-2.737h-.177V.424h.928c1.28 0 1.986.044 3.223.044 1.411 0 2.028-.044 3.177-.044l17.262 25.209V6.517c0-2.782-1.191-5.651-4.106-5.696h-.089V.424h.841c.925 0 2.251.133 3.576.133 1.412 0 2.692-.133 3.62-.133h.837v.397h-.086c-2.914 0-4.109 2.914-4.109 5.696V26.34l2.651 4.15c-1.236 0-2.208-.045-2.825-.045Z" mask="url(#d)"/><path fill="#fff" d="m236.635 46.765-2.982.252c-.756-4.494-4.158-6.594-8.106-6.594-4.62 0-7.35 2.394-7.35 5.586 0 2.772 2.1 4.074 5.292 4.788l5.964 1.386c4.158.924 7.854 2.73 7.854 8.274 0 5.67-4.788 8.652-10.92 8.652-6.636 0-10.92-3.36-12.222-9.744l3.066-.336c1.008 5.628 4.746 7.518 9.156 7.518 4.536 0 7.896-2.226 7.896-6.006 0-3.486-2.52-4.872-5.838-5.628l-5.754-1.344c-4.158-.966-7.518-2.688-7.518-7.56 0-4.788 4.2-8.106 10.416-8.106 5.838 0 9.828 3.276 11.046 8.862ZM193.435 51.974h16.002v2.562h-16.002v11.382h16.674v2.561h-19.614V38.493h19.614v2.562h-16.674v10.92ZM181.247 68.48l-8.526-12.517h-7.896V68.48h-2.94V38.49h13.062c6.09 0 9.576 3.193 9.576 8.736 0 5.209-3.024 8.317-8.4 8.695l8.61 12.558h-3.486Zm-16.422-15.037h9.66c4.452 0 7.014-1.974 7.014-6.215 0-4.2-2.562-6.175-7.014-6.175h-9.66v12.39ZM154.318 38.492v20.034c0 6.803-4.746 10.583-11.424 10.583-6.636 0-11.382-3.78-11.382-10.583V38.49h2.94V57.98c0 5.964 3.234 8.568 8.442 8.568s8.484-2.605 8.484-8.569V38.493h2.94ZM126.081 41.096h-10.206V68.48h-2.94V41.094h-10.248v-2.603h23.394v2.604ZM97.346 38.492v20.034c0 6.803-4.746 10.583-11.424 10.583-6.636 0-11.382-3.78-11.382-10.583V38.49h2.94V57.98c0 5.964 3.234 8.568 8.442 8.568s8.484-2.605 8.484-8.569V38.493h2.94ZM51.906 41.053v11.172h16.002v2.52H51.906v13.777h-2.94V38.532H68.58v2.52H51.906Z"/><mask id="e" width="27" height="32" x="108.775" y="74.109" fill="#000" maskUnits="userSpaceOnUse"><path fill="#fff" d="M108.775 74.109h27v32h-27z"/><path d="M123.736 105.1h-4.229c-1.673 0-3.214-.044-4.799-.044-1.411 0-2.422.044-3.611.044h-1.322v-.396h.132c1.764 0 2.379-.75 2.379-2.819V78.28c0-2.026-.615-2.774-2.379-2.774h-.132v-.397h1.322c1.189 0 2.2.045 3.611.045 1.804 0 2.995-.045 4.622-.045h3.349c5.856 0 10.304 2.642 10.304 7.398 0 4.051-3.348 6.914-8.324 7.354 5.461.044 9.954 2.291 9.954 7.487 0 5.373-4.977 7.752-10.877 7.752Zm-1.454-29.505h-5.198v14.092h5.461c4.405 0 5.417-2.862 5.417-7.135 0-4.491-1.277-6.957-5.68-6.957Zm1.058 14.577h-6.255v14.444h6.209c4.403 0 6.033-2.071 6.033-7.31 0-5.373-1.938-7.134-5.987-7.134Z"/></mask><path fill="#A6A0A1" d="M123.736 105.1h-4.229c-1.673 0-3.214-.044-4.799-.044-1.411 0-2.422.044-3.611.044h-1.322v-.396h.132c1.764 0 2.379-.75 2.379-2.819V78.28c0-2.026-.615-2.774-2.379-2.774h-.132v-.397h1.322c1.189 0 2.2.045 3.611.045 1.804 0 2.995-.045 4.622-.045h3.349c5.856 0 10.304 2.642 10.304 7.398 0 4.051-3.348 6.914-8.324 7.354 5.461.044 9.954 2.291 9.954 7.487 0 5.373-4.977 7.752-10.877 7.752Zm-1.454-29.505h-5.198v14.092h5.461c4.405 0 5.417-2.862 5.417-7.135 0-4.491-1.277-6.957-5.68-6.957Zm1.058 14.577h-6.255v14.444h6.209c4.403 0 6.033-2.071 6.033-7.31 0-5.373-1.938-7.134-5.987-7.134Z"/><path stroke="#A6A0A1" stroke-width=".4" d="M123.736 105.1h-4.229c-1.673 0-3.214-.044-4.799-.044-1.411 0-2.422.044-3.611.044h-1.322v-.396h.132c1.764 0 2.379-.75 2.379-2.819V78.28c0-2.026-.615-2.774-2.379-2.774h-.132v-.397h1.322c1.189 0 2.2.045 3.611.045 1.804 0 2.995-.045 4.622-.045h3.349c5.856 0 10.304 2.642 10.304 7.398 0 4.051-3.348 6.914-8.324 7.354 5.461.044 9.954 2.291 9.954 7.487 0 5.373-4.977 7.752-10.877 7.752Zm-1.454-29.505h-5.198v14.092h5.461c4.405 0 5.417-2.862 5.417-7.135 0-4.491-1.277-6.957-5.68-6.957Zm1.058 14.577h-6.255v14.444h6.209c4.403 0 6.033-2.071 6.033-7.31 0-5.373-1.938-7.134-5.987-7.134Z" mask="url(#e)"/><mask id="f" width="29" height="32" x="138.063" y="74.109" fill="#000" maskUnits="userSpaceOnUse"><path fill="#fff" d="M138.063 74.109h29v32h-29z"/><path d="M152.449 105.451c-7.176 0-10.875-3.082-10.875-9.864V78.28c0-2.026-.661-2.774-2.422-2.774h-.089v-.397h1.32c1.146 0 2.202.133 3.567.133 1.366 0 2.423-.133 3.611-.133h1.322v.397h-.134c-1.761 0-2.377.748-2.377 2.774v16.118c0 7.091 2.423 10.173 7.487 10.173 4.845 0 8.059-3.566 8.059-8.895V81.187c0-2.774-1.188-5.636-4.095-5.68h-.089v-.397h.835c.926 0 2.248.133 3.568.133 1.41 0 2.687-.133 3.61-.133h.838v.396h-.088c-2.907 0-4.096 2.907-4.096 5.681v14.489c0 5.681-3.39 9.775-9.952 9.775Z"/></mask><path fill="#A6A0A1" d="M152.449 105.451c-7.176 0-10.875-3.082-10.875-9.864V78.28c0-2.026-.661-2.774-2.422-2.774h-.089v-.397h1.32c1.146 0 2.202.133 3.567.133 1.366 0 2.423-.133 3.611-.133h1.322v.397h-.134c-1.761 0-2.377.748-2.377 2.774v16.118c0 7.091 2.423 10.173 7.487 10.173 4.845 0 8.059-3.566 8.059-8.895V81.187c0-2.774-1.188-5.636-4.095-5.68h-.089v-.397h.835c.926 0 2.248.133 3.568.133 1.41 0 2.687-.133 3.61-.133h.838v.396h-.088c-2.907 0-4.096 2.907-4.096 5.681v14.489c0 5.681-3.39 9.775-9.952 9.775Z"/><path stroke="#A6A0A1" stroke-width=".4" d="M152.449 105.451c-7.176 0-10.875-3.082-10.875-9.864V78.28c0-2.026-.661-2.774-2.422-2.774h-.089v-.397h1.32c1.146 0 2.202.133 3.567.133 1.366 0 2.423-.133 3.611-.133h1.322v.397h-.134c-1.761 0-2.377.748-2.377 2.774v16.118c0 7.091 2.423 10.173 7.487 10.173 4.845 0 8.059-3.566 8.059-8.895V81.187c0-2.774-1.188-5.636-4.095-5.68h-.089v-.397h.835c.926 0 2.248.133 3.568.133 1.41 0 2.687-.133 3.61-.133h.838v.396h-.088c-2.907 0-4.096 2.907-4.096 5.681v14.489c0 5.681-3.39 9.775-9.952 9.775Z" mask="url(#f)"/><mask id="g" width="12" height="32" x="168.447" y="74.109" fill="#000" maskUnits="userSpaceOnUse"><path fill="#fff" d="M168.447 74.109h12v32h-12z"/><path d="M179.136 104.704h.131v.396h-1.319c-1.146 0-2.203-.133-3.614-.133-1.365 0-2.377.133-3.565.133h-1.322v-.396h.132c1.764 0 2.379-.75 2.379-2.819V78.28c0-2.026-.615-2.774-2.379-2.774h-.132v-.397h1.322c1.188 0 2.2.133 3.565.133 1.411 0 2.468-.133 3.614-.133h1.319v.397h-.131c-1.762 0-2.38.748-2.38 2.774v23.605c0 2.069.618 2.819 2.38 2.819Z"/></mask><path fill="#A6A0A1" d="M179.136 104.704h.131v.396h-1.319c-1.146 0-2.203-.133-3.614-.133-1.365 0-2.377.133-3.565.133h-1.322v-.396h.132c1.764 0 2.379-.75 2.379-2.819V78.28c0-2.026-.615-2.774-2.379-2.774h-.132v-.397h1.322c1.188 0 2.2.133 3.565.133 1.411 0 2.468-.133 3.614-.133h1.319v.397h-.131c-1.762 0-2.38.748-2.38 2.774v23.605c0 2.069.618 2.819 2.38 2.819Z"/><path stroke="#A6A0A1" stroke-width=".4" d="M179.136 104.704h.131v.396h-1.319c-1.146 0-2.203-.133-3.614-.133-1.365 0-2.377.133-3.565.133h-1.322v-.396h.132c1.764 0 2.379-.75 2.379-2.819V78.28c0-2.026-.615-2.774-2.379-2.774h-.132v-.397h1.322c1.188 0 2.2.133 3.565.133 1.411 0 2.468-.133 3.614-.133h1.319v.397h-.131c-1.762 0-2.38.748-2.38 2.774v23.605c0 2.069.618 2.819 2.38 2.819Z" mask="url(#g)"/><mask id="h" width="25" height="33" x="183.203" y="74.109" fill="#000" maskUnits="userSpaceOnUse"><path fill="#fff" d="M183.203 74.109h25v33h-25z"/><path d="m203.49 106.509-.308-.088c.043-.836-.396-1.321-1.63-1.321h-8.851c-1.146 0-2.203-.044-3.568-.044-1.408 0-2.422.044-3.611.044h-1.319v-.396h.131c1.762 0 2.377-.75 2.377-2.819V78.28c0-2.026-.615-2.774-2.377-2.774h-.131v-.397h1.319c1.189 0 2.203.133 3.611.133 1.365 0 2.422-.133 3.568-.133h1.322v.397h-.134c-1.762 0-2.377.748-2.377 2.774v26.335h5.857c1.629 0 2.641-.177 4.052-1.63 1.408-1.496 3.565-4.888 5.987-8.63l.311.132-4.229 12.022Z"/></mask><path fill="#A6A0A1" d="m203.49 106.509-.308-.088c.043-.836-.396-1.321-1.63-1.321h-8.851c-1.146 0-2.203-.044-3.568-.044-1.408 0-2.422.044-3.611.044h-1.319v-.396h.131c1.762 0 2.377-.75 2.377-2.819V78.28c0-2.026-.615-2.774-2.377-2.774h-.131v-.397h1.319c1.189 0 2.203.133 3.611.133 1.365 0 2.422-.133 3.568-.133h1.322v.397h-.134c-1.762 0-2.377.748-2.377 2.774v26.335h5.857c1.629 0 2.641-.177 4.052-1.63 1.408-1.496 3.565-4.888 5.987-8.63l.311.132-4.229 12.022Z"/><path stroke="#A6A0A1" stroke-width=".4" d="m203.49 106.509-.308-.088c.043-.836-.396-1.321-1.63-1.321h-8.851c-1.146 0-2.203-.044-3.568-.044-1.408 0-2.422.044-3.611.044h-1.319v-.396h.131c1.762 0 2.377-.75 2.377-2.819V78.28c0-2.026-.615-2.774-2.377-2.774h-.131v-.397h1.319c1.189 0 2.203.133 3.611.133 1.365 0 2.422-.133 3.568-.133h1.322v.397h-.134c-1.762 0-2.377.748-2.377 2.774v26.335h5.857c1.629 0 2.641-.177 4.052-1.63 1.408-1.496 3.565-4.888 5.987-8.63l.311.132-4.229 12.022Z" mask="url(#h)"/><mask id="i" width="28" height="32" x="210.237" y="74.109" fill="#000" maskUnits="userSpaceOnUse"><path fill="#fff" d="M210.237 74.109h28v32h-28z"/><path d="M223.611 105.1h-2.819c-1.63 0-2.819-.044-4.625-.044-1.408 0-2.422.044-3.61.044h-1.32v-.396h.131c1.762 0 2.377-.75 2.377-2.819V78.28c0-2.026-.615-2.774-2.377-2.774h-.131v-.397h1.32c1.188 0 2.202.045 3.61.045 1.807 0 2.995-.045 4.625-.045h2.819c7.529 0 13.696 5.328 13.696 15.017 0 9.644-6.167 14.974-13.696 14.974Zm-.75-29.505h-4.314v29.02h4.314c6.913 0 9.074-4.139 9.074-14.488 0-10.393-2.161-14.532-9.074-14.532Z"/></mask><path fill="#A6A0A1" d="M223.611 105.1h-2.819c-1.63 0-2.819-.044-4.625-.044-1.408 0-2.422.044-3.61.044h-1.32v-.396h.131c1.762 0 2.377-.75 2.377-2.819V78.28c0-2.026-.615-2.774-2.377-2.774h-.131v-.397h1.32c1.188 0 2.202.045 3.61.045 1.807 0 2.995-.045 4.625-.045h2.819c7.529 0 13.696 5.328 13.696 15.017 0 9.644-6.167 14.974-13.696 14.974Zm-.75-29.505h-4.314v29.02h4.314c6.913 0 9.074-4.139 9.074-14.488 0-10.393-2.161-14.532-9.074-14.532Z"/><path stroke="#A6A0A1" stroke-width=".4" d="M223.611 105.1h-2.819c-1.63 0-2.819-.044-4.625-.044-1.408 0-2.422.044-3.61.044h-1.32v-.396h.131c1.762 0 2.377-.75 2.377-2.819V78.28c0-2.026-.615-2.774-2.377-2.774h-.131v-.397h1.32c1.188 0 2.202.045 3.61.045 1.807 0 2.995-.045 4.625-.045h2.819c7.529 0 13.696 5.328 13.696 15.017 0 9.644-6.167 14.974-13.696 14.974Zm-.75-29.505h-4.314v29.02h4.314c6.913 0 9.074-4.139 9.074-14.488 0-10.393-2.161-14.532-9.074-14.532Z" mask="url(#i)"/><path fill="#fff" d="m236.635 121.371-2.982.252c-.756-4.494-4.158-6.594-8.106-6.594-4.62 0-7.35 2.394-7.35 5.586 0 2.772 2.1 4.074 5.292 4.788l5.964 1.386c4.158.924 7.854 2.73 7.854 8.274 0 5.67-4.788 8.652-10.92 8.652-6.636 0-10.92-3.36-12.222-9.744l3.066-.336c1.008 5.628 4.746 7.518 9.156 7.518 4.536 0 7.896-2.226 7.896-6.006 0-3.486-2.52-4.872-5.838-5.628l-5.754-1.344c-4.158-.966-7.518-2.688-7.518-7.56 0-4.788 4.2-8.106 10.416-8.106 5.838 0 9.828 3.276 11.046 8.862ZM209.077 113.097v29.988h-2.856v-25.494h-.084l-9.954 25.494h-2.394l-9.996-25.494h-.084v25.494h-2.73v-29.988h4.116l9.912 25.704h.084l9.912-25.704h4.074ZM168.921 133.719h-14.07l-3.738 9.366h-3.15l12.222-29.988h3.486l12.222 29.988h-3.234l-3.738-9.366Zm-1.008-2.562-6.006-15.12h-.084l-6.006 15.12h12.096ZM127.275 126.579h16.002v2.562h-16.002v11.382h16.674v2.562h-19.614v-29.988h19.614v2.562h-16.674v10.92ZM118.903 115.701h-10.206v27.384h-2.94v-27.384H95.509v-2.604h23.394v2.604Z"/><mask id="j" width="27" height="33" x="63.307" y="149.067" fill="#000" maskUnits="userSpaceOnUse"><path fill="#fff" d="M63.307 149.067h27v33h-27z"/><path d="M64.308 165.987c0-10.114 7.43-15.303 13.236-15.303 2.595 0 4.792.835 6.113.835 1.232 0 1.54-.572 1.54-1.363l.306-.089 3.517 10.819-.307.132c-4.397-8.048-7.914-9.894-11.17-9.894-4.75 0-9.058 4.089-9.058 11.346 0 9.807 5.496 15.787 11.653 15.787 4.002 0 6.862-1.979 8.709-6.024l.35.132c-1.935 4.925-6.29 9.059-12.092 9.059-7.126 0-12.797-6.377-12.797-15.437Z"/></mask><path fill="#A6A0A1" d="M64.308 165.987c0-10.114 7.43-15.303 13.236-15.303 2.595 0 4.792.835 6.113.835 1.232 0 1.54-.572 1.54-1.363l.306-.089 3.517 10.819-.307.132c-4.397-8.048-7.914-9.894-11.17-9.894-4.75 0-9.058 4.089-9.058 11.346 0 9.807 5.496 15.787 11.653 15.787 4.002 0 6.862-1.979 8.709-6.024l.35.132c-1.935 4.925-6.29 9.059-12.092 9.059-7.126 0-12.797-6.377-12.797-15.437Z"/><path stroke="#A6A0A1" stroke-width=".4" d="M64.308 165.987c0-10.114 7.43-15.303 13.236-15.303 2.595 0 4.792.835 6.113.835 1.232 0 1.54-.572 1.54-1.363l.306-.089 3.517 10.819-.307.132c-4.397-8.048-7.914-9.894-11.17-9.894-4.75 0-9.058 4.089-9.058 11.346 0 9.807 5.496 15.787 11.653 15.787 4.002 0 6.862-1.979 8.709-6.024l.35.132c-1.935 4.925-6.29 9.059-12.092 9.059-7.126 0-12.797-6.377-12.797-15.437Z" mask="url(#j)"/><mask id="k" width="29" height="32" x="92.771" y="150.123" fill="#000" maskUnits="userSpaceOnUse"><path fill="#fff" d="M92.771 150.123h29v32h-29z"/><path d="M116.728 180.939c-1.101 0-1.935.133-3.167.133l-7.3-14.205h-5.191v10.994c0 2.067.617 2.815 2.376 2.815h.132v.396h-1.318c-1.144 0-2.2-.133-3.563-.133-1.409 0-2.419.133-3.605.133h-1.32v-.396h.13c1.762 0 2.377-.748 2.377-2.815v-23.572c0-2.023-.615-2.77-2.376-2.77h-.132v-.396h1.32c1.187 0 2.198.044 3.606.044 1.582 0 2.681-.044 4.09-.044h4.485c6.201 0 10.379 2.815 10.379 7.783 0 4.399-3.648 7.96-10.333 7.96h-.441c1.098 1.803 1.977 2.419 5.936 2.419l3.828 7.52c1.67 3.299 2.507 3.827 4.439 3.87v.396c-2.373 0-2.727-.132-4.352-.132Zm-9.807-29.331h-5.851v14.775h5.851c4.221 0 5.629-2.462 5.629-7.432 0-4.617-1.232-7.343-5.629-7.343Z"/></mask><path fill="#A6A0A1" d="M116.728 180.939c-1.101 0-1.935.133-3.167.133l-7.3-14.205h-5.191v10.994c0 2.067.617 2.815 2.376 2.815h.132v.396h-1.318c-1.144 0-2.2-.133-3.563-.133-1.409 0-2.419.133-3.605.133h-1.32v-.396h.13c1.762 0 2.377-.748 2.377-2.815v-23.572c0-2.023-.615-2.77-2.376-2.77h-.132v-.396h1.32c1.187 0 2.198.044 3.606.044 1.582 0 2.681-.044 4.09-.044h4.485c6.201 0 10.379 2.815 10.379 7.783 0 4.399-3.648 7.96-10.333 7.96h-.441c1.098 1.803 1.977 2.419 5.936 2.419l3.828 7.52c1.67 3.299 2.507 3.827 4.439 3.87v.396c-2.373 0-2.727-.132-4.352-.132Zm-9.807-29.331h-5.851v14.775h5.851c4.221 0 5.629-2.462 5.629-7.432 0-4.617-1.232-7.343-5.629-7.343Z"/><path stroke="#A6A0A1" stroke-width=".4" d="M116.728 180.939c-1.101 0-1.935.133-3.167.133l-7.3-14.205h-5.191v10.994c0 2.067.617 2.815 2.376 2.815h.132v.396h-1.318c-1.144 0-2.2-.133-3.563-.133-1.409 0-2.419.133-3.605.133h-1.32v-.396h.13c1.762 0 2.377-.748 2.377-2.815v-23.572c0-2.023-.615-2.77-2.376-2.77h-.132v-.396h1.32c1.187 0 2.198.044 3.606.044 1.582 0 2.681-.044 4.09-.044h4.485c6.201 0 10.379 2.815 10.379 7.783 0 4.399-3.648 7.96-10.333 7.96h-.441c1.098 1.803 1.977 2.419 5.936 2.419l3.828 7.52c1.67 3.299 2.507 3.827 4.439 3.87v.396c-2.373 0-2.727-.132-4.352-.132Zm-9.807-29.331h-5.851v14.775h5.851c4.221 0 5.629-2.462 5.629-7.432 0-4.617-1.232-7.343-5.629-7.343Z" mask="url(#k)"/><mask id="l" width="27" height="35" x="123.423" y="148.715" fill="#000" maskUnits="userSpaceOnUse"><path fill="#fff" d="M123.423 148.715h27v35h-27z"/><path d="M144.87 182.391c.046-.792-.35-1.319-1.67-1.319h-9.764c-1.406 0-2.504-.044-4.09-.044-1.406 0-2.419.044-3.605.044h-1.318v-.396h.131c1.759 0 2.374-.748 2.374-2.815v-23.572c0-2.023-.615-2.77-2.374-2.77h-.131v-.396h1.318c1.186 0 2.199.044 3.605.044 1.585 0 3.168-.044 4.573-.044h8.885c1.275 0 1.759-.44 1.716-1.319l.308-.089 3.693 10.51-.307.133c-2.683-3.738-4.266-5.936-5.586-7.299-1.232-1.232-2.285-1.452-4.047-1.452h-6.858v14.028h4.75c3.517 0 4.178-2.551 4.573-6.024h.396v12.665h-.396c-.396-3.475-1.056-6.157-4.573-6.157h-4.75v14.468h7.211c1.759 0 2.772-.132 4.178-1.628 1.409-1.493 3.387-4.22 5.849-7.959l.31.132-4.093 11.347-.308-.088Z"/></mask><path fill="#A6A0A1" d="M144.87 182.391c.046-.792-.35-1.319-1.67-1.319h-9.764c-1.406 0-2.504-.044-4.09-.044-1.406 0-2.419.044-3.605.044h-1.318v-.396h.131c1.759 0 2.374-.748 2.374-2.815v-23.572c0-2.023-.615-2.77-2.374-2.77h-.131v-.396h1.318c1.186 0 2.199.044 3.605.044 1.585 0 3.168-.044 4.573-.044h8.885c1.275 0 1.759-.44 1.716-1.319l.308-.089 3.693 10.51-.307.133c-2.683-3.738-4.266-5.936-5.586-7.299-1.232-1.232-2.285-1.452-4.047-1.452h-6.858v14.028h4.75c3.517 0 4.178-2.551 4.573-6.024h.396v12.665h-.396c-.396-3.475-1.056-6.157-4.573-6.157h-4.75v14.468h7.211c1.759 0 2.772-.132 4.178-1.628 1.409-1.493 3.387-4.22 5.849-7.959l.31.132-4.093 11.347-.308-.088Z"/><path stroke="#A6A0A1" stroke-width=".4" d="M144.87 182.391c.046-.792-.35-1.319-1.67-1.319h-9.764c-1.406 0-2.504-.044-4.09-.044-1.406 0-2.419.044-3.605.044h-1.318v-.396h.131c1.759 0 2.374-.748 2.374-2.815v-23.572c0-2.023-.615-2.77-2.374-2.77h-.131v-.396h1.318c1.186 0 2.199.044 3.605.044 1.585 0 3.168-.044 4.573-.044h8.885c1.275 0 1.759-.44 1.716-1.319l.308-.089 3.693 10.51-.307.133c-2.683-3.738-4.266-5.936-5.586-7.299-1.232-1.232-2.285-1.452-4.047-1.452h-6.858v14.028h4.75c3.517 0 4.178-2.551 4.573-6.024h.396v12.665h-.396c-.396-3.475-1.056-6.157-4.573-6.157h-4.75v14.468h7.211c1.759 0 2.772-.132 4.178-1.628 1.409-1.493 3.387-4.22 5.849-7.959l.31.132-4.093 11.347-.308-.088Z" mask="url(#l)"/><mask id="m" width="33" height="32" x="149.676" y="150.124" fill="#000" maskUnits="userSpaceOnUse"><path fill="#fff" d="M149.676 150.124h33v32h-33z"/><path d="M180.138 181.072c-.967 0-2.373-.133-3.648-.133-1.409 0-2.861.133-3.783.133h-1.408v-.396c1.363 0 2.154-.66 2.154-1.583 0-.572-.131-1.012-.395-1.582l-1.89-4.706h-13.412l-.794 1.978c-.308.837-.615 2.068-.615 2.858 0 1.803 1.232 3.035 3.387 3.035v.396h-.572c-1.187 0-2.815-.133-4.047-.133-.879 0-2.681.133-3.605.133h-.834v-.396c2.242-.044 4.132-1.846 5.891-6.289l7.521-19.041-1.716-4.222c.968 0 1.805.045 2.727.045.924 0 1.627-.045 2.464-.045l10.775 26.65c.791 1.935 1.625 2.902 3.21 2.902v.396h-1.41Zm-22.209-8.751h13.02l-6.597-16.403-6.423 16.403Z"/></mask><path fill="#A6A0A1" d="M180.138 181.072c-.967 0-2.373-.133-3.648-.133-1.409 0-2.861.133-3.783.133h-1.408v-.396c1.363 0 2.154-.66 2.154-1.583 0-.572-.131-1.012-.395-1.582l-1.89-4.706h-13.412l-.794 1.978c-.308.837-.615 2.068-.615 2.858 0 1.803 1.232 3.035 3.387 3.035v.396h-.572c-1.187 0-2.815-.133-4.047-.133-.879 0-2.681.133-3.605.133h-.834v-.396c2.242-.044 4.132-1.846 5.891-6.289l7.521-19.041-1.716-4.222c.968 0 1.805.045 2.727.045.924 0 1.627-.045 2.464-.045l10.775 26.65c.791 1.935 1.625 2.902 3.21 2.902v.396h-1.41Zm-22.209-8.751h13.02l-6.597-16.403-6.423 16.403Z"/><path stroke="#A6A0A1" stroke-width=".4" d="M180.138 181.072c-.967 0-2.373-.133-3.648-.133-1.409 0-2.861.133-3.783.133h-1.408v-.396c1.363 0 2.154-.66 2.154-1.583 0-.572-.131-1.012-.395-1.582l-1.89-4.706h-13.412l-.794 1.978c-.308.837-.615 2.068-.615 2.858 0 1.803 1.232 3.035 3.387 3.035v.396h-.572c-1.187 0-2.815-.133-4.047-.133-.879 0-2.681.133-3.605.133h-.834v-.396c2.242-.044 4.132-1.846 5.891-6.289l7.521-19.041-1.716-4.222c.968 0 1.805.045 2.727.045.924 0 1.627-.045 2.464-.045l10.775 26.65c.791 1.935 1.625 2.902 3.21 2.902v.396h-1.41Zm-22.209-8.751h13.02l-6.597-16.403-6.423 16.403Z" mask="url(#m)"/><mask id="n" width="30" height="33" x="179.573" y="148.761" fill="#000" maskUnits="userSpaceOnUse"><path fill="#fff" d="M179.573 148.761h30v33h-30z"/><path d="M199.57 181.072h-1.317c-1.144 0-2.2-.132-3.563-.132s-2.419.132-3.605.132h-1.321v-.395h.131c1.762 0 2.377-.749 2.377-2.815v-26.255h-3.168c-1.363 0-1.935.089-2.991 1.408-1.099 1.451-2.726 4.134-5.23 8.751l-.31-.133 3.036-11.872.307.044c0 .703.351 1.319 1.802 1.319h4.619c1.232 0 2.638.044 4.354.044 1.67 0 3.122-.044 4.308-.044h4.662c1.451 0 1.804-.616 1.804-1.319l.308-.044 3.033 11.872-.307.133c-2.508-4.617-4.133-7.3-5.276-8.751-1.013-1.319-1.628-1.408-2.991-1.408h-3.168v26.255c0 2.066.618 2.815 2.419 2.815h.089l-.002.395Z"/></mask><path fill="#A6A0A1" d="M199.57 181.072h-1.317c-1.144 0-2.2-.132-3.563-.132s-2.419.132-3.605.132h-1.321v-.395h.131c1.762 0 2.377-.749 2.377-2.815v-26.255h-3.168c-1.363 0-1.935.089-2.991 1.408-1.099 1.451-2.726 4.134-5.23 8.751l-.31-.133 3.036-11.872.307.044c0 .703.351 1.319 1.802 1.319h4.619c1.232 0 2.638.044 4.354.044 1.67 0 3.122-.044 4.308-.044h4.662c1.451 0 1.804-.616 1.804-1.319l.308-.044 3.033 11.872-.307.133c-2.508-4.617-4.133-7.3-5.276-8.751-1.013-1.319-1.628-1.408-2.991-1.408h-3.168v26.255c0 2.066.618 2.815 2.419 2.815h.089l-.002.395Z"/><path stroke="#A6A0A1" stroke-width=".4" d="M199.57 181.072h-1.317c-1.144 0-2.2-.132-3.563-.132s-2.419.132-3.605.132h-1.321v-.395h.131c1.762 0 2.377-.749 2.377-2.815v-26.255h-3.168c-1.363 0-1.935.089-2.991 1.408-1.099 1.451-2.726 4.134-5.23 8.751l-.31-.133 3.036-11.872.307.044c0 .703.351 1.319 1.802 1.319h4.619c1.232 0 2.638.044 4.354.044 1.67 0 3.122-.044 4.308-.044h4.662c1.451 0 1.804-.616 1.804-1.319l.308-.044 3.033 11.872-.307.133c-2.508-4.617-4.133-7.3-5.276-8.751-1.013-1.319-1.628-1.408-2.991-1.408h-3.168v26.255c0 2.066.618 2.815 2.419 2.815h.089l-.002.395Z" mask="url(#n)"/><mask id="o" width="27" height="35" x="211.459" y="148.715" fill="#000" maskUnits="userSpaceOnUse"><path fill="#fff" d="M211.459 148.715h27v35h-27z"/><path d="M232.907 182.391c.045-.792-.351-1.319-1.671-1.319h-9.764c-1.406 0-2.504-.044-4.09-.044-1.406 0-2.419.044-3.605.044h-1.318v-.396h.131c1.759 0 2.374-.748 2.374-2.815v-23.572c0-2.023-.615-2.77-2.374-2.77h-.131v-.396h1.318c1.186 0 2.199.044 3.605.044 1.585 0 3.168-.044 4.573-.044h8.885c1.275 0 1.759-.44 1.716-1.319l.308-.089 3.694 10.51-.308.133c-2.683-3.738-4.265-5.936-5.586-7.299-1.232-1.232-2.285-1.452-4.047-1.452h-6.858v14.028h4.75c3.517 0 4.178-2.551 4.573-6.024h.396v12.665h-.396c-.396-3.475-1.056-6.157-4.573-6.157h-4.75v14.468h7.211c1.759 0 2.772-.132 4.178-1.628 1.409-1.493 3.387-4.22 5.849-7.959l.31.132-4.093 11.347-.307-.088Z"/></mask><path fill="#A6A0A1" d="M232.907 182.391c.045-.792-.351-1.319-1.671-1.319h-9.764c-1.406 0-2.504-.044-4.09-.044-1.406 0-2.419.044-3.605.044h-1.318v-.396h.131c1.759 0 2.374-.748 2.374-2.815v-23.572c0-2.023-.615-2.77-2.374-2.77h-.131v-.396h1.318c1.186 0 2.199.044 3.605.044 1.585 0 3.168-.044 4.573-.044h8.885c1.275 0 1.759-.44 1.716-1.319l.308-.089 3.694 10.51-.308.133c-2.683-3.738-4.265-5.936-5.586-7.299-1.232-1.232-2.285-1.452-4.047-1.452h-6.858v14.028h4.75c3.517 0 4.178-2.551 4.573-6.024h.396v12.665h-.396c-.396-3.475-1.056-6.157-4.573-6.157h-4.75v14.468h7.211c1.759 0 2.772-.132 4.178-1.628 1.409-1.493 3.387-4.22 5.849-7.959l.31.132-4.093 11.347-.307-.088Z"/><path stroke="#A6A0A1" stroke-width=".4" d="M232.907 182.391c.045-.792-.351-1.319-1.671-1.319h-9.764c-1.406 0-2.504-.044-4.09-.044-1.406 0-2.419.044-3.605.044h-1.318v-.396h.131c1.759 0 2.374-.748 2.374-2.815v-23.572c0-2.023-.615-2.77-2.374-2.77h-.131v-.396h1.318c1.186 0 2.199.044 3.605.044 1.585 0 3.168-.044 4.573-.044h8.885c1.275 0 1.759-.44 1.716-1.319l.308-.089 3.694 10.51-.308.133c-2.683-3.738-4.265-5.936-5.586-7.299-1.232-1.232-2.285-1.452-4.047-1.452h-6.858v14.028h4.75c3.517 0 4.178-2.551 4.573-6.024h.396v12.665h-.396c-.396-3.475-1.056-6.157-4.573-6.157h-4.75v14.468h7.211c1.759 0 2.772-.132 4.178-1.628 1.409-1.493 3.387-4.22 5.849-7.959l.31.132-4.093 11.347-.307-.088Z" mask="url(#o)"/><path fill="#fff" d="m236.635 197.341-2.982.252c-.756-4.494-4.158-6.594-8.106-6.594-4.62 0-7.35 2.394-7.35 5.586 0 2.772 2.1 4.074 5.292 4.788l5.964 1.386c4.158.924 7.854 2.73 7.854 8.274 0 5.67-4.788 8.652-10.92 8.652-6.636 0-10.92-3.36-12.222-9.744l3.066-.336c1.008 5.628 4.746 7.518 9.156 7.518 4.536 0 7.896-2.226 7.896-6.006 0-3.486-2.52-4.872-5.838-5.628l-5.754-1.344c-4.158-.966-7.518-2.688-7.518-7.56 0-4.788 4.2-8.106 10.416-8.106 5.838 0 9.828 3.276 11.046 8.862ZM209.044 219.055h-3.066l-17.262-25.704h-.084v25.704h-2.772v-29.988h3.192l17.094 25.452h.126v-25.452h2.772v29.988ZM166.066 188.479c7.812 0 13.482 5.88 13.482 15.582 0 9.744-5.67 15.624-13.482 15.624-7.77 0-13.44-5.88-13.44-15.624 0-9.702 5.67-15.582 13.44-15.582Zm0 28.644c6.132 0 10.458-4.788 10.458-13.062 0-8.232-4.326-13.02-10.458-13.02-6.09 0-10.416 4.788-10.416 13.02 0 8.274 4.326 13.062 10.416 13.062ZM143.448 219.055v-29.988h2.94v29.988h-2.94ZM138.016 191.671H127.81v27.384h-2.94v-27.384h-10.248v-2.604h23.394v2.604ZM109.282 189.067v20.034c0 6.804-4.746 10.584-11.424 10.584-6.636 0-11.382-3.78-11.382-10.584v-20.034h2.94v19.488c0 5.964 3.234 8.568 8.442 8.568s8.484-2.604 8.484-8.568v-19.488h2.94ZM62.132 219.055v-29.988h2.94v27.426h16.674v2.562H62.132ZM42.338 188.479c7.812 0 13.482 5.88 13.482 15.582 0 9.744-5.67 15.624-13.482 15.624-7.77 0-13.44-5.88-13.44-15.624 0-9.702 5.67-15.582 13.44-15.582Zm0 28.644c6.132 0 10.458-4.788 10.458-13.062 0-8.232-4.326-13.02-10.458-13.02-6.09 0-10.416 4.788-10.416 13.02 0 8.274 4.326 13.062 10.416 13.062ZM23.47 197.341l-2.982.252c-.756-4.494-4.158-6.594-8.106-6.594-4.62 0-7.35 2.394-7.35 5.586 0 2.772 2.1 4.074 5.292 4.788l5.964 1.386c4.158.924 7.854 2.73 7.854 8.274 0 5.67-4.788 8.652-10.92 8.652-6.636 0-10.92-3.36-12.222-9.744l3.066-.336c1.008 5.628 4.746 7.518 9.156 7.518 4.536 0 7.896-2.226 7.896-6.006 0-3.486-2.52-4.872-5.838-5.628l-5.754-1.344c-4.158-.966-7.518-2.688-7.518-7.56 0-4.788 4.2-8.106 10.416-8.106 5.838 0 9.828 3.276 11.046 8.862Z"/></svg>
