<svg xmlns="http://www.w3.org/2000/svg" width="261" height="218" fill="none"><path fill="#A6A0A1" d="M75.554 163.171c0-10.732 7.888-16.238 14.05-16.238 2.754 0 5.087.886 6.489.886 1.307 0 1.633-.607 1.633-1.447l.327-.094 3.733 11.48-.326.141c-4.667-8.54-8.4-10.5-11.857-10.5-5.042 0-9.615 4.34-9.615 12.04 0 10.407 5.833 16.753 12.37 16.753 4.247 0 7.283-2.1 9.243-6.393l.372.141c-2.054 5.225-6.676 9.612-12.835 9.612-7.565 0-13.584-6.767-13.584-16.381ZM131.198 179.038c-1.17 0-2.054.141-3.363.141l-7.748-15.074h-5.51v11.667c0 2.192.655 2.987 2.522 2.987h.139v.42h-1.398c-1.215 0-2.335-.141-3.782-.141-1.496 0-2.568.141-3.827.141h-1.402v-.42h.139c1.87 0 2.523-.795 2.523-2.987v-25.013c0-2.148-.653-2.94-2.523-2.94h-.139v-.42h1.402c1.259 0 2.331.047 3.827.047 1.679 0 2.845-.047 4.341-.047h4.761c6.582 0 11.017 2.987 11.017 8.259 0 4.667-3.873 8.446-10.969 8.446h-.468c1.166 1.914 2.099 2.567 6.301 2.567l4.063 7.98c1.774 3.5 2.662 4.061 4.713 4.107v.42c-2.519 0-2.895-.14-4.619-.14Zm-10.41-31.125h-6.211v15.679h6.211c4.479 0 5.975-2.612 5.975-7.886 0-4.9-1.308-7.793-5.975-7.793ZM161.07 180.578c.048-.84-.372-1.399-1.773-1.399h-10.365c-1.492 0-2.658-.047-4.341-.047-1.492 0-2.568.047-3.827.047h-1.399v-.42h.139c1.868 0 2.52-.795 2.52-2.987v-25.013c0-2.148-.652-2.94-2.52-2.94h-.139v-.42h1.399c1.259 0 2.335.047 3.827.047 1.682 0 3.363-.047 4.854-.047h9.431c1.354 0 1.868-.467 1.822-1.4l.326-.094 3.921 11.153-.326.14c-2.848-3.966-4.528-6.299-5.929-7.745-1.308-1.308-2.426-1.541-4.296-1.541h-7.28v14.886h5.042c3.733 0 4.435-2.707 4.854-6.393h.42v13.44h-.42c-.42-3.687-1.121-6.534-4.854-6.534h-5.042v15.353h7.655c1.867 0 2.942-.141 4.434-1.727 1.496-1.585 3.595-4.478 6.209-8.446l.329.14-4.344 12.04-.327-.093ZM198.506 179.179c-1.027 0-2.519-.141-3.873-.141-1.495 0-3.036.141-4.014.141h-1.496v-.42c1.447 0 2.287-.701 2.287-1.68 0-.607-.139-1.074-.42-1.679l-2.005-4.994h-14.237l-.843 2.099c-.327.888-.653 2.194-.653 3.033 0 1.914 1.308 3.221 3.595 3.221v.42h-.607c-1.259 0-2.988-.141-4.296-.141-.933 0-2.845.141-3.827.141h-.885v-.42c2.381-.047 4.387-1.96 6.253-6.674l7.985-20.205-1.822-4.48c1.027 0 1.915.047 2.894.047.981 0 1.728-.047 2.616-.047l11.437 28.279c.84 2.053 1.725 3.08 3.407 3.08v.42h-1.496Zm-23.574-9.286h13.82l-7.002-17.406-6.818 17.406ZM219.133 179.179h-1.399c-1.215 0-2.335-.141-3.782-.141s-2.568.141-3.827.141h-1.402v-.42h.14c1.87 0 2.522-.794 2.522-2.987v-27.859h-3.362c-1.447 0-2.054.094-3.175 1.493-1.166 1.541-2.894 4.387-5.552 9.286l-.329-.14 3.223-12.599.326.047c0 .746.372 1.4 1.913 1.4h4.902c1.308 0 2.8.047 4.622.047 1.773 0 3.314-.047 4.573-.047h4.948c1.541 0 1.916-.654 1.916-1.4l.326-.047 3.22 12.599-.326.14c-2.662-4.899-4.386-7.745-5.6-9.286-1.076-1.399-1.728-1.493-3.175-1.493h-3.363v27.859c0 2.193.656 2.987 2.568 2.987h.094l-.001.42ZM254.519 180.578c.048-.84-.372-1.399-1.773-1.399h-10.365c-1.492 0-2.658-.047-4.341-.047-1.492 0-2.568.047-3.827.047h-1.399v-.42h.14c1.867 0 2.519-.795 2.519-2.987v-25.013c0-2.148-.652-2.94-2.519-2.94h-.14v-.42h1.399c1.259 0 2.335.047 3.827.047 1.683 0 3.363-.047 4.855-.047h9.431c1.353 0 1.867-.467 1.821-1.4l.326-.094 3.921 11.153-.326.14c-2.848-3.966-4.528-6.299-5.929-7.745-1.308-1.308-2.426-1.541-4.296-1.541h-7.28v14.886h5.042c3.734 0 4.435-2.707 4.854-6.393h.42v13.44h-.42c-.42-3.687-1.12-6.534-4.854-6.534h-5.042v15.353h7.655c1.867 0 2.942-.141 4.435-1.727 1.495-1.585 3.594-4.478 6.208-8.446l.329.14-4.344 12.04-.327-.093Z"/><path fill="#fff" d="m258.99 193.182-4.013.356c-.847-4.369-4.101-6.464-8.203-6.464-4.458 0-7.178 2.274-7.178 5.439 0 2.809 2.229 3.968 5.35 4.681l5.885 1.382c4.637 1.07 8.916 2.675 8.916 9.095 0 6.108-5.305 9.273-11.992 9.273-7.356 0-12.126-3.656-13.33-10.432l4.012-.446c.892 5.706 4.86 7.534 9.407 7.534s7.802-2.184 7.802-5.84c0-3.522-2.586-4.636-6.019-5.484l-5.974-1.426c-4.28-1.026-8.158-2.764-8.158-8.292 0-5.306 4.726-8.828 11.324-8.828s10.789 3.478 12.171 9.452ZM228.802 216.23h-4.28l-17.254-26.08h-.133v26.08h-3.745v-31.832h4.413l17.075 25.814h.179v-25.814h3.745v31.832ZM182.095 183.73c8.649 0 14.668 6.331 14.668 16.585 0 10.298-6.019 16.629-14.668 16.629s-14.667-6.331-14.667-16.629c0-10.254 6.018-16.585 14.667-16.585Zm0 29.781c6.331 0 10.566-4.859 10.566-13.152 0-8.336-4.235-13.196-10.566-13.196-6.33 0-10.566 4.86-10.566 13.196 0 8.293 4.236 13.152 10.566 13.152ZM156.748 216.23v-31.832h4.012v31.832h-4.012ZM150.709 187.92h-10.745v28.31h-4.012v-28.31h-10.789v-3.522h25.546v3.522ZM119.263 184.398v20.731c0 7.668-5.261 11.814-12.483 11.814-7.178 0-12.483-4.146-12.483-11.814v-20.731h4.012v20.196c0 6.286 3.21 8.872 8.471 8.872 5.305 0 8.471-2.586 8.471-8.872v-20.196h4.012ZM67.189 216.23v-31.832H71.2v28.355h17.52v3.477H67.19ZM45.893 183.73c8.65 0 14.668 6.331 14.668 16.585 0 10.298-6.019 16.629-14.668 16.629s-14.667-6.331-14.667-16.629c0-10.254 6.018-16.585 14.667-16.585Zm0 29.781c6.33 0 10.566-4.859 10.566-13.152 0-8.336-4.235-13.196-10.566-13.196-6.33 0-10.566 4.86-10.566 13.196 0 8.293 4.236 13.152 10.566 13.152ZM24.565 193.182l-4.013.356c-.847-4.369-4.101-6.464-8.203-6.464-4.458 0-7.177 2.274-7.177 5.439 0 2.809 2.229 3.968 5.35 4.681l5.884 1.382c4.637 1.07 8.917 2.675 8.917 9.095 0 6.108-5.306 9.273-11.993 9.273-7.356 0-12.126-3.656-13.33-10.432l4.012-.446c.892 5.706 4.86 7.534 9.407 7.534 4.548 0 7.802-2.184 7.802-5.84 0-3.522-2.586-4.636-6.018-5.484l-5.974-1.426c-4.28-1.026-8.159-2.764-8.159-8.292 0-5.306 4.726-8.828 11.324-8.828s10.789 3.478 12.17 9.452Z"/><path fill="#A6A0A1" d="M138.451 105.635h-4.489c-1.775 0-3.412-.047-5.094-.047-1.498 0-2.572.047-3.833.047h-1.403v-.42h.139c1.873 0 2.526-.796 2.526-2.991V77.176c0-2.15-.653-2.945-2.526-2.945h-.139v-.42h1.403c1.261 0 2.335.047 3.833.047 1.915 0 3.179-.047 4.906-.047h3.555c6.216 0 10.938 2.803 10.938 7.85 0 4.3-3.554 7.336-8.836 7.804 5.796.047 10.566 2.43 10.566 7.944 0 5.702-5.284 8.226-11.546 8.226Zm-1.543-31.309h-5.518V89.28h5.796c4.677 0 5.751-3.037 5.751-7.57 0-4.767-1.355-7.384-6.029-7.384Zm1.122 15.468h-6.639v15.327h6.591c4.674 0 6.404-2.197 6.404-7.756 0-5.702-2.057-7.57-6.356-7.57ZM168.929 106.008c-7.616 0-11.543-3.271-11.543-10.468V77.176c0-2.15-.702-2.945-2.571-2.945h-.094v-.42h1.4c1.217 0 2.338.14 3.787.14 1.449 0 2.572-.14 3.833-.14h1.403v.42h-.142c-1.87 0-2.523.794-2.523 2.945v17.103c0 7.524 2.571 10.795 7.947 10.795 5.143 0 8.555-3.785 8.555-9.44V80.26c0-2.944-1.262-5.98-4.348-6.028h-.094v-.42h.887c.982 0 2.386.14 3.787.14 1.497 0 2.852-.14 3.832-.14h.89v.42h-.094c-3.086 0-4.347 3.085-4.347 6.028v15.375c0 6.028-3.599 10.373-10.565 10.373ZM197.257 105.215h.139v.42h-1.4c-1.217 0-2.338-.141-3.836-.141-1.449 0-2.523.141-3.784.141h-1.403v-.42h.139c1.873 0 2.526-.796 2.526-2.991V77.176c0-2.15-.653-2.945-2.526-2.945h-.139v-.42h1.403c1.261 0 2.335.14 3.784.14 1.498 0 2.62-.14 3.836-.14h1.4v.42h-.139c-1.87 0-2.526.794-2.526 2.945v25.048c0 2.195.656 2.991 2.526 2.991ZM223.109 107.131l-.327-.094c.045-.888-.421-1.402-1.73-1.402h-9.396c-1.217 0-2.338-.047-3.787-.047-1.495 0-2.572.047-3.833.047h-1.4v-.42h.139c1.87 0 2.523-.796 2.523-2.991V77.176c0-2.15-.653-2.945-2.523-2.945h-.139v-.42h1.4c1.261 0 2.338.14 3.833.14 1.449 0 2.571-.14 3.787-.14h1.403v.42h-.142c-1.87 0-2.523.794-2.523 2.945v27.944h6.217c1.73 0 2.804-.187 4.301-1.73 1.495-1.587 3.784-5.186 6.356-9.158l.329.141-4.488 12.758ZM244.467 105.635h-2.992c-1.731 0-2.992-.047-4.91-.047-1.494 0-2.571.047-3.832.047h-1.401v-.42h.14c1.869 0 2.522-.796 2.522-2.991V77.176c0-2.15-.653-2.945-2.522-2.945h-.14v-.42h1.401c1.261 0 2.338.047 3.832.047 1.918 0 3.179-.047 4.91-.047h2.992c7.991 0 14.538 5.653 14.538 15.935 0 10.233-6.547 15.889-14.538 15.889Zm-.796-31.309h-4.58v30.795h4.58c7.338 0 9.631-4.393 9.631-15.374 0-11.029-2.293-15.42-9.631-15.42Z"/><path fill="#fff" d="m259.092 119.348-3.927.356c-.829-4.369-4.014-6.465-8.028-6.465-4.363 0-7.025 2.274-7.025 5.44 0 2.809 2.182 3.968 5.236 4.682l5.759 1.382c4.538 1.07 8.727 2.675 8.727 9.096 0 6.109-5.192 9.275-11.737 9.275-7.2 0-11.868-3.657-13.046-10.434l3.927-.446c.872 5.707 4.756 7.535 9.206 7.535 4.45 0 7.636-2.184 7.636-5.841 0-3.522-2.531-4.637-5.891-5.484l-5.846-1.427c-4.189-1.026-7.985-2.765-7.985-8.294 0-5.306 4.625-8.828 11.082-8.828 6.458 0 10.559 3.478 11.912 9.453ZM229.498 110.563V142.4h-3.796v-25.951h-.131l-9.512 25.951h-3.185l-9.556-25.951h-.13V142.4h-3.666v-31.837h5.673l9.293 25.951h.131l9.294-25.951h5.585ZM186.501 133.17h-14.268l-3.447 9.23h-4.232l12.435-31.837h4.843l12.435 31.837h-4.276l-3.49-9.23Zm-1.309-3.433-5.803-15.383h-.131l-5.76 15.383h11.694ZM142.929 124.431h16.362v3.388h-16.362v11.103h17.06v3.478h-20.987v-31.837h20.987v3.434h-17.06v10.434ZM133.179 114.086h-10.515V142.4h-3.927v-28.314h-10.559v-3.522h25.001v3.522Z"/><path fill="#A6A0A1" d="M147.443 33.62c-1.453 0-3-.14-4.686-.14-1.547 0-2.672.14-3.982.14h-1.407v-.42h.14c1.877 0 2.532-.798 2.532-3V5.09c0-2.156-.655-2.952-2.532-2.952h-.14v-.422h1.407c1.265 0 2.341.047 3.842.047 1.92 0 3.188-.047 4.919-.047h4.031c6.796 0 11.296 2.905 11.296 8.574 0 5.762-4.5 8.713-11.296 8.713h-6.42v11.198c0 2.108.658 2.998 3.141 2.998h1.31v.422h-2.155Zm9.844-23.33c0-5.528-1.313-8.057-5.998-8.057h-6.141v16.255h6.141c4.685 0 5.998-2.622 5.998-8.197ZM187.607 35.12l-.331-.094c.049-.89-.421-1.405-1.731-1.405h-9.42c-1.219 0-2.344-.047-3.797-.047-1.501 0-2.578.047-3.842.047h-1.407v-.422h.14c1.877 0 2.532-.797 2.532-2.998V5.089c0-2.155-.655-2.951-2.532-2.951h-.14v-.422h1.407c1.264 0 2.341.142 3.842.142 1.453 0 2.578-.142 3.797-.142h1.404v.422h-.14c-1.874 0-2.532.796-2.532 2.951v28.015h6.235c1.732 0 2.812-.187 4.31-1.734 1.501-1.59 3.796-5.198 6.374-9.18l.328.14-4.497 12.79ZM224.207 33.622c-1.031 0-2.533-.142-3.891-.142-1.498 0-3.045.142-4.031.142h-1.498V33.2c1.453 0 2.296-.703 2.296-1.687 0-.609-.143-1.078-.422-1.685l-2.016-5.013h-14.293l-.843 2.107c-.328.892-.655 2.202-.655 3.045 0 1.92 1.31 3.233 3.606 3.233v.422h-.607c-1.268 0-2.999-.142-4.312-.142-.937 0-2.86.142-3.842.142h-.892V33.2c2.389-.047 4.406-1.967 6.28-6.7l8.012-20.284-1.826-4.497c1.031 0 1.92.047 2.905.047.983 0 1.735-.047 2.624-.047l11.482 28.389c.843 2.061 1.734 3.092 3.42 3.092v.422h-1.497Zm-23.667-9.323h13.871l-7.03-17.474-6.841 17.474ZM254.619 33.573c-.985 0-1.968.047-3.093.047L232.499 5.651v21.504c0 2.952 1.264 5.996 4.404 6.044h.094v.421h-.937c-.982 0-2.344-.141-3.796-.141-1.453 0-2.857.141-3.843.141h-.888V33.2h.094c3.139 0 4.358-3.092 4.358-6.044V5.042c-1.267-2.014-1.828-2.904-3.608-2.904h-.188v-.422h.985c1.359 0 2.108.047 3.421.047 1.498 0 2.153-.047 3.372-.047l18.323 26.75V8.181c0-2.951-1.264-5.996-4.358-6.043h-.094v-.422h.892c.982 0 2.389.142 3.797.142 1.498 0 2.856-.142 3.842-.142h.888v.422h-.091c-3.093 0-4.361 3.092-4.361 6.043v21.035l2.814 4.404c-1.313 0-2.344-.047-3-.047Z"/><path fill="#fff" d="m259.374 47.228-4.012.356c-.847-4.369-4.102-6.464-8.203-6.464-4.458 0-7.178 2.274-7.178 5.439 0 2.809 2.229 3.968 5.35 4.681l5.885 1.382c4.636 1.07 8.916 2.675 8.916 9.095 0 6.108-5.305 9.273-11.992 9.273-7.356 0-12.127-3.656-13.33-10.432l4.012-.446c.892 5.706 4.859 7.534 9.407 7.534 4.547 0 7.802-2.184 7.802-5.84 0-3.522-2.586-4.637-6.019-5.484l-5.974-1.426c-4.28-1.026-8.158-2.764-8.158-8.293 0-5.305 4.725-8.827 11.323-8.827 6.599 0 10.789 3.477 12.171 9.452ZM212.446 52.31h16.718v3.388h-16.718V66.8h17.432v3.478h-21.444V38.445h21.444v3.433h-17.432V52.31ZM197.609 70.277l-8.337-12.885h-8.203v12.885h-4.012V38.445h14.311c6.821 0 10.61 3.611 10.61 9.496 0 5.127-2.898 8.515-8.203 9.273l8.56 13.063h-4.726Zm-16.54-16.273h9.764c4.547 0 7.044-2.05 7.044-6.063s-2.497-6.063-7.044-6.063h-9.764v12.126ZM169.819 38.445v20.73c0 7.669-5.261 11.815-12.483 11.815-7.178 0-12.483-4.146-12.483-11.814V38.445h4.012V58.64c0 6.286 3.21 8.872 8.471 8.872 5.305 0 8.47-2.586 8.47-8.872V38.445h4.013ZM138.947 41.967h-10.744v28.31h-4.013v-28.31h-10.789v-3.522h25.546v3.522ZM107.501 38.445v20.73c0 7.669-5.26 11.815-12.483 11.815-7.178 0-12.483-4.146-12.483-11.814V38.445h4.013V58.64c0 6.286 3.21 8.872 8.47 8.872 5.305 0 8.471-2.586 8.471-8.872V38.445h4.012ZM58.96 41.878v10.789h16.718v3.343H58.96v14.267h-4.013V38.445h21.444v3.433H58.96Z"/></svg>
