<?xml version="1.0" standalone="no"?>
<!DOCTYPE svg PUBLIC "-//W3C//DTD SVG 20010904//EN"
 "http://www.w3.org/TR/2001/REC-SVG-20010904/DTD/svg10.dtd">
<svg version="1.0" xmlns="http://www.w3.org/2000/svg"
 width="512.000000pt" height="512.000000pt" viewBox="0 0 512.000000 512.000000"
 preserveAspectRatio="xMidYMid meet">
<metadata>
Created by potrace 1.14, written by Peter Selinger 2001-2017
</metadata>
<g transform="translate(0.000000,512.000000) scale(0.100000,-0.100000)"
fill="#000000" stroke="none">
<path d="M0 2560 l0 -2560 2560 0 2560 0 0 2560 0 2560 -2560 0 -2560 0 0
-2560z m3000 1508 c0 -15 -9 -18 -57 -18 -86 -1 -134 -26 -164 -86 l-24 -49 0
-1350 0 -1350 22 -48 c17 -38 31 -52 65 -67 24 -11 59 -20 78 -20 48 0 80 -10
80 -24 0 -8 -114 -11 -435 -11 -336 0 -435 2 -435 12 0 7 17 15 38 18 128 19
171 46 192 124 7 27 9 459 8 1388 -3 1332 -3 1348 -23 1383 -28 47 -94 80
-162 80 -44 0 -53 3 -53 18 0 16 27 17 435 17 408 0 435 -1 435 -17z"/>
</g>
</svg>
